<?xml version="1.0" encoding="iso-8859-1"?>
<!-- Generator: Adobe Illustrator 16.0.0, SVG Export Plug-In . SVG Version: 6.00 Build 0)  -->
<!DOCTYPE svg PUBLIC "-//W3C//DTD SVG 1.1//EN" "http://www.w3.org/Graphics/SVG/1.1/DTD/svg11.dtd">
<svg version="1.1" id="Capa_1" xmlns="http://www.w3.org/2000/svg" xmlns:xlink="http://www.w3.org/1999/xlink" x="0px" y="0px"
	 width="511.626px" height="511.626px" viewBox="0 0 511.626 511.626" style="enable-background:new 0 0 511.626 511.626;"
	 xml:space="preserve">
<g>
	<path d="M509.053,333.753c-1.711-1.711-3.901-2.566-6.563-2.566H401.991c-4.186,0-7.039,1.902-8.565,5.711
		c-1.523,3.617-0.855,6.951,1.995,9.996l28.551,28.548c-12.751,17.323-30.785,31.929-54.101,43.828
		c-23.315,11.898-49.152,19.745-77.516,23.555V258.096h54.816c4.948,0,9.236-1.812,12.854-5.424
		c3.613-3.612,5.424-7.898,5.424-12.847v-36.547c0-4.947-1.811-9.229-5.424-12.847c-3.617-3.616-7.905-5.424-12.854-5.424h-54.816
		v-46.536c11.04-6.473,19.89-15.275,26.553-26.409c6.663-11.138,9.996-23.363,9.996-36.691c0-20.174-7.139-37.401-21.412-51.673
		C293.217,9.421,275.994,2.282,255.817,2.282c-20.177,0-37.404,7.139-51.682,21.416c-14.272,14.272-21.411,31.499-21.411,51.673
		c0,13.328,3.333,25.553,9.994,36.691c6.662,11.134,15.513,19.936,26.551,26.409v46.536h-54.816c-4.952,0-9.235,1.809-12.85,5.424
		c-3.618,3.617-5.426,7.9-5.426,12.847v36.547c0,4.949,1.809,9.235,5.426,12.847c3.619,3.616,7.902,5.424,12.85,5.424h54.816
		v184.729c-28.359-3.812-54.2-11.663-77.514-23.559c-23.315-11.902-41.352-26.508-54.103-43.831l28.549-28.541
		c2.853-3.053,3.521-6.379,1.997-9.999c-1.521-3.812-4.377-5.715-8.564-5.715H9.135c-2.666,0-4.856,0.855-6.567,2.573
		C0.859,335.464,0,337.654,0,340.323v100.495c0,4.182,1.903,7.043,5.708,8.562c1.525,0.38,2.667,0.568,3.427,0.568
		c2.667,0,4.854-0.856,6.567-2.561l26.552-26.556c22.648,27.217,52.96,48.772,90.932,64.665s78.847,23.846,122.626,23.846
		c43.776,0,84.651-7.953,122.623-23.846c37.973-15.893,68.286-37.445,90.934-64.665l26.556,26.556
		c1.903,1.704,4.086,2.561,6.564,2.561c0.76,0,1.902-0.192,3.429-0.568c3.806-1.52,5.708-4.381,5.708-8.562V340.323
		C511.626,337.654,510.767,335.464,509.053,333.753z M268.66,88.218c-3.613,3.617-7.895,5.43-12.847,5.43
		c-4.952,0-9.232-1.812-12.85-5.43c-3.617-3.612-5.424-7.898-5.424-12.847c0-4.947,1.807-9.229,5.424-12.847
		c3.621-3.616,7.902-5.424,12.85-5.424s9.233,1.809,12.847,5.424c3.614,3.617,5.428,7.9,5.428,12.847
		C274.087,80.319,272.274,84.606,268.66,88.218z"/>
</g>
<g>
</g>
<g>
</g>
<g>
</g>
<g>
</g>
<g>
</g>
<g>
</g>
<g>
</g>
<g>
</g>
<g>
</g>
<g>
</g>
<g>
</g>
<g>
</g>
<g>
</g>
<g>
</g>
<g>
</g>
</svg>
