<?xml version="1.0" encoding="iso-8859-1"?>
<!-- Generator: Adobe Illustrator 16.0.0, SVG Export Plug-In . SVG Version: 6.00 Build 0)  -->
<!DOCTYPE svg PUBLIC "-//W3C//DTD SVG 1.1//EN" "http://www.w3.org/Graphics/SVG/1.1/DTD/svg11.dtd">
<svg version="1.1" id="Capa_1" xmlns="http://www.w3.org/2000/svg" xmlns:xlink="http://www.w3.org/1999/xlink" x="0px" y="0px"
	 width="475.071px" height="475.071px" viewBox="0 0 475.071 475.071" style="enable-background:new 0 0 475.071 475.071;"
	 xml:space="preserve">
<g>
	<g>
		<path d="M65.947,153.884c-8.183,0-15.136,2.853-20.844,8.566c-5.708,5.711-8.564,12.562-8.564,20.555v122.772
			c0,8.179,2.855,15.126,8.564,20.837c5.708,5.712,12.657,8.562,20.841,8.562c8.186,0,15.085-2.851,20.699-8.562
			c5.618-5.711,8.425-12.658,8.425-20.837V183.005c0-7.996-2.857-14.847-8.565-20.555C80.794,156.74,73.939,153.884,65.947,153.884z
			"/>
		<path d="M106.494,349.457c0,8.754,3.046,16.177,9.136,22.269c6.091,6.085,13.512,9.13,22.27,9.13h21.128l0.288,64.81
			c0,8.186,2.855,15.129,8.564,20.841c5.708,5.711,12.562,8.565,20.555,8.565c8.188,0,15.133-2.854,20.844-8.565
			c5.711-5.712,8.564-12.655,8.564-20.841v-64.81h39.397v64.81c0,8.186,2.854,15.129,8.562,20.841
			c5.715,5.711,12.662,8.565,20.848,8.565c8.179,0,15.126-2.854,20.834-8.565c5.708-5.712,8.559-12.655,8.559-20.841v-64.81h21.416
			c8.56,0,15.89-3.039,21.98-9.13c6.092-6.092,9.138-13.515,9.138-22.269V159.308H106.494V349.457z"/>
		<path d="M302.345,43.682L322.61,6.279c1.335-2.474,0.855-4.377-1.424-5.708c-2.478-1.143-4.38-0.572-5.708,1.714L294.918,39.97
			c-18.082-7.994-37.205-11.991-57.384-11.991c-20.174,0-39.304,3.997-57.387,11.991L159.591,2.286
			c-1.328-2.286-3.234-2.857-5.708-1.714c-2.285,1.331-2.758,3.234-1.426,5.708l20.271,37.402
			c-20.559,10.467-36.923,25.076-49.108,43.824c-12.181,18.749-18.273,39.259-18.273,61.525h264.095
			c0-22.266-6.091-42.777-18.273-61.525C338.982,68.758,322.717,54.148,302.345,43.682z M185.144,98.068
			c-2.187,2.19-4.803,3.284-7.849,3.284c-3.046,0-5.614-1.093-7.71-3.284c-2.091-2.187-3.14-4.805-3.14-7.85
			c0-3.046,1.049-5.664,3.14-7.854c2.093-2.19,4.665-3.282,7.71-3.282c3.042,0,5.659,1.091,7.849,3.282
			c2.19,2.19,3.284,4.808,3.284,7.854C188.428,93.264,187.334,95.878,185.144,98.068z M305.489,98.068
			c-2.098,2.19-4.668,3.284-7.713,3.284c-3.046,0-5.657-1.093-7.848-3.284c-2.19-2.187-3.281-4.805-3.281-7.85
			c0-3.046,1.091-5.664,3.281-7.854c2.19-2.19,4.802-3.282,7.848-3.282c3.045,0,5.615,1.091,7.713,3.282
			c2.088,2.19,3.139,4.808,3.139,7.854C308.628,93.264,307.58,95.878,305.489,98.068z"/>
		<path d="M429.964,162.306c-5.708-5.614-12.655-8.422-20.841-8.422c-7.991,0-14.843,2.808-20.551,8.422
			c-5.711,5.616-8.568,12.517-8.568,20.699v122.772c0,8.179,2.857,15.126,8.568,20.837c5.708,5.712,12.56,8.562,20.551,8.562
			c8.186,0,15.133-2.851,20.841-8.562c5.715-5.711,8.568-12.658,8.568-20.837V183.005
			C438.532,174.822,435.679,167.921,429.964,162.306z"/>
	</g>
</g>
<g>
</g>
<g>
</g>
<g>
</g>
<g>
</g>
<g>
</g>
<g>
</g>
<g>
</g>
<g>
</g>
<g>
</g>
<g>
</g>
<g>
</g>
<g>
</g>
<g>
</g>
<g>
</g>
<g>
</g>
</svg>
