<?xml version="1.0" encoding="iso-8859-1"?>
<!-- Generator: Adobe Illustrator 16.0.0, SVG Export Plug-In . SVG Version: 6.00 Build 0)  -->
<!DOCTYPE svg PUBLIC "-//W3C//DTD SVG 1.1//EN" "http://www.w3.org/Graphics/SVG/1.1/DTD/svg11.dtd">
<svg version="1.1" id="Capa_1" xmlns="http://www.w3.org/2000/svg" xmlns:xlink="http://www.w3.org/1999/xlink" x="0px" y="0px"
	 width="440.25px" height="440.251px" viewBox="0 0 440.25 440.251" style="enable-background:new 0 0 440.25 440.251;"
	 xml:space="preserve">
<g>
	<path d="M436.538,0.861c-2.471-1.143-5.513,0.094-9.134,3.709L224.692,207.273c-1.521,1.524-2.762,3.333-3.711,5.424V9.989
		c0-4.948-1.237-7.994-3.711-9.137c-2.474-1.141-5.52,0.096-9.136,3.711L5.424,207.273C1.809,210.891,0,215.172,0,220.12
		s1.809,9.233,5.424,12.847l202.71,202.709c3.616,3.62,6.662,4.862,9.136,3.72c2.474-1.144,3.711-4.189,3.711-9.138V227.546
		c0.953,1.903,2.19,3.717,3.711,5.425l202.712,202.711c3.621,3.617,6.663,4.86,9.134,3.717c2.478-1.143,3.713-4.188,3.713-9.137
		V9.996C440.248,5.048,439.015,2.002,436.538,0.861z"/>
</g>
<g>
</g>
<g>
</g>
<g>
</g>
<g>
</g>
<g>
</g>
<g>
</g>
<g>
</g>
<g>
</g>
<g>
</g>
<g>
</g>
<g>
</g>
<g>
</g>
<g>
</g>
<g>
</g>
<g>
</g>
</svg>
