<?xml version="1.0" encoding="iso-8859-1"?>
<!-- Generator: Adobe Illustrator 16.0.0, SVG Export Plug-In . SVG Version: 6.00 Build 0)  -->
<!DOCTYPE svg PUBLIC "-//W3C//DTD SVG 1.1//EN" "http://www.w3.org/Graphics/SVG/1.1/DTD/svg11.dtd">
<svg version="1.1" id="Capa_1" xmlns="http://www.w3.org/2000/svg" xmlns:xlink="http://www.w3.org/1999/xlink" x="0px" y="0px"
	 width="548.176px" height="548.176px" viewBox="0 0 548.176 548.176" style="enable-background:new 0 0 548.176 548.176;"
	 xml:space="preserve">
<g>
	<g>
		<path d="M534.75,68.238c-8.945-8.945-19.694-13.417-32.261-13.417H45.681c-12.562,0-23.313,4.471-32.264,13.417
			C4.471,77.185,0,87.936,0,100.499v347.173c0,12.566,4.471,23.318,13.417,32.264c8.951,8.946,19.702,13.419,32.264,13.419h456.815
			c12.56,0,23.312-4.473,32.258-13.419c8.945-8.945,13.422-19.697,13.422-32.264V100.499
			C548.176,87.936,543.699,77.185,534.75,68.238z M511.627,447.672c0,2.478-0.903,4.62-2.711,6.427
			c-1.81,1.807-3.952,2.71-6.427,2.71H45.681c-2.473,0-4.615-0.903-6.423-2.71c-1.807-1.813-2.712-3.949-2.712-6.427V100.499
			c0-2.474,0.902-4.611,2.712-6.423c1.809-1.804,3.951-2.708,6.423-2.708h456.815c2.471,0,4.613,0.902,6.42,2.708
			c1.808,1.812,2.711,3.949,2.711,6.423V447.672L511.627,447.672z"/>
		<rect x="73.092" y="310.635" width="73.089" height="109.632"/>
		<rect x="182.728" y="164.452" width="73.085" height="255.814"/>
		<rect x="292.362" y="237.541" width="73.083" height="182.726"/>
		<rect x="401.994" y="127.907" width="73.091" height="292.36"/>
	</g>
</g>
<g>
</g>
<g>
</g>
<g>
</g>
<g>
</g>
<g>
</g>
<g>
</g>
<g>
</g>
<g>
</g>
<g>
</g>
<g>
</g>
<g>
</g>
<g>
</g>
<g>
</g>
<g>
</g>
<g>
</g>
</svg>
