<?xml version="1.0" encoding="iso-8859-1"?>
<!-- Generator: Adobe Illustrator 16.0.0, SVG Export Plug-In . SVG Version: 6.00 Build 0)  -->
<!DOCTYPE svg PUBLIC "-//W3C//DTD SVG 1.1//EN" "http://www.w3.org/Graphics/SVG/1.1/DTD/svg11.dtd">
<svg version="1.1" id="Capa_1" xmlns="http://www.w3.org/2000/svg" xmlns:xlink="http://www.w3.org/1999/xlink" x="0px" y="0px"
	 width="438.536px" height="438.536px" viewBox="0 0 438.536 438.536" style="enable-background:new 0 0 438.536 438.536;"
	 xml:space="preserve">
<g>
	<path d="M417.698,376.865L274.08,150.467V36.545h18.274c4.948,0,9.236-1.812,12.847-5.428c3.621-3.614,5.428-7.898,5.428-12.847
		s-1.807-9.231-5.428-12.847C301.591,1.807,297.303,0,292.354,0H146.177c-4.952,0-9.234,1.807-12.85,5.424
		c-3.617,3.615-5.424,7.898-5.424,12.847s1.807,9.233,5.424,12.847c3.619,3.616,7.902,5.428,12.85,5.428h18.271v113.918
		L20.838,376.862c-10.656,16.946-12.703,31.463-6.136,43.543c6.567,12.087,19.939,18.131,40.113,18.131h328.911
		c20.17,0,33.54-6.044,40.104-18.131C430.401,408.325,428.354,393.812,417.698,376.865z M117.627,292.355l77.658-122.481
		l5.709-8.853V150.46V36.542h36.541V150.46v10.561l5.708,8.853l77.662,122.481H117.627z"/>
</g>
<g>
</g>
<g>
</g>
<g>
</g>
<g>
</g>
<g>
</g>
<g>
</g>
<g>
</g>
<g>
</g>
<g>
</g>
<g>
</g>
<g>
</g>
<g>
</g>
<g>
</g>
<g>
</g>
<g>
</g>
</svg>
