<?xml version="1.0" encoding="iso-8859-1"?>
<!-- Generator: Adobe Illustrator 16.0.0, SVG Export Plug-In . SVG Version: 6.00 Build 0)  -->
<!DOCTYPE svg PUBLIC "-//W3C//DTD SVG 1.1//EN" "http://www.w3.org/Graphics/SVG/1.1/DTD/svg11.dtd">
<svg version="1.1" id="Capa_1" xmlns="http://www.w3.org/2000/svg" xmlns:xlink="http://www.w3.org/1999/xlink" x="0px" y="0px"
	 width="465.27px" height="465.269px" viewBox="0 0 465.27 465.269" style="enable-background:new 0 0 465.27 465.269;"
	 xml:space="preserve">
<g>
	<g>
		<path d="M377.309,326.631c-42.633,28.165-90.938,42.254-144.896,42.254c-53.959,0-102.164-14.089-144.608-42.254l-5.14,2.566
			l-1.714,4.569c6.091,37.305,11.515,65.093,16.274,83.367c3.809,6.659,8.757,12.518,14.849,17.562
			c6.09,5.037,13.035,9.182,20.839,12.419c7.804,3.233,15.086,5.801,21.842,7.703c6.757,1.906,14.512,3.614,23.269,5.144
			c19.604,3.237,38.778,4.996,57.526,5.28c18.754,0.287,37.973-1.811,57.674-6.279c19.701-4.47,37.736-11.276,54.101-20.41
			c6.852-3.812,12.371-9.192,16.563-16.132c4.182-6.947,6.896-13.613,8.131-19.985c1.239-6.376,2.574-14.373,4.001-23.986
			c1.434-9.609,2.905-16.888,4.432-21.837c0-1.714,0.767-5.239,2.282-10.564c1.517-5.328,1.995-9.612,1.428-12.847
			C383.592,329.958,381.306,327.771,377.309,326.631z"/>
		<path d="M428.99,52.258c-11.424-14.462-31.888-26.072-61.387-34.829C311.069,0.868,246.732-3.891,174.599,3.154
			c-35.779,3.424-65.565,9.513-89.359,18.271c-5.712,2.093-10.278,3.852-13.706,5.28c-3.427,1.427-7.802,3.568-13.134,6.424
			c-5.33,2.855-9.615,5.71-12.851,8.565c-3.234,2.853-6.23,6.422-8.992,10.705s-4.425,8.897-4.996,13.846
			c1.709,13.706,3.802,28.741,6.28,45.111c2.478,16.368,4.712,30.406,6.71,42.111c1.997,11.704,4.661,27.073,7.993,46.108
			c3.333,19.036,5.852,33.313,7.566,42.827c0.381,1.715,0.903,5.041,1.569,9.993c0.667,4.951,1.237,8.712,1.714,11.279
			c0.476,2.573,1.332,5.811,2.568,9.712c1.237,3.908,2.856,7.234,4.854,9.996c2,2.758,4.425,5.287,7.281,7.562
			c27.79,21.32,65.286,34.547,112.488,39.688c68.138,7.228,126.199-1.14,174.161-25.126c6.279-3.23,11.461-6.181,15.554-8.846
			c4.093-2.67,8.24-6.476,12.422-11.424c4.186-4.948,6.756-10.276,7.707-15.984c16.18-92.89,26.741-155.225,31.689-187.011
			c1.143-4.377,1.663-9.517,1.581-15.418C433.61,60.921,432.029,56.063,428.99,52.258z M281.656,263.814
			c-11.615,14.466-26.081,22.457-43.402,23.986c-17.507,1.522-33.254-3.806-47.244-15.988c-13.99-12.18-21.366-26.933-22.126-44.255
			c-0.572-13.134,2.712-25.458,9.851-36.973s16.702-19.936,28.693-25.266c18.653-8.376,37.396-7.139,56.239,3.711
			c18.842,10.849,29.602,26.457,32.264,46.824C298.027,233.364,293.274,249.349,281.656,263.814z M342.755,74.387
			c-8.757,3.33-15.656,5.376-20.693,6.136c-5.045,0.761-13.559,1.903-25.55,3.432c-41.881,5.325-84.516,5.231-127.909-0.287
			c-11.42-1.333-19.748-2.43-24.982-3.289c-5.232-0.854-12.227-2.947-20.984-6.28c-8.757-3.332-15.99-7.659-21.698-12.991
			c3.427-4.947,8.186-9.04,14.277-12.275c6.089-3.234,11.325-5.327,15.702-6.28s10.66-2.094,18.843-3.427
			c52.344-9.327,106.208-9.517,161.596-0.57c9.329,1.523,16.085,2.712,20.273,3.569c4.188,0.855,9.705,2.952,16.556,6.28
			c6.852,3.33,12.187,7.566,15.988,12.703C358.654,66.629,351.513,71.06,342.755,74.387z"/>
		<path d="M256.39,202.575c-5.232-5.617-11.327-8.995-18.272-10.138c-6.945-1.141-13.841,0-20.695,3.427
			c-7.233,3.236-12.181,8.754-14.849,16.558c-2.663,7.804-2.618,15.609,0.144,23.417c2.762,7.803,7.851,13.322,15.275,16.557
			c10.087,6.095,20.692,5.52,31.834-1.712c11.133-7.228,15.94-16.844,14.414-28.835C264.24,214.616,261.619,208.192,256.39,202.575z
			"/>
	</g>
</g>
<g>
</g>
<g>
</g>
<g>
</g>
<g>
</g>
<g>
</g>
<g>
</g>
<g>
</g>
<g>
</g>
<g>
</g>
<g>
</g>
<g>
</g>
<g>
</g>
<g>
</g>
<g>
</g>
<g>
</g>
</svg>
