<?xml version="1.0" encoding="iso-8859-1"?>
<!-- Generator: Adobe Illustrator 16.0.0, SVG Export Plug-In . SVG Version: 6.00 Build 0)  -->
<!DOCTYPE svg PUBLIC "-//W3C//DTD SVG 1.1//EN" "http://www.w3.org/Graphics/SVG/1.1/DTD/svg11.dtd">
<svg version="1.1" id="Capa_1" xmlns="http://www.w3.org/2000/svg" xmlns:xlink="http://www.w3.org/1999/xlink" x="0px" y="0px"
	 width="438.536px" height="438.536px" viewBox="0 0 438.536 438.536" style="enable-background:new 0 0 438.536 438.536;"
	 xml:space="preserve">
<g>
	<g>
		<path d="M414.41,24.123C398.333,8.042,378.963,0,356.315,0H82.228C59.58,0,40.21,8.042,24.126,24.123
			C8.045,40.207,0.003,59.576,0.003,82.225v274.084c0,22.647,8.042,42.018,24.123,58.102c16.084,16.084,35.454,24.126,58.102,24.126
			h274.084c22.648,0,42.018-8.042,58.095-24.126c16.084-16.084,24.126-35.454,24.126-58.102V82.225
			C438.532,59.576,430.49,40.204,414.41,24.123z M327.62,301.062c-1.047,3.713-1.563,6.235-1.563,7.569
			c-0.955,3.426-2.149,10.185-3.576,20.273c-1.424,10.088-3.573,18.219-6.42,24.413c-2.857,6.181-7.522,11.081-13.99,14.695
			c-34.074,18.842-74.809,23.887-122.2,15.133c-29.884-5.141-49.298-15.414-58.243-30.834c-2.854-10.663-6.757-30.646-11.706-59.956
			l1.427-3.43l3.427-1.711c30.833,20.178,65.666,30.266,104.494,30.266c38.833,0,73.568-10.088,104.203-30.266
			c2.861,0.76,4.524,2.331,5.003,4.709C328.955,294.306,328.668,297.352,327.62,301.062z M363.163,110.773
			c-6.085,39.21-13.709,84.223-22.84,135.04c-0.767,3.997-2.621,7.803-5.571,11.424c-2.946,3.613-5.896,6.372-8.843,8.274
			c-2.957,1.91-6.714,4.093-11.286,6.563c-34.447,17.33-76.321,23.319-125.621,17.994c-34.068-3.806-61.096-13.326-81.082-28.551
			c-2.474-2.091-4.566-4.754-6.279-7.994c-1.715-3.231-2.856-5.801-3.427-7.704c-0.572-1.902-1.237-5.331-1.999-10.283
			c-0.76-4.948-1.235-7.898-1.426-8.847c-1.146-6.849-3.427-19.889-6.854-39.113c-3.427-19.224-6.186-35.498-8.28-48.822
			c-2.093-13.322-3.901-26.457-5.426-39.397c0.761-5.71,3.567-10.847,8.422-15.417c4.853-4.568,9.327-7.806,13.417-9.71
			c4.095-1.903,9.757-4.281,16.989-7.137c17.893-6.473,39.403-10.85,64.525-13.131c51.579-5.138,97.925-1.714,139.04,10.277
			c21.319,6.285,36.069,14.659,44.255,25.127C364.114,93.55,364.874,100.685,363.163,110.773z"/>
		<path d="M241.683,173.581c-13.606-7.801-27.077-8.754-40.396-2.852c-8.565,3.805-15.465,9.896-20.701,18.271
			c-5.236,8.376-7.661,17.228-7.282,26.553c0.571,12.755,5.901,23.507,15.987,32.264c10.09,8.754,21.416,12.566,33.979,11.427
			c12.56-1.143,23.027-6.953,31.408-17.422c8.374-10.462,11.8-21.979,10.277-34.542C263.051,192.62,255.29,181.388,241.683,173.581z
			 M231.834,232.399c-7.99,5.14-15.704,5.517-23.127,1.136c-8.186-3.422-12.323-10.13-12.419-20.121
			c-0.094-9.991,3.949-16.895,12.135-20.701c6.852-4.187,14.18-4.093,21.984,0.284c7.803,4.38,11.703,10.66,11.703,18.846
			C243.254,220.409,239.828,227.259,231.834,232.399z"/>
		<path d="M302.926,86.654c-4.753-2.38-8.846-3.905-12.278-4.57c-3.422-0.662-8.275-1.475-14.558-2.425
			c-39.975-6.473-78.802-6.375-116.487,0.288c-5.708,0.95-10.181,1.756-13.418,2.425c-3.237,0.669-7.044,2.144-11.421,4.426
			c-4.375,2.281-7.802,5.234-10.276,8.848c3.997,3.806,9.185,6.899,15.559,9.279c6.374,2.378,11.372,3.903,14.987,4.568
			c3.617,0.664,9.613,1.567,17.989,2.71c32.168,3.809,62.999,3.809,92.5,0c8.378-0.951,14.421-1.711,18.131-2.282
			c3.713-0.572,8.761-2.091,15.133-4.569s11.464-5.713,15.27-9.71C311.393,92.025,307.68,89.029,302.926,86.654z"/>
	</g>
</g>
<g>
</g>
<g>
</g>
<g>
</g>
<g>
</g>
<g>
</g>
<g>
</g>
<g>
</g>
<g>
</g>
<g>
</g>
<g>
</g>
<g>
</g>
<g>
</g>
<g>
</g>
<g>
</g>
<g>
</g>
</svg>
