<?xml version="1.0" encoding="iso-8859-1"?>
<!-- Generator: Adobe Illustrator 16.0.0, SVG Export Plug-In . SVG Version: 6.00 Build 0)  -->
<!DOCTYPE svg PUBLIC "-//W3C//DTD SVG 1.1//EN" "http://www.w3.org/Graphics/SVG/1.1/DTD/svg11.dtd">
<svg version="1.1" id="Capa_1" xmlns="http://www.w3.org/2000/svg" xmlns:xlink="http://www.w3.org/1999/xlink" x="0px" y="0px"
	 width="475.074px" height="475.074px" viewBox="0 0 475.074 475.074" style="enable-background:new 0 0 475.074 475.074;"
	 xml:space="preserve">
<g>
	<path d="M395.655,249.236c-11.037-14.272-27.692-24.075-49.964-29.403c28.362-14.467,40.826-39.021,37.404-73.666
		c-1.144-12.563-4.616-23.451-10.424-32.68c-5.812-9.231-13.655-16.652-23.559-22.266c-9.896-5.621-20.659-9.9-32.264-12.85
		c-11.608-2.95-24.935-5.092-39.972-6.423V0h-43.964v69.949c-7.613,0-19.223,0.19-34.829,0.571V0h-43.97v71.948
		c-6.283,0.191-15.513,0.288-27.694,0.288l-60.526-0.288v46.824h31.689c14.466,0,22.936,6.473,25.41,19.414v81.942
		c1.906,0,3.427,0.098,4.57,0.288h-4.57v114.769c-1.521,9.705-7.04,14.562-16.558,14.562H74.747l-8.852,52.249h57.102
		c3.617,0,8.848,0.048,15.703,0.134c6.851,0.096,11.988,0.144,15.415,0.144v72.803h43.977v-71.947
		c7.992,0.195,19.602,0.288,34.829,0.288v71.659h43.965v-72.803c15.611-0.76,29.457-2.18,41.538-4.281
		c12.087-2.101,23.653-5.379,34.69-9.855c11.036-4.47,20.266-10.041,27.688-16.703c7.426-6.656,13.559-15.13,18.421-25.41
		c4.846-10.28,7.943-22.176,9.271-35.693C410.979,283.882,406.694,263.514,395.655,249.236z M198.938,121.904
		c1.333,0,5.092-0.048,11.278-0.144c6.189-0.098,11.326-0.192,15.418-0.288c4.093-0.094,9.613,0.144,16.563,0.715
		c6.947,0.571,12.799,1.334,17.556,2.284s9.996,2.521,15.701,4.71c5.715,2.187,10.28,4.853,13.702,7.993
		c3.429,3.14,6.331,7.139,8.706,11.993c2.382,4.853,3.572,10.42,3.572,16.7c0,5.33-0.855,10.185-2.566,14.565
		c-1.708,4.377-4.284,8.042-7.706,10.992c-3.423,2.951-6.951,5.523-10.568,7.71c-3.613,2.187-8.233,3.949-13.846,5.28
		c-5.612,1.333-10.513,2.38-14.698,3.14c-4.188,0.762-9.421,1.287-15.703,1.571c-6.283,0.284-11.043,0.478-14.277,0.572
		c-3.237,0.094-7.661,0.094-13.278,0c-5.618-0.094-8.897-0.144-9.851-0.144v-87.65H198.938z M318.998,316.331
		c-1.813,4.38-4.141,8.189-6.994,11.427c-2.858,3.23-6.619,6.088-11.28,8.559c-4.66,2.478-9.185,4.473-13.559,5.996
		c-4.38,1.529-9.664,2.854-15.844,4c-6.194,1.143-11.615,1.947-16.283,2.426c-4.661,0.477-10.226,0.856-16.7,1.144
		c-6.469,0.28-11.516,0.425-15.131,0.425c-3.617,0-8.186-0.052-13.706-0.145c-5.523-0.089-9.041-0.137-10.565-0.137v-96.505
		c1.521,0,6.042-0.093,13.562-0.287c7.521-0.192,13.656-0.281,18.415-0.281c4.758,0,11.327,0.281,19.705,0.856
		c8.37,0.567,15.413,1.42,21.128,2.562c5.708,1.144,11.937,2.902,18.699,5.284c6.755,2.378,12.23,5.28,16.419,8.706
		c4.188,3.432,7.707,7.803,10.561,13.134c2.861,5.328,4.288,11.42,4.288,18.274C321.712,307.104,320.809,311.95,318.998,316.331z"/>
</g>
<g>
</g>
<g>
</g>
<g>
</g>
<g>
</g>
<g>
</g>
<g>
</g>
<g>
</g>
<g>
</g>
<g>
</g>
<g>
</g>
<g>
</g>
<g>
</g>
<g>
</g>
<g>
</g>
<g>
</g>
</svg>
