<?xml version="1.0" encoding="iso-8859-1"?>
<!-- Generator: Adobe Illustrator 16.0.0, SVG Export Plug-In . SVG Version: 6.00 Build 0)  -->
<!DOCTYPE svg PUBLIC "-//W3C//DTD SVG 1.1//EN" "http://www.w3.org/Graphics/SVG/1.1/DTD/svg11.dtd">
<svg version="1.1" id="Capa_1" xmlns="http://www.w3.org/2000/svg" xmlns:xlink="http://www.w3.org/1999/xlink" x="0px" y="0px"
	 width="438.543px" height="438.543px" viewBox="0 0 438.543 438.543" style="enable-background:new 0 0 438.543 438.543;"
	 xml:space="preserve">
<g>
	<path d="M394.005,235.541c-17.131-19.987-42.537-33.878-76.231-41.683c23.612-10.85,37.887-18.177,42.835-21.982
		c11.991-8.947,21.032-18.942,27.113-29.98c6.092-11.042,9.134-23.223,9.134-36.545c0-12.371-1.995-23.981-5.995-34.831
		c-3.997-10.852-10.182-20.749-18.556-29.694c-8.565-8.943-18.273-16.18-29.122-21.7c-10.089-4.947-19.226-8.658-27.411-11.132
		c-19.603-5.14-37.781-7.71-54.529-7.71h-21.128c-3.806,0-7.666-0.048-11.567-0.144C224.65,0.05,222.604,0,222.414,0
		c-0.949,0-2.284,0.05-4.002,0.141c-1.713,0.096-3.049,0.144-3.999,0.144l-12.85,0.287L93.074,4.283l-74.23,1.714l1.142,23.695
		c15.986,2.096,26.84,3.337,32.548,3.715c9.707,0.571,16.274,2.002,19.701,4.283c2.096,1.525,3.238,2.666,3.428,3.427
		c1.902,4.187,2.946,14.56,3.14,31.121c0.76,28.171,1.619,66.619,2.568,115.344l0.571,141.896c0,24.359-0.855,42.828-2.568,55.388
		c-0.761,4.569-2.762,9.422-5.997,14.562c-8.756,3.614-20.461,6.567-35.117,8.85c-4.375,0.568-10.848,1.711-19.412,3.43
		l-0.571,26.836c45.489-1.526,71.374-2.57,77.663-3.142c40.729-2.478,69.093-3.521,85.08-3.142l56.242,1.137
		c22.087,0.76,40.929-0.288,56.534-3.139c24.742-4.568,44.057-10.283,57.958-17.135c14.082-6.851,27.404-17.131,39.964-30.833
		c9.527-10.466,16.275-21.601,20.272-33.407c5.521-16.174,8.278-31.494,8.278-45.963
		C420.273,278.181,411.52,255.718,394.005,235.541z M170.456,33.126c14.846-2.474,27.218-3.711,37.115-3.711
		c32.546,0,56.82,7.139,72.805,21.413c16.169,14.272,24.263,32.071,24.263,53.387c0,30.266-8.467,51.583-25.406,63.954
		c-16.939,12.37-42.065,18.558-75.373,18.558c-12.562,0-22.935-0.665-31.118-1.997c-0.193-6.473-0.288-13.8-0.288-21.986
		l0.288-27.979c0.188-29.88-0.383-56.431-1.714-79.656C170.646,48.829,170.456,41.506,170.456,33.126z M313.211,362.879
		c-7.043,13.702-18.657,24.458-34.83,32.265c-16.181,7.806-36.74,11.703-61.671,11.703c-12.182,0-25.506-3.038-39.971-9.13
		c-2.284-5.517-3.427-9.712-3.431-12.566l-0.854-77.088l0.288-49.392v-41.114c5.14-1.903,14.753-2.853,28.837-2.853
		c31.787,0,55.291,3.046,70.519,9.135c15.797,6.096,29.218,18.086,40.258,35.978c7.803,12.566,11.704,29.694,11.704,51.394
		C324.056,332.333,320.438,349.557,313.211,362.879z"/>
</g>
<g>
</g>
<g>
</g>
<g>
</g>
<g>
</g>
<g>
</g>
<g>
</g>
<g>
</g>
<g>
</g>
<g>
</g>
<g>
</g>
<g>
</g>
<g>
</g>
<g>
</g>
<g>
</g>
<g>
</g>
</svg>
