<?xml version="1.0" encoding="iso-8859-1"?>
<!-- Generator: Adobe Illustrator 16.0.0, SVG Export Plug-In . SVG Version: 6.00 Build 0)  -->
<!DOCTYPE svg PUBLIC "-//W3C//DTD SVG 1.1//EN" "http://www.w3.org/Graphics/SVG/1.1/DTD/svg11.dtd">
<svg version="1.1" id="Capa_1" xmlns="http://www.w3.org/2000/svg" xmlns:xlink="http://www.w3.org/1999/xlink" x="0px" y="0px"
	 width="475.452px" height="475.451px" viewBox="0 0 475.452 475.451" style="enable-background:new 0 0 475.452 475.451;"
	 xml:space="preserve">
<g>
	<path d="M468.083,118.385c-3.99-5.33-9.61-9.419-16.854-12.275c0.387,6.665-0.086,12.09-1.42,16.281l-85.65,281.789
		c-1.526,4.948-4.859,8.897-9.992,11.848c-5.141,2.953-10.469,4.428-15.989,4.428H74.66c-22.84,0-36.542-6.652-41.112-19.985
		c-1.903-5.14-1.807-9.229,0.288-12.275c2.092-2.857,5.708-4.288,10.85-4.288h248.102c17.702,0,29.93-3.285,36.688-9.852
		c6.763-6.567,13.565-21.177,20.413-43.824l78.228-258.669c4.186-14.084,2.474-26.457-5.141-37.113s-18.462-15.987-32.548-15.987
		H173.163c-2.474,0-7.329,0.854-14.562,2.568l0.284-0.859c-5.33-1.14-9.851-1.662-13.562-1.571
		c-3.71,0.099-7.137,1.192-10.277,3.289c-3.14,2.094-5.664,4.328-7.566,6.706c-1.903,2.38-3.761,5.426-5.568,9.136
		c-1.805,3.715-3.33,7.142-4.567,10.282c-1.237,3.14-2.666,6.473-4.281,9.998c-1.62,3.521-3.186,6.423-4.71,8.706
		c-1.143,1.523-2.758,3.521-4.854,5.996c-2.091,2.474-3.805,4.664-5.137,6.567c-1.331,1.903-2.19,3.616-2.568,5.14
		c-0.378,1.711-0.19,4.233,0.571,7.566c0.76,3.328,1.047,5.753,0.854,7.277c-0.76,7.232-3.378,16.414-7.849,27.552
		c-4.471,11.136-8.52,19.18-12.135,24.126c-0.761,0.95-2.853,3.092-6.28,6.424c-3.427,3.33-5.52,6.23-6.279,8.704
		c-0.762,0.951-0.81,3.617-0.144,7.994c0.666,4.38,0.907,7.423,0.715,9.136c-0.765,6.473-3.14,15.037-7.139,25.697
		c-3.999,10.657-7.994,19.414-11.993,26.265c-0.569,1.141-2.185,3.328-4.853,6.567c-2.662,3.237-4.283,5.902-4.853,7.99
		c-0.38,1.523-0.33,4.188,0.144,7.994c0.473,3.806,0.426,6.66-0.144,8.562c-1.521,7.228-4.377,15.94-8.565,26.125
		c-4.187,10.178-8.47,18.896-12.851,26.121c-1.138,1.906-2.712,4.145-4.708,6.711c-1.999,2.566-3.568,4.805-4.711,6.707
		c-1.141,1.903-1.903,3.901-2.284,5.996c-0.19,1.143,0.098,2.998,0.859,5.571c0.76,2.566,1.047,4.612,0.854,6.14
		c-0.192,2.662-0.57,6.187-1.141,10.567c-0.572,4.373-0.859,6.939-0.859,7.699c-4.187,11.424-3.999,23.511,0.572,36.269
		c5.33,14.838,14.797,27.36,28.406,37.541c13.61,10.185,27.74,15.27,42.398,15.27h263.521c12.367,0,24.026-4.141,34.971-12.416
		c10.944-8.281,18.227-18.507,21.837-30.696l78.511-258.662C477.412,141.51,475.701,129.234,468.083,118.385z M164.31,118.956
		l5.997-18.274c0.76-2.474,2.329-4.615,4.709-6.423c2.38-1.805,4.808-2.712,7.282-2.712h173.589c2.663,0,4.565,0.903,5.708,2.712
		c1.14,1.809,1.335,3.949,0.575,6.423l-6.002,18.274c-0.764,2.475-2.327,4.611-4.713,6.424c-2.382,1.805-4.805,2.708-7.278,2.708
		H170.593c-2.666,0-4.568-0.9-5.711-2.708C163.74,123.567,163.55,121.431,164.31,118.956z M140.615,192.045l5.996-18.271
		c0.76-2.474,2.331-4.615,4.709-6.423c2.38-1.809,4.805-2.712,7.282-2.712h173.583c2.666,0,4.572,0.9,5.712,2.712
		c1.14,1.809,1.331,3.949,0.568,6.423l-5.996,18.271c-0.759,2.474-2.33,4.617-4.708,6.423c-2.383,1.809-4.805,2.712-7.283,2.712
		H146.895c-2.664,0-4.567-0.9-5.708-2.712C140.043,196.662,139.854,194.519,140.615,192.045z"/>
</g>
<g>
</g>
<g>
</g>
<g>
</g>
<g>
</g>
<g>
</g>
<g>
</g>
<g>
</g>
<g>
</g>
<g>
</g>
<g>
</g>
<g>
</g>
<g>
</g>
<g>
</g>
<g>
</g>
<g>
</g>
</svg>
