<?xml version="1.0" encoding="iso-8859-1"?>
<!-- Generator: Adobe Illustrator 16.0.0, SVG Export Plug-In . SVG Version: 6.00 Build 0)  -->
<!DOCTYPE svg PUBLIC "-//W3C//DTD SVG 1.1//EN" "http://www.w3.org/Graphics/SVG/1.1/DTD/svg11.dtd">
<svg version="1.1" id="Capa_1" xmlns="http://www.w3.org/2000/svg" xmlns:xlink="http://www.w3.org/1999/xlink" x="0px" y="0px"
	 width="511.626px" height="511.627px" viewBox="0 0 511.626 511.627" style="enable-background:new 0 0 511.626 511.627;"
	 xml:space="preserve">
<g>
	<g>
		<path d="M500.922,47.248c-7.136-7.133-15.749-10.706-25.838-10.706H36.547c-10.09,0-18.704,3.576-25.841,10.706
			C3.571,54.387,0,63,0,73.089v365.447c0,10.089,3.567,18.699,10.706,25.838c7.141,7.139,15.75,10.711,25.841,10.711h438.531
			c10.092,0,18.706-3.572,25.845-10.711c7.132-7.139,10.704-15.749,10.704-25.838V73.089
			C511.626,63.004,508.054,54.391,500.922,47.248z M73.089,54.814h109.636V91.36H73.089V54.814z M475.084,438.536H36.547v-36.545
			h438.538V438.536L475.084,438.536z M146.177,274.656c0-30.263,10.71-56.103,32.121-77.516
			c21.416-21.411,47.251-32.117,77.515-32.117c30.266,0,56.104,10.707,77.516,32.117c21.412,21.413,32.117,47.253,32.117,77.516
			c0,30.266-10.705,56.103-32.117,77.515c-21.412,21.413-47.25,32.121-77.516,32.121c-30.264,0-56.099-10.708-77.515-32.121
			C156.884,330.759,146.177,304.922,146.177,274.656z M475.084,112.492v33.686H36.547v-36.542h183.869l18.271-36.543h236.397
			V112.492L475.084,112.492z"/>
		<path d="M307.488,326.334c14.277-14.277,21.416-31.501,21.416-51.678c0-20.174-7.139-37.401-21.416-51.675
			c-14.273-14.275-31.497-21.414-51.675-21.414c-20.177,0-37.4,7.139-51.678,21.414c-14.272,14.274-21.411,31.501-21.411,51.675
			c0,20.177,7.135,37.4,21.411,51.678c14.277,14.274,31.504,21.412,51.678,21.412C275.991,347.746,293.214,340.608,307.488,326.334z
			 M236.396,254.67c-5.33,5.332-7.993,11.803-7.993,19.415c0,2.665-0.855,4.855-2.57,6.566c-1.713,1.715-3.899,2.566-6.567,2.566
			c-2.666,0-4.853-0.852-6.567-2.566c-1.713-1.711-2.568-3.901-2.568-6.566c0-12.563,4.473-23.314,13.418-32.261
			c8.947-8.945,19.701-13.417,32.264-13.417c2.663,0,4.853,0.854,6.567,2.568c1.715,1.709,2.57,3.899,2.57,6.563
			c0,2.666-0.855,4.856-2.574,6.571c-1.714,1.713-3.904,2.568-6.566,2.568C248.196,246.678,241.726,249.341,236.396,254.67z"/>
	</g>
</g>
<g>
</g>
<g>
</g>
<g>
</g>
<g>
</g>
<g>
</g>
<g>
</g>
<g>
</g>
<g>
</g>
<g>
</g>
<g>
</g>
<g>
</g>
<g>
</g>
<g>
</g>
<g>
</g>
<g>
</g>
</svg>
