<?xml version="1.0" encoding="iso-8859-1"?>
<!-- Generator: Adobe Illustrator 16.0.0, SVG Export Plug-In . SVG Version: 6.00 Build 0)  -->
<!DOCTYPE svg PUBLIC "-//W3C//DTD SVG 1.1//EN" "http://www.w3.org/Graphics/SVG/1.1/DTD/svg11.dtd">
<svg version="1.1" id="Capa_1" xmlns="http://www.w3.org/2000/svg" xmlns:xlink="http://www.w3.org/1999/xlink" x="0px" y="0px"
	 width="438.821px" height="438.82px" viewBox="0 0 438.821 438.82" style="enable-background:new 0 0 438.821 438.82;"
	 xml:space="preserve">
<g>
	<path d="M432.39,257.938l-39.393-38.546l39.393-38.544c5.715-5.33,7.617-11.991,5.715-19.985
		c-2.283-7.804-7.231-12.657-14.849-14.56l-53.674-13.706l15.133-53.104c2.279-7.801,0.479-14.467-5.427-19.985
		c-5.517-5.902-12.18-7.71-19.986-5.426l-53.098,15.133l-13.709-53.675c-1.903-7.806-6.749-12.658-14.551-14.561
		c-7.81-2.096-14.47-0.284-19.986,5.424l-38.547,39.687L180.868,6.404c-5.52-5.9-12.181-7.708-19.985-5.424
		c-7.804,1.903-12.657,6.755-14.56,14.561l-13.706,53.675L79.514,54.083c-7.804-2.285-14.465-0.476-19.985,5.426
		c-5.901,5.518-7.71,12.179-5.424,19.985l15.131,53.104l-53.675,13.706c-7.613,1.903-12.563,6.755-14.845,14.56
		c-1.906,7.994,0,14.655,5.709,19.985l39.398,38.544L6.425,257.938c-5.709,5.328-7.612,11.991-5.709,19.981
		c2.282,7.806,7.232,12.658,14.845,14.562l53.675,13.702l-15.131,53.105c-2.286,7.803-0.477,14.462,5.424,19.985
		c5.52,5.899,12.181,7.703,19.985,5.421l53.104-15.126l13.706,53.673c1.903,7.803,6.755,12.751,14.56,14.842
		c7.994,1.902,14.656,0,19.985-5.708l38.544-39.399l38.547,39.402c3.806,4.183,8.658,6.276,14.555,6.276
		c1.338,0,3.142-0.191,5.432-0.567c7.802-2.286,12.651-7.234,14.554-14.846l13.702-53.67l53.102,15.13
		c7.807,2.278,14.47,0.472,19.986-5.428c5.902-5.523,7.71-12.183,5.427-19.985l-15.129-53.105l53.67-13.699
		c7.621-1.902,12.565-6.759,14.849-14.561C440.011,269.93,438.108,263.267,432.39,257.938z"/>
</g>
<g>
</g>
<g>
</g>
<g>
</g>
<g>
</g>
<g>
</g>
<g>
</g>
<g>
</g>
<g>
</g>
<g>
</g>
<g>
</g>
<g>
</g>
<g>
</g>
<g>
</g>
<g>
</g>
<g>
</g>
</svg>
