<?xml version="1.0" encoding="iso-8859-1"?>
<!-- Generator: Adobe Illustrator 16.0.0, SVG Export Plug-In . SVG Version: 6.00 Build 0)  -->
<!DOCTYPE svg PUBLIC "-//W3C//DTD SVG 1.1//EN" "http://www.w3.org/Graphics/SVG/1.1/DTD/svg11.dtd">
<svg version="1.1" id="Capa_1" xmlns="http://www.w3.org/2000/svg" xmlns:xlink="http://www.w3.org/1999/xlink" x="0px" y="0px"
	 width="493.349px" height="493.349px" viewBox="0 0 493.349 493.349" style="enable-background:new 0 0 493.349 493.349;"
	 xml:space="preserve">
<g>
	<g>
		<path d="M36.547,27.406c-10.089,0-18.702,3.576-25.841,10.706C3.571,45.251,0,53.865,0,63.953c0,6.661,1.665,12.753,4.998,18.271
			c3.328,5.52,7.755,9.897,13.273,13.134v361.45c0,2.666,0.855,4.856,2.57,6.567c1.712,1.714,3.899,2.566,6.567,2.566h18.271
			c2.666,0,4.856-0.853,6.567-2.566c1.713-1.711,2.568-3.901,2.568-6.567V95.358c5.52-3.237,9.945-7.614,13.275-13.134
			c3.332-5.518,4.996-11.613,4.996-18.271c0-10.085-3.567-18.698-10.701-25.841C55.246,30.979,46.632,27.406,36.547,27.406z"/>
		<path d="M484.51,66.521c-5.903-3.424-11.8-3.612-17.71-0.568c-1.707,0.955-4.661,2.57-8.846,4.854
			c-35.782,21.317-65.281,31.977-88.504,31.977c-9.709,0-18.183-1.809-25.413-5.424c-21.313-10.468-41.206-18.654-59.669-24.556
			c-18.463-5.896-38.353-8.848-59.669-8.848c-13.894,0-28.647,1.809-44.252,5.426c-15.608,3.615-30.124,8.326-43.542,14.128
			c-13.417,5.806-24.27,10.754-32.546,14.847c-8.285,4.093-15.755,8.134-22.414,12.133c-5.901,3.806-8.853,9.04-8.853,15.703
			v211.842c0,7.042,3.046,12.374,9.136,15.988c3.045,1.526,6.091,2.282,9.137,2.282c3.424,0,6.567-0.855,9.419-2.563
			c18.081-11.04,39.825-20.752,65.235-29.126c25.413-8.374,47.826-12.562,67.24-12.562c11.035,0,21.89,1.331,32.547,3.997
			c10.656,2.663,19.321,5.428,25.98,8.278c6.656,2.857,16.077,7.423,28.264,13.706l7.994,3.997
			c13.319,6.666,28.356,9.999,45.101,9.999c28.746,0,63.861-11.04,105.354-33.119c1.335-0.76,2.95-1.615,4.853-2.57
			c6.66-3.426,9.996-8.847,9.996-16.272V82.224C493.353,75.563,490.402,70.331,484.51,66.521z M109.632,136.758
			c40.353-22.461,76.895-34.451,109.636-35.974v56.243c-32.17,1.335-68.717,12.563-109.636,33.691V136.758z M219.269,276.368
			c-34.073,2.663-70.62,13.135-109.636,31.409v-52.824c38.638-19.219,75.185-30.355,109.636-33.401V276.368z M456.804,289.223
			c-32.928,17.507-60.812,26.261-83.651,26.261c-9.321,0-17.986-1.622-25.98-4.855v-53.67c28.362,8.565,64.904,1.813,109.632-20.271
			V289.223z M456.804,167.31c-44.912,25.122-81.461,33.686-109.632,25.697v63.945c-3.806-1.136-7.516-2.566-11.136-4.281
			c-20.365-10.088-39.164-17.893-56.384-23.413c-17.228-5.518-35.549-8.28-54.963-8.28h-5.424v-63.382
			c4.947-0.572,9.611-0.855,13.988-0.855c4.184,0,8.376,0.193,12.562,0.571c4.189,0.378,7.951,0.76,11.278,1.14
			c3.326,0.381,7.083,1.092,11.279,2.141c4.188,1.044,7.521,1.853,9.992,2.424c2.478,0.575,5.903,1.763,10.284,3.571
			c4.38,1.812,7.467,3.049,9.277,3.715c1.807,0.666,5.092,2.14,9.853,4.425c4.753,2.286,7.755,3.714,8.989,4.283
			c1.243,0.571,4.524,2.19,9.853,4.858c5.329,2.662,8.474,4.281,9.422,4.853c3.613,1.714,7.326,3.143,11.132,4.283v-55.958
			c6.283,1.521,13.706,2.286,22.269,2.286c26.076,0,55.199-8.663,87.367-25.981v53.959H456.804z"/>
	</g>
</g>
<g>
</g>
<g>
</g>
<g>
</g>
<g>
</g>
<g>
</g>
<g>
</g>
<g>
</g>
<g>
</g>
<g>
</g>
<g>
</g>
<g>
</g>
<g>
</g>
<g>
</g>
<g>
</g>
<g>
</g>
</svg>
