<?xml version="1.0" encoding="iso-8859-1"?>
<!-- Generator: Adobe Illustrator 16.0.0, SVG Export Plug-In . SVG Version: 6.00 Build 0)  -->
<!DOCTYPE svg PUBLIC "-//W3C//DTD SVG 1.1//EN" "http://www.w3.org/Graphics/SVG/1.1/DTD/svg11.dtd">
<svg version="1.1" id="Capa_1" xmlns="http://www.w3.org/2000/svg" xmlns:xlink="http://www.w3.org/1999/xlink" x="0px" y="0px"
	 width="438.533px" height="438.533px" viewBox="0 0 438.533 438.533" style="enable-background:new 0 0 438.533 438.533;"
	 xml:space="preserve">
<g>
	<path d="M409.133,109.203c-19.608-33.592-46.205-60.189-79.798-79.796C295.736,9.801,259.058,0,219.273,0
		c-39.781,0-76.47,9.801-110.063,29.407c-33.595,19.604-60.192,46.201-79.8,79.796C9.801,142.8,0,179.489,0,219.267
		c0,39.78,9.804,76.463,29.407,110.062c19.607,33.592,46.204,60.189,79.799,79.798c33.597,19.605,70.283,29.407,110.063,29.407
		s76.47-9.802,110.065-29.407c33.593-19.602,60.189-46.206,79.795-79.798c19.603-33.596,29.403-70.284,29.403-110.062
		C438.533,179.485,428.732,142.795,409.133,109.203z M365.446,237.539c0,4.948-1.808,9.236-5.421,12.847
		c-3.621,3.614-7.898,5.431-12.847,5.431H203.855l53.958,53.958c3.429,3.425,5.14,7.703,5.14,12.847c0,5.14-1.711,9.418-5.14,12.847
		l-25.981,25.98c-3.426,3.423-7.712,5.141-12.849,5.141c-5.136,0-9.419-1.718-12.847-5.141L102.783,258.093l-25.979-25.981
		c-3.427-3.429-5.142-7.707-5.142-12.845c0-5.14,1.714-9.42,5.142-12.847l25.979-25.981L206.136,77.083
		c3.428-3.425,7.707-5.137,12.847-5.137c5.141,0,9.423,1.711,12.849,5.137l25.981,25.981c3.617,3.617,5.428,7.902,5.428,12.851
		c0,4.948-1.811,9.231-5.428,12.847l-53.958,53.959h143.324c4.948,0,9.226,1.809,12.847,5.426c3.613,3.615,5.421,7.898,5.421,12.847
		V237.539z"/>
</g>
<g>
</g>
<g>
</g>
<g>
</g>
<g>
</g>
<g>
</g>
<g>
</g>
<g>
</g>
<g>
</g>
<g>
</g>
<g>
</g>
<g>
</g>
<g>
</g>
<g>
</g>
<g>
</g>
<g>
</g>
</svg>
