<?xml version="1.0" encoding="iso-8859-1"?>
<!-- Generator: Adobe Illustrator 16.0.0, SVG Export Plug-In . SVG Version: 6.00 Build 0)  -->
<!DOCTYPE svg PUBLIC "-//W3C//DTD SVG 1.1//EN" "http://www.w3.org/Graphics/SVG/1.1/DTD/svg11.dtd">
<svg version="1.1" id="Capa_1" xmlns="http://www.w3.org/2000/svg" xmlns:xlink="http://www.w3.org/1999/xlink" x="0px" y="0px"
	 width="475.085px" height="475.085px" viewBox="0 0 475.085 475.085" style="enable-background:new 0 0 475.085 475.085;"
	 xml:space="preserve">
<g>
	<path d="M454.528,38.832c8.187-8.186,12.275-15.609,12.275-22.27c0-4.38-1.711-7.852-5.14-10.422
		c-3.43-2.568-7.05-4.233-10.855-4.997C447.003,0.383,442.91,0,438.53,0H36.544c-4.377,0-8.47,0.383-12.275,1.143
		c-3.806,0.763-7.423,2.428-10.85,4.997c-3.424,2.57-5.137,6.042-5.137,10.422c0,6.661,4.09,14.084,12.275,22.27l180.438,180.44
		v219.265h-91.359c-4.952,0-9.233,1.813-12.851,5.431c-3.617,3.611-5.424,7.898-5.424,12.848c0,4.944,1.807,9.232,5.424,12.843
		c3.621,3.614,7.902,5.428,12.851,5.428H365.45c4.948,0,9.232-1.813,12.847-5.428c3.617-3.61,5.428-7.898,5.428-12.843
		c0-4.949-1.811-9.236-5.428-12.848c-3.614-3.617-7.898-5.431-12.847-5.431h-91.354V219.271L454.528,38.832z"/>
</g>
<g>
</g>
<g>
</g>
<g>
</g>
<g>
</g>
<g>
</g>
<g>
</g>
<g>
</g>
<g>
</g>
<g>
</g>
<g>
</g>
<g>
</g>
<g>
</g>
<g>
</g>
<g>
</g>
<g>
</g>
</svg>
