<?xml version="1.0" encoding="iso-8859-1"?>
<!-- Generator: Adobe Illustrator 16.0.0, SVG Export Plug-In . SVG Version: 6.00 Build 0)  -->
<!DOCTYPE svg PUBLIC "-//W3C//DTD SVG 1.1//EN" "http://www.w3.org/Graphics/SVG/1.1/DTD/svg11.dtd">
<svg version="1.1" id="Capa_1" xmlns="http://www.w3.org/2000/svg" xmlns:xlink="http://www.w3.org/1999/xlink" x="0px" y="0px"
	 width="529.901px" height="529.901px" viewBox="0 0 529.901 529.901" style="enable-background:new 0 0 529.901 529.901;"
	 xml:space="preserve">
<g>
	<g>
		<path d="M21.415,444.532c14.277,14.277,31.501,21.416,51.678,21.416h365.451c20.178,0,37.404-7.139,51.675-21.416
			c14.271-14.27,21.409-31.497,21.409-51.674H0C0.004,413.035,7.142,430.262,21.415,444.532z"/>
		<path d="M137.046,356.312h200.995c17.508,0,32.545-6.279,45.111-18.842c12.56-12.563,18.842-27.601,18.842-45.111v-9.134h18.268
			c30.266,0,56.11-10.704,77.52-32.119c21.408-21.414,32.12-47.251,32.12-77.514c0-30.267-10.712-56.108-32.12-77.519
			c-21.409-21.411-47.254-32.121-77.52-32.121H91.363c-4.947,0-9.229,1.812-12.847,5.424c-3.616,3.617-5.424,7.902-5.424,12.85
			v210.131c0,17.511,6.28,32.548,18.843,45.111C104.498,350.033,119.535,356.312,137.046,356.312z M401.994,118.775h18.274
			c15.229,0,28.172,5.33,38.828,15.987c10.656,10.66,15.988,23.601,15.988,38.831c0,15.222-5.332,28.166-15.988,38.83
			c-10.656,10.657-23.6,15.988-38.828,15.988h-18.274V118.775z"/>
	</g>
</g>
<g>
</g>
<g>
</g>
<g>
</g>
<g>
</g>
<g>
</g>
<g>
</g>
<g>
</g>
<g>
</g>
<g>
</g>
<g>
</g>
<g>
</g>
<g>
</g>
<g>
</g>
<g>
</g>
<g>
</g>
</svg>
