<?xml version="1.0" encoding="iso-8859-1"?>
<!-- Generator: Adobe Illustrator 16.0.0, SVG Export Plug-In . SVG Version: 6.00 Build 0)  -->
<!DOCTYPE svg PUBLIC "-//W3C//DTD SVG 1.1//EN" "http://www.w3.org/Graphics/SVG/1.1/DTD/svg11.dtd">
<svg version="1.1" id="Capa_1" xmlns="http://www.w3.org/2000/svg" xmlns:xlink="http://www.w3.org/1999/xlink" x="0px" y="0px"
	 width="401.991px" height="401.991px" viewBox="0 0 401.991 401.991" style="enable-background:new 0 0 401.991 401.991;"
	 xml:space="preserve">
<g>
	<path d="M352.029,13.418C343.077,4.471,332.332,0,319.766,0H82.223C69.66,0,58.906,4.471,49.959,13.418
		c-8.945,8.949-13.418,19.7-13.418,32.264v310.633c0,12.566,4.473,23.309,13.418,32.261c8.947,8.949,19.701,13.415,32.264,13.415
		h237.542c12.566,0,23.312-4.466,32.264-13.415c8.946-8.952,13.422-19.701,13.422-32.261V45.683
		C365.451,33.118,360.965,22.364,352.029,13.418z M213.843,378.299c-3.613,3.614-7.898,5.421-12.849,5.421
		c-4.952,0-9.233-1.807-12.85-5.421c-3.617-3.62-5.424-7.904-5.424-12.847c0-4.948,1.807-9.239,5.424-12.847
		c3.621-3.62,7.902-5.434,12.85-5.434c4.95,0,9.235,1.813,12.849,5.434c3.614,3.607,5.428,7.898,5.428,12.847
		C219.271,370.395,217.457,374.676,213.843,378.299z M328.902,319.767c0,2.478-0.91,4.613-2.71,6.427
		c-1.813,1.814-3.949,2.711-6.427,2.711H82.223c-2.474,0-4.615-0.904-6.423-2.711s-2.712-3.949-2.712-6.427V45.683
		c0-2.475,0.903-4.617,2.712-6.424c1.809-1.809,3.949-2.712,6.423-2.712h237.542c2.478,0,4.613,0.9,6.427,2.712
		c1.807,1.807,2.71,3.949,2.71,6.424V319.767z"/>
</g>
<g>
</g>
<g>
</g>
<g>
</g>
<g>
</g>
<g>
</g>
<g>
</g>
<g>
</g>
<g>
</g>
<g>
</g>
<g>
</g>
<g>
</g>
<g>
</g>
<g>
</g>
<g>
</g>
<g>
</g>
</svg>
