<?xml version="1.0" encoding="iso-8859-1"?>
<!-- Generator: Adobe Illustrator 16.0.0, SVG Export Plug-In . SVG Version: 6.00 Build 0)  -->
<!DOCTYPE svg PUBLIC "-//W3C//DTD SVG 1.1//EN" "http://www.w3.org/Graphics/SVG/1.1/DTD/svg11.dtd">
<svg version="1.1" id="Capa_1" xmlns="http://www.w3.org/2000/svg" xmlns:xlink="http://www.w3.org/1999/xlink" x="0px" y="0px"
	 width="475.078px" height="475.078px" viewBox="0 0 475.078 475.078" style="enable-background:new 0 0 475.078 475.078;"
	 xml:space="preserve">
<g>
	<path d="M465.948,328.897h-63.953V85.936l70.517-70.233c1.711-1.903,2.566-4.089,2.566-6.565c0-2.478-0.855-4.665-2.566-6.567
		C470.609,0.859,468.419,0,465.948,0c-2.478,0-4.668,0.855-6.57,2.57l-70.237,70.521H146.18V9.137c0-2.667-0.855-4.858-2.57-6.567
		C141.897,0.859,139.71,0,137.042,0H82.227c-2.665,0-4.858,0.855-6.567,2.57c-1.711,1.713-2.57,3.903-2.57,6.567v63.954H9.136
		c-2.666,0-4.856,0.854-6.567,2.568C0.859,77.372,0,79.562,0,82.226v54.818c0,2.666,0.855,4.856,2.568,6.565
		c1.714,1.711,3.905,2.57,6.567,2.57h63.954V392.86c0,2.666,0.855,4.856,2.57,6.561c1.713,1.711,3.903,2.573,6.567,2.573h246.678
		v63.953c0,2.663,0.855,4.854,2.566,6.564c1.708,1.711,3.898,2.566,6.57,2.566h54.816c2.666,0,4.856-0.855,6.563-2.566
		c1.712-1.711,2.574-3.901,2.574-6.564v-63.953h63.953c2.662,0,4.853-0.862,6.56-2.573c1.712-1.704,2.567-3.895,2.567-6.561v-54.819
		c0-2.669-0.855-4.863-2.567-6.57C470.801,329.76,468.61,328.897,465.948,328.897z M146.18,146.174h169.881L146.18,316.054V146.174z
		 M328.904,328.897H159.026l169.878-169.88V328.897z"/>
</g>
<g>
</g>
<g>
</g>
<g>
</g>
<g>
</g>
<g>
</g>
<g>
</g>
<g>
</g>
<g>
</g>
<g>
</g>
<g>
</g>
<g>
</g>
<g>
</g>
<g>
</g>
<g>
</g>
<g>
</g>
</svg>
