<?xml version="1.0" encoding="iso-8859-1"?>
<!-- Generator: Adobe Illustrator 16.0.0, SVG Export Plug-In . SVG Version: 6.00 Build 0)  -->
<!DOCTYPE svg PUBLIC "-//W3C//DTD SVG 1.1//EN" "http://www.w3.org/Graphics/SVG/1.1/DTD/svg11.dtd">
<svg version="1.1" id="Capa_1" xmlns="http://www.w3.org/2000/svg" xmlns:xlink="http://www.w3.org/1999/xlink" x="0px" y="0px"
	 width="493.349px" height="493.349px" viewBox="0 0 493.349 493.349" style="enable-background:new 0 0 493.349 493.349;"
	 xml:space="preserve">
<g>
	<path d="M487.932,51.1c-3.613-3.612-7.905-5.424-12.847-5.424h-292.36c-4.948,0-9.233,1.812-12.847,5.424
		c-3.615,3.617-5.424,7.902-5.424,12.85v54.818h-45.683c-5.14,0-10.71,1.237-16.705,3.711c-5.996,2.478-10.801,5.518-14.416,9.135
		l-56.532,56.531c-2.473,2.474-4.612,5.327-6.424,8.565c-1.807,3.23-3.14,6.14-3.997,8.705c-0.855,2.572-1.477,6.089-1.854,10.566
		c-0.378,4.475-0.62,7.758-0.715,9.853c-0.091,2.092-0.091,5.71,0,10.85c0.096,5.142,0.144,8.47,0.144,9.995v91.36
		c-4.947,0-9.229,1.807-12.847,5.428C1.809,347.076,0,351.363,0,356.312c0,2.851,0.378,5.376,1.14,7.562
		c0.763,2.19,2.046,3.949,3.858,5.284c1.807,1.335,3.378,2.426,4.709,3.285c1.335,0.855,3.571,1.424,6.711,1.711
		s5.28,0.479,6.423,0.575c1.143,0.089,3.568,0.089,7.279,0c3.715-0.096,5.855-0.144,6.427-0.144h18.271
		c0,20.17,7.139,37.397,21.411,51.674c14.277,14.274,31.501,21.413,51.678,21.413c20.175,0,37.401-7.139,51.675-21.413
		c14.277-14.276,21.411-31.504,21.411-51.674H310.63c0,20.17,7.139,37.397,21.412,51.674c14.271,14.274,31.498,21.413,51.675,21.413
		c20.181,0,37.397-7.139,51.675-21.413c14.277-14.276,21.412-31.504,21.412-51.674c0.568,0,2.711,0.048,6.42,0.144
		c3.713,0.089,6.14,0.089,7.282,0c1.144-0.096,3.289-0.288,6.427-0.575c3.139-0.287,5.373-0.855,6.708-1.711s2.901-1.95,4.709-3.285
		c1.81-1.335,3.097-3.094,3.856-5.284c0.77-2.187,1.143-4.712,1.143-7.562V63.953C493.353,59.004,491.546,54.724,487.932,51.1z
		 M153.597,400.28c-7.229,7.23-15.797,10.854-25.694,10.854c-9.898,0-18.464-3.62-25.697-10.854
		c-7.233-7.228-10.848-15.797-10.848-25.693c0-9.897,3.619-18.47,10.848-25.701c7.232-7.228,15.798-10.848,25.697-10.848
		c9.897,0,18.464,3.617,25.694,10.848c7.236,7.231,10.853,15.804,10.853,25.701C164.45,384.483,160.833,393.052,153.597,400.28z
		 M164.45,228.403H54.814v-8.562c0-2.475,0.855-4.569,2.568-6.283l55.674-55.672c1.712-1.714,3.809-2.568,6.283-2.568h45.111
		V228.403z M409.41,400.28c-7.23,7.23-15.797,10.854-25.693,10.854c-9.9,0-18.47-3.62-25.7-10.854
		c-7.231-7.228-10.849-15.797-10.849-25.693c0-9.897,3.617-18.47,10.849-25.701c7.23-7.228,15.8-10.848,25.7-10.848
		c9.896,0,18.463,3.617,25.693,10.848c7.231,7.235,10.852,15.804,10.852,25.701C420.262,384.483,416.648,393.052,409.41,400.28z"/>
</g>
<g>
</g>
<g>
</g>
<g>
</g>
<g>
</g>
<g>
</g>
<g>
</g>
<g>
</g>
<g>
</g>
<g>
</g>
<g>
</g>
<g>
</g>
<g>
</g>
<g>
</g>
<g>
</g>
<g>
</g>
</svg>
