<?xml version="1.0" encoding="iso-8859-1"?>
<!-- Generator: Adobe Illustrator 16.0.0, SVG Export Plug-In . SVG Version: 6.00 Build 0)  -->
<!DOCTYPE svg PUBLIC "-//W3C//DTD SVG 1.1//EN" "http://www.w3.org/Graphics/SVG/1.1/DTD/svg11.dtd">
<svg version="1.1" id="Capa_1" xmlns="http://www.w3.org/2000/svg" xmlns:xlink="http://www.w3.org/1999/xlink" x="0px" y="0px"
	 width="548.172px" height="548.172px" viewBox="0 0 548.172 548.172" style="enable-background:new 0 0 548.172 548.172;"
	 xml:space="preserve">
<g>
	<path d="M534.75,49.965c-8.945-8.945-19.694-13.422-32.261-13.422H45.681c-12.562,0-23.313,4.477-32.264,13.422
		C4.471,58.913,0,69.663,0,82.226v310.633c0,12.566,4.471,23.315,13.417,32.265c8.951,8.945,19.702,13.414,32.264,13.414h155.318
		c0,7.231-1.524,14.661-4.57,22.269c-3.044,7.614-6.09,14.273-9.136,19.981c-3.042,5.715-4.565,9.897-4.565,12.56
		c0,4.948,1.807,9.24,5.424,12.847c3.615,3.621,7.898,5.435,12.847,5.435h146.179c4.949,0,9.233-1.813,12.848-5.435
		c3.62-3.606,5.427-7.898,5.427-12.847c0-2.468-1.526-6.611-4.571-12.415c-3.046-5.801-6.092-12.566-9.134-20.267
		c-3.046-7.71-4.569-15.085-4.569-22.128h155.318c12.56,0,23.309-4.469,32.254-13.414c8.949-8.949,13.422-19.698,13.422-32.265
		V82.226C548.176,69.663,543.699,58.913,534.75,49.965z M511.627,319.768c0,2.475-0.903,4.613-2.711,6.424
		c-1.81,1.804-3.952,2.707-6.427,2.707H45.681c-2.473,0-4.615-0.903-6.423-2.707c-1.807-1.817-2.712-3.949-2.712-6.424V82.226
		c0-2.475,0.902-4.615,2.712-6.423c1.809-1.805,3.951-2.712,6.423-2.712h456.815c2.471,0,4.617,0.904,6.42,2.712
		c1.808,1.809,2.711,3.949,2.711,6.423V319.768L511.627,319.768z"/>
</g>
<g>
</g>
<g>
</g>
<g>
</g>
<g>
</g>
<g>
</g>
<g>
</g>
<g>
</g>
<g>
</g>
<g>
</g>
<g>
</g>
<g>
</g>
<g>
</g>
<g>
</g>
<g>
</g>
<g>
</g>
</svg>
