<?xml version="1.0" encoding="iso-8859-1"?>
<!-- Generator: Adobe Illustrator 16.0.0, SVG Export Plug-In . SVG Version: 6.00 Build 0)  -->
<!DOCTYPE svg PUBLIC "-//W3C//DTD SVG 1.1//EN" "http://www.w3.org/Graphics/SVG/1.1/DTD/svg11.dtd">
<svg version="1.1" id="Capa_1" xmlns="http://www.w3.org/2000/svg" xmlns:xlink="http://www.w3.org/1999/xlink" x="0px" y="0px"
	 width="511.62px" height="511.62px" viewBox="0 0 511.62 511.62" style="enable-background:new 0 0 511.62 511.62;"
	 xml:space="preserve">
<g>
	<path d="M509.053,240.106c-1.718-1.709-3.901-2.565-6.57-2.565h-51.106l9.712-36.547h41.395c2.669,0,4.853-0.859,6.57-2.568
		c1.708-1.715,2.563-3.901,2.563-6.567v-18.271c0-2.668-0.855-4.858-2.563-6.567c-1.718-1.714-3.901-2.568-6.57-2.568h-31.689
		l25.981-98.216c0.951-2.853,0.479-5.515-1.431-7.993c-1.903-2.286-4.374-3.427-7.42-3.427h-39.111c-4.948,0-7.902,2.284-8.85,6.854
		l-26.553,102.781H309.199L281.226,61.671c-1.328-4.57-4.284-6.854-8.843-6.854h-35.984c-4.57,0-7.52,2.284-8.852,6.854
		l-27.695,102.781H97.357L71.66,61.671c-0.95-4.57-3.901-6.854-8.85-6.854H23.697c-3.046,0-5.52,1.146-7.423,3.427
		c-1.903,2.478-2.38,5.14-1.427,7.993l25.409,98.216H9.135c-2.666,0-4.853,0.854-6.567,2.568C0.859,168.73,0,170.92,0,173.588
		v18.271c0,2.668,0.855,4.853,2.568,6.567c1.714,1.709,3.905,2.568,6.567,2.568h40.546l9.419,36.547H9.135
		c-2.666,0-4.853,0.855-6.567,2.565C0.859,241.819,0,244.009,0,246.673v18.271c0,2.669,0.855,4.859,2.568,6.57
		c1.714,1.711,3.905,2.56,6.567,2.56h59.388l45.681,175.875c0.38,1.906,1.377,3.521,2.996,4.856c1.621,1.334,3.474,1.995,5.57,1.995
		h45.396c4.567,0,7.517-2.283,8.85-6.852l47.68-175.868h59.672l47.39,175.872c1.335,4.571,4.285,6.851,8.851,6.851H386
		c4.568,0,7.518-2.279,8.85-6.851l46.821-175.872h60.812c2.669,0,4.853-0.855,6.57-2.563c1.711-1.714,2.566-3.904,2.566-6.57
		v-18.271C511.626,244.009,510.771,241.819,509.053,240.106z M146.749,359.45c0,0.185-0.046,0.521-0.14,0.992
		c-0.094,0.479-0.144,0.808-0.144,1c-0.191-0.192-0.288-0.479-0.288-0.855c0-0.377-0.097-0.664-0.287-0.856l-21.411-85.649h45.395
		L146.749,359.45z M179.869,237.538h-64.237l-9.136-36.547h83.368L179.869,237.538z M234.687,237.538l9.707-36.547h19.982
		l9.996,36.547H234.687z M362.878,359.73c0,0.192-0.047,0.479-0.144,0.856c-0.096,0.376-0.144,0.663-0.144,0.855
		c-0.191-0.192-0.332-0.521-0.424-1c-0.09-0.472-0.145-0.808-0.145-0.992l-23.127-85.369h46.248L362.878,359.73z M394.568,237.538
		h-65.664l-9.709-36.547h84.798L394.568,237.538z"/>
</g>
<g>
</g>
<g>
</g>
<g>
</g>
<g>
</g>
<g>
</g>
<g>
</g>
<g>
</g>
<g>
</g>
<g>
</g>
<g>
</g>
<g>
</g>
<g>
</g>
<g>
</g>
<g>
</g>
<g>
</g>
</svg>
