<?xml version="1.0" encoding="iso-8859-1"?>
<!-- Generator: Adobe Illustrator 16.0.0, SVG Export Plug-In . SVG Version: 6.00 Build 0)  -->
<!DOCTYPE svg PUBLIC "-//W3C//DTD SVG 1.1//EN" "http://www.w3.org/Graphics/SVG/1.1/DTD/svg11.dtd">
<svg version="1.1" id="Capa_1" xmlns="http://www.w3.org/2000/svg" xmlns:xlink="http://www.w3.org/1999/xlink" x="0px" y="0px"
	 width="475.078px" height="475.077px" viewBox="0 0 475.078 475.077" style="enable-background:new 0 0 475.078 475.077;"
	 xml:space="preserve">
<g>
	<g>
		<polygon points="139.899,353.459 237.539,272.087 96.501,185.005 0,262.382 		"/>
		<polygon points="237.539,272.08 335.467,353.452 475.078,262.375 378.58,185.005 		"/>
		<polygon points="238.111,289.786 238.111,289.212 237.827,289.499 237.539,289.212 237.539,289.786 139.899,370.871 
			97.928,343.463 97.928,374.293 237.539,457.951 237.539,458.235 237.827,457.951 238.111,458.235 238.111,457.951 
			378.008,374.293 378.008,343.463 336.036,370.871 		"/>
		<polygon points="0,107.917 96.501,185.005 237.539,98.212 139.899,16.842 		"/>
		<polygon points="335.467,16.842 237.539,98.212 378.58,185.005 475.078,107.917 		"/>
	</g>
</g>
<g>
</g>
<g>
</g>
<g>
</g>
<g>
</g>
<g>
</g>
<g>
</g>
<g>
</g>
<g>
</g>
<g>
</g>
<g>
</g>
<g>
</g>
<g>
</g>
<g>
</g>
<g>
</g>
<g>
</g>
</svg>
