<?xml version="1.0" encoding="iso-8859-1"?>
<!-- Generator: Adobe Illustrator 16.0.0, SVG Export Plug-In . SVG Version: 6.00 Build 0)  -->
<!DOCTYPE svg PUBLIC "-//W3C//DTD SVG 1.1//EN" "http://www.w3.org/Graphics/SVG/1.1/DTD/svg11.dtd">
<svg version="1.1" id="Capa_1" xmlns="http://www.w3.org/2000/svg" xmlns:xlink="http://www.w3.org/1999/xlink" x="0px" y="0px"
	 width="438.533px" height="438.533px" viewBox="0 0 438.533 438.533" style="enable-background:new 0 0 438.533 438.533;"
	 xml:space="preserve">
<g>
	<path d="M409.133,109.203c-19.608-33.592-46.205-60.189-79.798-79.796C295.736,9.801,259.058,0,219.273,0
		c-39.781,0-76.466,9.801-110.063,29.407c-33.595,19.604-60.192,46.201-79.8,79.796C9.801,142.8,0,179.489,0,219.267
		s9.804,76.463,29.407,110.062c19.607,33.585,46.204,60.189,79.799,79.798c33.597,19.605,70.283,29.407,110.063,29.407
		s76.47-9.802,110.065-29.407c33.593-19.602,60.189-46.206,79.795-79.798c19.603-33.599,29.403-70.287,29.403-110.062
		C438.533,179.489,428.732,142.795,409.133,109.203z M246.697,334.633c-1.913-2.279-2.574-4.186-1.999-5.715
		c-0.191,0.954-0.858,1.81-1.998,2.569c-0.951-1.14-2.67-2.569-5.141-4.28c-2.478-1.719-4.188-3.143-5.14-4.292
		c-0.384-0.568-0.903-1.376-1.571-2.423c-0.667-1.047-1.522-2.426-2.569-4.141c-1.041-1.711-1.801-3.189-2.279-4.429
		c-0.473-1.238-0.517-1.95-0.144-2.135c-3.614,1.526-8.85,0.479-15.701-3.142c-1.331-0.76-3.333-2.759-5.996-5.996
		s-5.424-4.661-8.28-4.284c-0.95,0.191-2.236,0.523-3.855,0.999c-1.615,0.479-2.996,0.712-4.139,0.712
		c-1.143,0-2.666-0.376-4.57-1.144c-1.52-0.567-3.566-1.666-6.136-3.281c-2.568-1.615-4.331-2.621-5.28-2.994
		c-2.474-1.335-3.711-1.999-3.711-1.999l-4.568-2.279c-1.143-0.567-2.334-1.472-3.571-2.71c-1.237-1.239-2.043-2.525-2.424-3.857
		c-0.38-1.139-0.856-3.425-1.427-6.854c-0.571-3.43-1.334-5.9-2.284-7.42c-1.14-1.902-2.758-3.806-4.854-5.708
		c-2.091-1.902-3.994-2.861-5.708-2.861c1.524,0,1.524-1.276,0-3.853c-1.524-2.574-2.856-4.429-3.999-5.564
		c-0.381-0.384-1.524-1.619-3.427-3.717c-1.903-2.095-3.521-3.898-4.853-5.428c-1.331-1.522-2.478-3.281-3.427-5.283
		c-0.95-1.999-1.143-3.662-0.571-4.997c0.189-0.188,0-0.476-0.572-0.855c-0.571-0.376-1.282-0.763-2.141-1.143
		c-0.855-0.377-1.665-0.712-2.424-0.999c-0.765-0.281-1.336-0.425-1.715-0.425c0.383,0.767,0.81,2.143,1.287,4.141
		c0.476,2.002,0.999,3.478,1.569,4.429c0.383,0.76,1.999,3.524,4.854,8.274c4.952,7.994,7.232,13.901,6.854,17.706
		c-1.143,0.377-1.906,0.191-2.286-0.568c-0.381-0.759-0.669-1.807-0.857-3.141c-0.19-1.328-0.378-2.279-0.572-2.854
		c-0.571-1.143-2.046-2.382-4.427-3.717c-2.378-1.327-3.855-2.662-4.425-3.997c0.192,0,0.426-0.089,0.714-0.287
		c0.287-0.191,0.527-0.28,0.715-0.28c0.193-1.712-0.806-3.901-2.996-6.571c-2.19-2.662-3.09-4.564-2.712-5.708
		c-1.524-1.143-2.856-3.381-3.999-6.707c-1.142-3.333-2.095-5.476-2.856-6.429c-0.76-1.138-1.709-2.137-2.853-2.996
		c-1.143-0.854-2.568-1.805-4.283-2.853c-1.713-1.047-2.856-1.759-3.427-2.141c-0.382-0.187-1.141-1.04-2.284-2.564
		c-6.28-7.616-8.183-11.709-5.708-12.279c-2.474,0.57-4.521-1.284-6.139-5.57c-1.619-4.281-2.141-7.568-1.571-9.851l-0.57-0.284
		c0.192-0.763,0.286-2.996,0.286-6.711c0-3.713,0.24-7.092,0.715-10.136c0.478-3.045,1.381-4.57,2.712-4.57
		c-1.331,0.19-2.329-1.002-2.996-3.567c-0.666-2.572-0.713-4.334-0.144-5.284c0.19-0.572,1.049-0.187,2.57,1.143
		c1.52,1.328,2.378,2.19,2.568,2.568c2.475-1.336,3.428-3.046,2.856-5.142c-0.381-0.76-2.38-2.758-5.996-5.996
		c-8.186-5.327-12.375-7.898-12.562-7.71c1.138-2.091,0.854-3.899-0.859-5.424c-1.902,1.143-2.996,1.427-3.283,0.859
		c-0.284-0.572-0.522-1.615-0.715-3.14c-0.188-1.521-0.666-2.377-1.425-2.568c-0.953-0.19-2.096-0.95-3.427-2.283
		c16.939-27.028,39.303-48.155,67.093-63.385c1.141-0.188,3.234-0.284,6.279-0.284c1.521,0.19,2.95,0.667,4.281,1.427
		c1.333,0.76,2.714,1.809,4.139,3.14c1.43,1.328,2.524,2.281,3.284,2.853c0.381-1.143-0.094-2.856-1.426-5.14
		c0.378-1.143,2.473-2.286,6.28-3.427c4.375-0.571,7.233-0.478,8.564,0.287c-1.14-1.714-3.042-4.094-5.708-7.138l-1.427,1.425
		c-1.524-1.331-5.518-0.666-11.991,1.999c-0.378,0.188-1.331,0.715-2.855,1.569c-1.521,0.855-2.762,1.475-3.711,1.855
		c-1.143,0.381-2.284,0.476-3.427,0.286c9.135-4.947,18.083-8.855,26.84-11.707c0.566,0.378,1.52,1.188,2.853,2.424
		c1.331,1.237,2.378,2.143,3.14,2.712c-0.571-0.378-0.953-0.192-1.143,0.571c-0.76,2.283-0.76,4.186,0,5.708
		c0.95,1.336,2.236,2.093,3.855,2.286c1.619,0.188,3.568,0.094,5.852-0.288c2.284-0.378,3.809-0.571,4.57-0.571l2.856,0.288
		c6.089,0.571,8.47,0,7.138-1.715c0.57,0.765,1.236,2.334,1.997,4.714c0.76,2.38,1.619,4.046,2.568,4.998
		c0.953-0.765,1.143-2.096,0.571-3.999c-0.571-1.903-0.571-3.239,0-3.999c0.188-0.378,0.76-0.763,1.713-1.143
		c0.953-0.378,2.046-0.806,3.284-1.282c1.237-0.478,2.046-0.81,2.43-0.999c1.141-0.763,0.378-2.096-2.286-3.999
		c-0.381-0.191-1.188-0.476-2.424-0.857c-1.237-0.375-2.334-0.761-3.284-1.14c-0.95-0.378-1.949-0.903-2.996-1.569
		c-1.047-0.667-1.524-1.427-1.431-2.286c0.096-0.859,0.622-1.951,1.571-3.284c1.143-0.949,3-1.331,5.568-1.141
		c2.568,0.188,4.521,0.663,5.852,1.425c5.142,2.856,5.901,5.43,2.286,7.71c1.906,0.188,4.19,0.95,6.854,2.281
		c2.662,1.334,3.709,2.762,3.14,4.286c1.523-2.855,3.044-4.286,4.569-4.286c0.95,0.193,1.858,1.479,2.712,3.858
		c0.855,2.378,1.377,3.662,1.566,3.855c1.526,2.091,3.039,2.568,4.572,1.425c1.52-1.141,3.094-2.806,4.709-4.996
		c1.615-2.187,2.519-3.186,2.711-2.996c-1.903-0.758-2.102-1.521-0.568-2.283c2.847-1.713,5.421-2.19,7.707-1.425
		c0.567,0.378,1.334,1.237,2.278,2.565c1.708,3.431,1.424,5.046-0.855,4.856c1.711,1.524,2.42,3.429,2.143,5.71
		c-0.287,2.284-1.77,3.332-4.432,3.14c-0.948,0-2.334-0.478-4.145-1.427c-1.807-0.95-3.186-1.472-4.141-1.569
		c-0.951-0.099-2.286,0.426-3.997,1.569c-0.76,0.953-1.759,2.572-2.998,4.854c-1.238,2.288-2.334,3.903-3.285,4.853
		c-2.853,2.855-7.616,3.904-14.277,3.14c0.572,0,0.522,0.571-0.144,1.714c-0.669,1.141-1.569,2.428-2.712,3.854
		c-1.143,1.427-1.809,2.236-1.997,2.426c-1.714,1.903-2.855,4.093-3.427,6.567c0,0.381-0.096,1.667-0.288,3.853
		c-0.193,2.19-0.571,3.858-1.143,4.998c2.284-0.571,4.093,0.575,5.424,3.427c1.143,2.666,1.143,4.093,0,4.285
		c6.283-0.948,11.803-0.57,16.565,1.143c6.851,2.474,10.759,4.948,11.71,7.423c1.137-1.715,3.895-1.812,8.275-0.288
		c1.714,0.95,3.23,3.809,4.571,8.564c0.76,2.853,2.047,5.33,3.854,7.422c1.811,2.093,3.758,2.663,5.855,1.713l0.853-0.571
		c0.763-0.378,1.379-0.713,1.854-0.998c0.479-0.284,0.999-0.666,1.567-1.143c0.575-0.476,0.91-0.904,0.999-1.282
		c0.089-0.38-0.048-0.765-0.424-1.143c-1.335-1.143-2.334-2.712-2.998-4.708c-0.66-1.999-0.517-3.761,0.432-5.286
		c0.567-0.76,2.091-1.903,4.564-3.427c2.478-1.525,4.001-3.046,4.568-4.569c0.771-2.474-0.188-4.521-2.851-6.141
		c-2.665-1.615-4-3.09-4-4.425c0-0.953,0.619-2.093,1.854-3.427c1.242-1.331,1.766-2.572,1.571-3.711c0-0.575-0.336-1.762-1-3.571
		c-0.66-1.812-1.047-3.143-1.14-3.999c-0.096-0.857,0.336-1.856,1.283-2.996c1.328-0.763,4.47-0.715,9.418,0.14
		c4.949,0.859,8.187,1.763,9.713,2.712c0.574,0.378,1.81,0.95,3.713,1.714c1.902,0.756,3.569,1.565,5,2.425
		c1.42,0.855,2.23,1.661,2.419,2.424h-1.424c1.331,1.146,2.143,2.474,2.423,3.999c0.288,1.528-0.424,2.667-2.135,3.431
		c1.136-0.193,2.665,0.094,4.568,0.855c3.046,1.141,3.142,2.19,0.287,3.14c0.568-0.193,1.376-0.38,2.42-0.572
		c1.047-0.19,1.852-0.477,2.426-0.855c0.377-0.192,0.855-0.522,1.424-1c0.575-0.476,0.999-0.763,1.287-0.854
		c0.287-0.094,0.711-0.193,1.286-0.288c0.568-0.094,1.137,0.05,1.704,0.428c0.199,0,0.623-0.477,1.287-1.427
		c0.66-0.949,1.383-1.902,2.139-2.852c0.764-0.95,1.424-1.425,1.999-1.425c0.564,0,1.092,0.234,1.563,0.71
		c0.482,0.478,0.855,0.999,1.144,1.571c0.287,0.572,0.567,1.191,0.855,1.853c0.287,0.666,0.52,1.193,0.712,1.571
		c0.376,0.95,1.286,1.953,2.71,2.996c1.424,1.044,2.327,2.046,2.71,2.996c0.192,0.572,0.565,2,1.14,4.287
		c0.568,2.284,1.335,3.853,2.283,4.708c0.951,0.859,2.378,1.571,4.28,2.141c0.381,0.193,1.243,0.096,2.57-0.282
		c1.328-0.383,2.427-0.478,3.282-0.288c0.862,0.188,1.286,0.948,1.286,2.284c1.14-1.143,1.708-1.906,1.708-2.284
		c0.195,2.475,0.808,4.475,1.862,5.996c1.047,1.52,2.71,2.19,4.996,1.997l-0.575,6.283c-0.568,0.95-1.995,1.662-4.284,2.137
		c-2.286,0.478-3.71,0.909-4.285,1.287c-0.568,0.19-1.95,1.332-4.141,3.428c-2.19,2.096-3.087,3.333-2.71,3.711
		c-3.23-3.617-8.091-4.664-14.559-3.14c-7.23,1.142-12.183,2.284-14.845,3.427c-3.043,1.525-5.141,2.95-6.283,4.281
		c-0.191,0.19-0.517,0.859-0.996,1.999c-0.476,1.141-0.951,2.19-1.424,3.14c-0.482,0.95-0.903,1.426-1.283,1.426
		c1.146-0.185,2.427-1.094,3.854-2.709c1.431-1.619,2.334-2.519,2.711-2.712c4.944-3.234,9.037-4.377,12.292-3.403
		c4.186,1.143,4.853,2.667,1.995,4.57c-0.373,0.378-1.379,0.521-2.994,0.428c-1.615-0.094-2.711-0.05-3.285,0.144
		c1.718,0.378,3.141,0.903,4.291,1.565c1.136,0.666,1.424,1.571,0.852,2.712c3.043,1.714,3.617,3.617,1.715,5.713
		c-2.478,2.478-5.421,3.521-8.85,3.14c0.575,0,0.575,0.382,0,1.142l-4.859,3.14c-0.377,0.187-1.615,0.662-3.71,1.427
		c-2.094,0.756-3.524,1.619-4.284,2.568c-0.568,0.762-0.855,1.903-0.855,3.431c0,1.525-0.096,2.668-0.287,3.428
		c-0.188,0.765-0.952,0.949-2.279,0.571c-0.575,1.141-2.334,2.046-5.284,2.708c-2.95,0.666-4.9,1.665-5.852,2.996
		c1.136,1.525,1.047,3.046-0.288,4.57c-2.286,1.906-4.284,1.713-5.995-0.571c-0.951,0.381-1.667,1.331-2.143,2.856
		c-0.472,1.524-1.19,2.571-2.136,3.14c1.335,2.094,1.137,3.621-0.567,4.568c0.185,0,0.616,0.193,1.279,0.572
		c0.664,0.38,1.376,0.855,2.143,1.427c0.76,0.572,1.231,0.859,1.424,0.859c-0.76,1.709-1.811,2.565-3.142,2.565
		c1.143,3.047-0.281,6.38-4.277,9.994c-0.768,0.76-1.958,1.52-3.573,2.284c-1.626,0.76-3.097,1.377-4.432,1.854
		c-1.335,0.477-2.091,0.809-2.282,0.999c-1.903,1.716-3.334,3.475-4.281,5.282c-0.948,1.811-1.092,3.569-0.432,5.284
		c0.668,1.718,2.427,2.854,5.287,3.429l0.277,2.282v5.137l0.287,2.286c0.195,1.331,0.339,2.522,0.432,3.572
		c0.093,1.048,0.093,2.375,0,3.997c-0.093,1.615-0.523,2.522-1.283,2.707c-0.756,0.195-1.804,0-3.139-0.571
		c-1.529-0.76-3.333-4.948-5.431-12.56c-0.38-1.902-1.526-4.182-3.429-6.851c-0.951,0.951-1.759,1.567-2.423,1.852
		c-0.661,0.287-1.144,0.339-1.421,0.144c-0.287-0.188-0.811-0.619-1.573-1.283c-0.76-0.664-1.421-1.191-1.995-1.567
		c-0.952-0.568-2.615-1.048-5-1.424c-2.375-0.38-3.858-0.859-4.422-1.427c-4.573,3.432-7.335,2.569-8.285-2.563
		c-0.378,0.948-0.332,2.231,0.144,3.854c0.478,1.618,0.715,2.519,0.715,2.71c-1.331,2.478-3.424,2.662-6.28,0.568
		c-1.143-1.137-3.761-1.28-7.854-0.425c-4.093,0.853-6.805,0.996-8.136,0.425c0.193,0,0.571,0.284,1.143,0.858
		c0.57,0.373,0.953,0.661,1.142,0.853c-0.192,0.764-0.476,1.331-0.859,1.711c-0.382,0.377-0.763,0.521-1.142,0.432
		c-0.381-0.096-0.809-0.096-1.287,0c-0.476,0.089-0.903,0.232-1.285,0.424c-0.761,0.568-1.711,1.567-2.854,2.994
		c-1.141,1.428-1.997,2.331-2.568,2.707c1.14,3.046,1.665,5.38,1.571,6.995c-0.099,1.622-0.381,4.001-0.859,7.139
		s-0.715,5.664-0.715,7.57c0,3.038,0.905,6.57,2.712,10.561c1.809,3.997,3.949,6.755,6.424,8.281
		c1.336,0.76,3.621,1.232,6.854,1.421c3.235,0.194,5.52,0,6.851-0.568c1.143-0.564,1.997-1.235,2.568-1.995
		c0.571-0.76,1.049-1.862,1.427-3.285c0.381-1.424,0.669-2.423,0.859-2.991c1.331-3.621,3.805-5.523,7.417-5.715
		c2.293-0.191,3.949,0.055,5.003,0.712c1.047,0.667,1.472,1.57,1.28,2.714c-0.192,1.139-0.571,2.33-1.137,3.568
		c-0.574,1.239-1.286,2.615-2.144,4.142c-0.851,1.529-1.378,2.669-1.562,3.433c-0.381,1.522-0.719,3.661-0.999,6.427
		c-0.287,2.758-0.528,4.425-0.719,4.999c0.384,0.186,1.809,0.281,4.281,0.281c0-0.377,0.144-1,0.431-1.855
		c0.281-0.855,0.425-1.379,0.425-1.567c0.955,1.526,2.478,2.375,4.572,2.567c2.094,0.191,3.62-0.568,4.571-2.283
		c0.384,0.572,1.526,2.002,3.43,4.288c1.902,2.279,2.949,4.182,3.142,5.708c0.191,0.767,0.567,1.999,1.136,3.717
		c0.575,1.711,0.767,2.902,0.575,3.572c-0.191,0.657-1.144,0.996-2.854,0.996c-0.76,0-1.238,0.287-1.424,0.855
		c-0.198,0.575-0.198,1.283,0,2.139c0.192,0.855,0.432,1.667,0.712,2.427c0.284,0.756,0.664,1.571,1.137,2.427
		c0.485,0.849,0.719,1.375,0.719,1.566c3.422,6.276,8.09,7.991,13.989,5.141c0,5.517-1.334,8.562-4.004,9.13
		C250.308,337.873,248.6,336.912,246.697,334.633z M250.961,399.134c-0.376-1.903-0.568-3.423-0.547-4.559
		c-0.199-1.526,0.472-3.573,1.991-6.14c1.522-2.566,2.282-4.521,2.282-5.852c-3.045-0.76-4.186-3.237-3.432-7.423
		c0.383-2.857,3.141-6.663,8.281-11.42c3.62-3.237,4.757-7.81,3.429-13.705c-0.575-2.475-1.054-6.095-1.431-10.853
		c-0.376-4.76-0.76-8.09-1.143-9.992c0,0.568,0.903,1.092,2.717,1.567c1.808,0.472,2.902,1.095,3.282,1.848
		c0.38-0.564,0.853-1.615,1.427-3.135c0.568-1.526,1.144-2.665,1.704-3.429c0.384-0.571,1.191-1.283,2.431-2.143
		c1.238-0.855,2.046-1.375,2.426-1.567c0.373-0.188,1.235-0.804,2.563-1.854c1.334-1.047,2.43-1.852,3.288-2.423
		c0.862-0.571,1.995-0.999,3.426-1.28c1.431-0.287,2.427,0.138,2.994,1.28c0.955,1.144,0.767,2.902-0.567,5.284
		c-1.335,2.382-1.335,4.048,0,5.003c0.194-0.575,0.38-1.817,0.567-3.72c0.195-1.903,0.767-3.33,1.715-4.288
		c1.143-1.136,2.234-1.807,3.285-1.992c1.047-0.198,1.995-0.055,2.848,0.428c0.862,0.476,1.861,1.133,2.998,1.995
		c1.143,0.855,2.189,1.38,3.141,1.567c2.854,0.952,6.283,3.046,10.28,6.283c-0.191-0.194-0.191-0.431,0-0.719
		c0.192-0.28,0.568-0.567,1.144-0.855c0.568-0.28,1.088-0.567,1.567-0.855c0.472-0.284,0.992-0.513,1.567-0.708l0.855-0.287
		c1.328,0,2.282-0.093,2.851-0.288c0.567-0.188,1.386,0,2.426,0.575c1.041,0.568,1.76,0.996,2.136,1.283
		c0.383,0.28,1.047,0.804,1.999,1.567c0.951,0.76,1.622,1.335,1.991,1.711c0.575,0.376,1.622,1.047,3.142,1.999
		c1.526,0.951,2.717,1.711,3.573,2.278c0.862,0.568,1.621,1.431,2.278,2.563c0.664,1.15,0.911,2.386,0.719,3.72
		c1.144,0.192,3.423,0.948,6.852,2.279c0.575,0.377,1.759,0.716,3.572,0.996c1.808,0.287,2.998,0.719,3.569,1.283
		C323.579,374.295,290.169,392.282,250.961,399.134z"/>
</g>
<g>
</g>
<g>
</g>
<g>
</g>
<g>
</g>
<g>
</g>
<g>
</g>
<g>
</g>
<g>
</g>
<g>
</g>
<g>
</g>
<g>
</g>
<g>
</g>
<g>
</g>
<g>
</g>
<g>
</g>
</svg>
