<?xml version="1.0" encoding="iso-8859-1"?>
<!-- Generator: Adobe Illustrator 16.0.0, SVG Export Plug-In . SVG Version: 6.00 Build 0)  -->
<!DOCTYPE svg PUBLIC "-//W3C//DTD SVG 1.1//EN" "http://www.w3.org/Graphics/SVG/1.1/DTD/svg11.dtd">
<svg version="1.1" id="Capa_1" xmlns="http://www.w3.org/2000/svg" xmlns:xlink="http://www.w3.org/1999/xlink" x="0px" y="0px"
	 width="439.362px" height="439.361px" viewBox="0 0 439.362 439.361" style="enable-background:new 0 0 439.362 439.361;"
	 xml:space="preserve">
<g>
	<g>
		<path d="M420.673,293.628H18.683c-4.952,0-9.235,1.811-12.851,5.428c-3.617,3.614-5.424,7.902-5.424,12.848v73.087
			c0,4.948,1.807,9.229,5.424,12.847c3.619,3.613,7.898,5.424,12.851,5.424h401.991c4.948,0,9.233-1.811,12.847-5.424
			c3.614-3.617,5.421-7.898,5.421-12.847v-73.091c0-4.941-1.807-9.233-5.421-12.847
			C429.907,295.438,425.625,293.628,420.673,293.628z"/>
		<path d="M435.242,244.229L232.53,41.526c-3.617-3.617-7.895-5.426-12.849-5.426c-4.952,0-9.233,1.809-12.85,5.426L4.121,244.229
			c-3.616,3.621-4.853,6.666-3.709,9.137c1.141,2.479,4.187,3.717,9.135,3.717h420.274c4.948,0,7.994-1.238,9.13-3.717
			C440.09,250.896,438.859,247.851,435.242,244.229z"/>
	</g>
</g>
<g>
</g>
<g>
</g>
<g>
</g>
<g>
</g>
<g>
</g>
<g>
</g>
<g>
</g>
<g>
</g>
<g>
</g>
<g>
</g>
<g>
</g>
<g>
</g>
<g>
</g>
<g>
</g>
<g>
</g>
</svg>
