<?xml version="1.0" encoding="iso-8859-1"?>
<!-- Generator: Adobe Illustrator 16.0.0, SVG Export Plug-In . SVG Version: 6.00 Build 0)  -->
<!DOCTYPE svg PUBLIC "-//W3C//DTD SVG 1.1//EN" "http://www.w3.org/Graphics/SVG/1.1/DTD/svg11.dtd">
<svg version="1.1" id="Capa_1" xmlns="http://www.w3.org/2000/svg" xmlns:xlink="http://www.w3.org/1999/xlink" x="0px" y="0px"
	 width="502.479px" height="502.479px" viewBox="0 0 502.479 502.479" style="enable-background:new 0 0 502.479 502.479;"
	 xml:space="preserve">
<g>
	<g>
		<path d="M251.239,127.907c17.705,0,32.783-6.232,45.253-18.7c12.474-12.467,18.699-27.554,18.699-45.253
			c0-17.705-6.226-32.783-18.699-45.255C284.022,6.233,268.938,0,251.239,0c-17.704,0-32.789,6.23-45.254,18.699
			s-18.699,27.55-18.699,45.255c0,17.703,6.23,32.789,18.699,45.253C218.454,121.671,233.535,127.907,251.239,127.907z"/>
		<path d="M429.396,277.222l-73.087-109.634c-13.895-20.367-30.643-30.55-50.251-30.55H196.422
			c-19.603,0-36.354,10.183-50.248,30.55L73.085,277.222c-3.046,4.565-4.57,9.616-4.57,15.133c0,7.611,2.664,14.086,7.994,19.411
			c5.33,5.331,11.801,7.994,19.414,7.994c9.706,0,17.321-4.093,22.84-12.279l64.809-97.354h12.851v37.685l-70.521,117.339
			c-1.713,2.854-2.568,5.995-2.568,9.421c0,4.952,1.809,9.229,5.424,12.851c3.617,3.613,7.898,5.42,12.847,5.42h54.814v77.659
			c0,8.758,3.137,16.279,9.42,22.556c6.283,6.283,13.8,9.421,22.557,9.421h45.679c8.761,0,16.278-3.138,22.562-9.421
			c6.276-6.283,9.418-13.798,9.418-22.556v-77.659h54.823c4.945,0,9.227-1.807,12.847-5.42c3.614-3.621,5.421-7.898,5.421-12.851
			c0-3.426-0.855-6.567-2.563-9.421l-70.523-117.339v-37.685h12.854l64.809,97.36c5.521,8.18,13.131,12.272,22.843,12.272
			c7.611,0,14.079-2.663,19.407-7.991s7.994-11.796,7.994-19.41C433.964,286.838,432.441,281.794,429.396,277.222z"/>
	</g>
</g>
<g>
</g>
<g>
</g>
<g>
</g>
<g>
</g>
<g>
</g>
<g>
</g>
<g>
</g>
<g>
</g>
<g>
</g>
<g>
</g>
<g>
</g>
<g>
</g>
<g>
</g>
<g>
</g>
<g>
</g>
</svg>
