<?xml version="1.0" encoding="iso-8859-1"?>
<!-- Generator: Adobe Illustrator 16.0.0, SVG Export Plug-In . SVG Version: 6.00 Build 0)  -->
<!DOCTYPE svg PUBLIC "-//W3C//DTD SVG 1.1//EN" "http://www.w3.org/Graphics/SVG/1.1/DTD/svg11.dtd">
<svg version="1.1" id="Capa_1" xmlns="http://www.w3.org/2000/svg" xmlns:xlink="http://www.w3.org/1999/xlink" x="0px" y="0px"
	 width="548.179px" height="548.179px" viewBox="0 0 548.179 548.179" style="enable-background:new 0 0 548.179 548.179;"
	 xml:space="preserve">
<g>
	<path d="M547.888,273.237c-4.948-6.661-32.264-15.513-81.94-26.551l-100.502-9.135l-63.953-18.273h-18.268L199.568,118.78h19.698
		c4.952,0,9.234-0.428,12.85-1.287c3.617-0.859,5.424-1.952,5.424-3.284c0-1.331-1.807-2.424-5.424-3.284
		c-3.616-0.855-7.898-1.285-12.85-1.285H191.86h-45.679h-18.274v9.135h18.274v118.771h-45.683l-54.818-63.954H18.274l-9.136,9.136
		v54.818h9.136v9.135h36.547v2.284L0,255.818v36.546l54.821,6.851v2.283H18.274v9.13H9.139v54.823l9.136,9.134h27.406l54.818-63.954
		h45.683v118.777h-18.274v9.13h18.274h45.679h27.407c4.952,0,9.234-0.425,12.85-1.28c3.617-0.862,5.424-1.954,5.424-3.288
		c0-1.331-1.807-2.427-5.424-3.289c-3.616-0.855-7.898-1.28-12.85-1.28h-19.698l83.656-100.502h18.268l63.953-18.273l100.506-9.131
		c54.625-12.183,82.036-21.32,82.228-27.408L547.888,273.237z"/>
</g>
<g>
</g>
<g>
</g>
<g>
</g>
<g>
</g>
<g>
</g>
<g>
</g>
<g>
</g>
<g>
</g>
<g>
</g>
<g>
</g>
<g>
</g>
<g>
</g>
<g>
</g>
<g>
</g>
<g>
</g>
</svg>
