<?xml version="1.0" encoding="iso-8859-1"?>
<!-- Generator: Adobe Illustrator 16.0.0, SVG Export Plug-In . SVG Version: 6.00 Build 0)  -->
<!DOCTYPE svg PUBLIC "-//W3C//DTD SVG 1.1//EN" "http://www.w3.org/Graphics/SVG/1.1/DTD/svg11.dtd">
<svg version="1.1" id="Capa_1" xmlns="http://www.w3.org/2000/svg" xmlns:xlink="http://www.w3.org/1999/xlink" x="0px" y="0px"
	 width="548.176px" height="548.176px" viewBox="0 0 548.176 548.176" style="enable-background:new 0 0 548.176 548.176;"
	 xml:space="preserve">
<g>
	<path d="M534.75,49.965c-8.945-8.946-19.694-13.418-32.261-13.418H45.681c-12.562,0-23.313,4.473-32.264,13.418
		C4.471,58.916,0,69.667,0,82.229v383.72c0,12.562,4.471,23.315,13.417,32.265c8.951,8.945,19.702,13.415,32.264,13.415h456.815
		c12.56,0,23.312-4.47,32.258-13.415c8.945-8.949,13.422-19.702,13.422-32.265V82.229C548.176,69.667,543.699,58.916,534.75,49.965z
		 M109.634,456.815c0,4.948-1.804,9.233-5.421,12.847c-3.616,3.617-7.898,5.428-12.85,5.428H54.821
		c-4.948,0-9.234-1.811-12.85-5.428c-3.614-3.613-5.426-7.898-5.426-12.847v-36.545c0-4.948,1.812-9.233,5.426-12.851
		c3.616-3.613,7.902-5.424,12.85-5.424H91.36c4.952,0,9.234,1.811,12.85,5.424c3.617,3.617,5.424,7.902,5.424,12.851V456.815z
		 M109.634,347.177c0,4.948-1.804,9.236-5.421,12.847c-3.616,3.613-7.898,5.428-12.85,5.428H54.821
		c-4.948,0-9.234-1.814-12.85-5.428c-3.614-3.61-5.426-7.898-5.426-12.847v-36.549c0-4.948,1.812-9.229,5.426-12.847
		c3.616-3.614,7.902-5.424,12.85-5.424H91.36c4.952,0,9.234,1.81,12.85,5.424c3.617,3.617,5.424,7.898,5.424,12.847V347.177z
		 M109.634,237.542c0,4.952-1.804,9.235-5.421,12.85c-3.616,3.617-7.898,5.426-12.85,5.426H54.821c-4.948,0-9.234-1.809-12.85-5.426
		c-3.614-3.615-5.426-7.898-5.426-12.85V201c0-4.952,1.812-9.235,5.426-12.85c3.616-3.617,7.902-5.426,12.85-5.426H91.36
		c4.952,0,9.234,1.809,12.85,5.426c3.617,3.619,5.424,7.902,5.424,12.85V237.542z M109.634,127.912c0,4.948-1.804,9.232-5.421,12.85
		c-3.616,3.615-7.898,5.424-12.85,5.424H54.821c-4.948,0-9.234-1.809-12.85-5.424c-3.614-3.621-5.426-7.898-5.426-12.85V91.368
		c0-4.952,1.812-9.233,5.426-12.85c3.616-3.616,7.902-5.424,12.85-5.424H91.36c4.952,0,9.234,1.809,12.85,5.424
		c3.617,3.621,5.424,7.902,5.424,12.85V127.912z M401.994,456.815c0,4.948-1.807,9.233-5.424,12.847
		c-3.617,3.617-7.902,5.428-12.851,5.428H164.452c-4.949,0-9.229-1.811-12.847-5.428c-3.615-3.613-5.424-7.898-5.424-12.847V310.635
		c0-4.941,1.809-9.229,5.424-12.847c3.618-3.614,7.898-5.425,12.847-5.425H383.72c4.948,0,9.233,1.811,12.851,5.425
		c3.617,3.617,5.424,7.905,5.424,12.847V456.815L401.994,456.815z M401.994,237.542c0,4.952-1.807,9.235-5.424,12.85
		c-3.617,3.617-7.902,5.426-12.851,5.426H164.452c-4.949,0-9.229-1.809-12.847-5.426c-3.615-3.615-5.424-7.898-5.424-12.85V91.365
		c0-4.952,1.809-9.233,5.424-12.85c3.618-3.615,7.898-5.424,12.847-5.424H383.72c4.948,0,9.233,1.809,12.851,5.424
		c3.617,3.621,5.424,7.902,5.424,12.85V237.542L401.994,237.542z M511.627,456.815c0,4.948-1.807,9.233-5.421,12.847
		c-3.621,3.617-7.905,5.428-12.854,5.428h-36.542c-4.948,0-9.236-1.811-12.847-5.428c-3.621-3.613-5.428-7.898-5.428-12.847v-36.545
		c0-4.948,1.807-9.233,5.428-12.851c3.61-3.613,7.898-5.424,12.847-5.424h36.542c4.948,0,9.232,1.811,12.854,5.424
		c3.614,3.617,5.421,7.902,5.421,12.851V456.815z M511.627,347.177c0,4.948-1.807,9.236-5.421,12.847
		c-3.621,3.613-7.905,5.428-12.854,5.428h-36.542c-4.948,0-9.236-1.814-12.847-5.428c-3.621-3.61-5.428-7.898-5.428-12.847v-36.549
		c0-4.948,1.807-9.229,5.428-12.847c3.61-3.614,7.898-5.424,12.847-5.424h36.542c4.948,0,9.232,1.81,12.854,5.424
		c3.614,3.617,5.421,7.898,5.421,12.847V347.177z M511.627,237.542c0,4.952-1.807,9.235-5.421,12.85
		c-3.621,3.617-7.905,5.426-12.854,5.426h-36.542c-4.948,0-9.236-1.809-12.847-5.426c-3.621-3.615-5.428-7.898-5.428-12.85V201
		c0-4.952,1.807-9.235,5.428-12.85c3.61-3.617,7.898-5.426,12.847-5.426h36.542c4.948,0,9.232,1.809,12.854,5.426
		c3.614,3.619,5.421,7.902,5.421,12.85V237.542z M511.627,127.912c0,4.948-1.807,9.229-5.421,12.85
		c-3.621,3.615-7.905,5.424-12.854,5.424h-36.542c-4.948,0-9.236-1.805-12.847-5.424c-3.621-3.621-5.428-7.898-5.428-12.85V91.368
		c0-4.952,1.807-9.233,5.428-12.85c3.61-3.616,7.898-5.424,12.847-5.424h36.542c4.948,0,9.232,1.809,12.854,5.424
		c3.614,3.621,5.421,7.902,5.421,12.85V127.912z"/>
</g>
<g>
</g>
<g>
</g>
<g>
</g>
<g>
</g>
<g>
</g>
<g>
</g>
<g>
</g>
<g>
</g>
<g>
</g>
<g>
</g>
<g>
</g>
<g>
</g>
<g>
</g>
<g>
</g>
<g>
</g>
</svg>
