<?xml version="1.0" encoding="iso-8859-1"?>
<!-- Generator: Adobe Illustrator 16.0.0, SVG Export Plug-In . SVG Version: 6.00 Build 0)  -->
<!DOCTYPE svg PUBLIC "-//W3C//DTD SVG 1.1//EN" "http://www.w3.org/Graphics/SVG/1.1/DTD/svg11.dtd">
<svg version="1.1" id="Capa_1" xmlns="http://www.w3.org/2000/svg" xmlns:xlink="http://www.w3.org/1999/xlink" x="0px" y="0px"
	 width="438.536px" height="438.536px" viewBox="0 0 438.536 438.536" style="enable-background:new 0 0 438.536 438.536;"
	 xml:space="preserve">
<g>
	<path d="M414.41,24.123C398.333,8.042,378.963,0,356.315,0H82.228C59.58,0,40.21,8.042,24.126,24.123
		C8.045,40.207,0.003,59.576,0.003,82.225v274.084c0,22.647,8.042,42.018,24.123,58.102c16.084,16.084,35.454,24.126,58.102,24.126
		h274.084c22.648,0,42.018-8.042,58.095-24.126c16.084-16.084,24.126-35.454,24.126-58.102V82.225
		C438.532,59.576,430.49,40.207,414.41,24.123z M181.585,262.093c-11.803,11.804-26.075,17.706-42.827,17.706
		c-16.75,0-31.024-5.902-42.825-17.706c-11.799-11.8-17.701-26.073-17.701-42.826c0-16.755,5.898-31.027,17.701-42.827
		c11.798-11.801,26.075-17.703,42.825-17.703c16.751,0,31.023,5.902,42.827,17.703c11.798,11.799,17.699,26.072,17.699,42.827
		C199.284,236.013,193.383,250.293,181.585,262.093z M342.603,262.093c-11.793,11.804-26.07,17.706-42.825,17.706
		c-16.748,0-31.024-5.902-42.831-17.706c-11.793-11.8-17.699-26.073-17.699-42.826c0-16.755,5.906-31.027,17.699-42.827
		c11.807-11.801,26.08-17.703,42.831-17.703c16.748,0,31.025,5.902,42.825,17.703c11.8,11.799,17.706,26.072,17.706,42.827
		C360.309,236.013,354.402,250.293,342.603,262.093z"/>
</g>
<g>
</g>
<g>
</g>
<g>
</g>
<g>
</g>
<g>
</g>
<g>
</g>
<g>
</g>
<g>
</g>
<g>
</g>
<g>
</g>
<g>
</g>
<g>
</g>
<g>
</g>
<g>
</g>
<g>
</g>
</svg>
