<?xml version="1.0" encoding="iso-8859-1"?>
<!-- Generator: Adobe Illustrator 16.0.0, SVG Export Plug-In . SVG Version: 6.00 Build 0)  -->
<!DOCTYPE svg PUBLIC "-//W3C//DTD SVG 1.1//EN" "http://www.w3.org/Graphics/SVG/1.1/DTD/svg11.dtd">
<svg version="1.1" id="Capa_1" xmlns="http://www.w3.org/2000/svg" xmlns:xlink="http://www.w3.org/1999/xlink" x="0px" y="0px"
	 width="509.337px" height="509.338px" viewBox="0 0 509.337 509.338" style="enable-background:new 0 0 509.337 509.338;"
	 xml:space="preserve">
<g>
	<g>
		<path d="M396.283,310.907c-3.809-1.52-7.143-0.853-9.996,1.998l-18.274,18.274c-1.711,1.708-2.573,3.806-2.573,6.276v35.978
			c0,12.565-4.463,23.314-13.408,32.264c-8.952,8.945-19.701,13.418-32.264,13.418H82.224c-12.562,0-23.317-4.473-32.264-13.418
			c-8.947-8.949-13.418-19.698-13.418-32.264V135.895c0-12.563,4.471-23.317,13.418-32.265c8.947-8.945,19.702-13.418,32.264-13.418
			H319.77c4.186,0,8.47,0.571,12.847,1.714c3.433,1.141,6.472,0.381,9.134-2.284l13.986-13.99c2.286-2.281,3.138-5.043,2.57-8.278
			c-0.571-3.044-2.286-5.234-5.141-6.565c-10.28-4.752-21.412-7.139-33.403-7.139H82.224c-22.648,0-42.017,8.042-58.102,24.126
			C8.042,93.882,0,113.246,0,135.897V373.44c0,22.647,8.042,42.014,24.123,58.098c16.084,16.088,35.454,24.13,58.102,24.13h237.539
			c22.647,0,42.014-8.042,58.098-24.13c16.088-16.084,24.13-35.45,24.13-58.098v-54.245
			C401.991,315.191,400.084,312.434,396.283,310.907z"/>
		<path d="M182.721,300.354v82.221h82.229L456.81,190.716l-82.228-82.225L182.721,300.354z M253.524,355.169L253.524,355.169
			l-15.99-0.007v-27.401h-27.406v-15.984l33.12-33.12l43.396,43.4L253.524,355.169z M378.861,159.023l-99.931,99.928
			c-3.234,3.241-6.376,3.334-9.421,0.288c-3.043-3.046-2.95-6.186,0.287-9.419l99.931-99.929c3.233-3.239,6.368-3.333,9.421-0.287
			S382.091,155.789,378.861,159.023z"/>
		<path d="M501.346,107.348L457.95,63.952c-5.328-5.33-11.796-7.995-19.413-7.995c-7.615,0-14.086,2.665-19.411,7.995
			l-26.269,26.263l82.228,82.229l26.262-26.268c5.328-5.327,7.991-11.8,7.991-19.414S506.674,112.678,501.346,107.348z"/>
	</g>
</g>
<g>
</g>
<g>
</g>
<g>
</g>
<g>
</g>
<g>
</g>
<g>
</g>
<g>
</g>
<g>
</g>
<g>
</g>
<g>
</g>
<g>
</g>
<g>
</g>
<g>
</g>
<g>
</g>
<g>
</g>
</svg>
