<?xml version="1.0" encoding="iso-8859-1"?>
<!-- Generator: Adobe Illustrator 16.0.0, SVG Export Plug-In . SVG Version: 6.00 Build 0)  -->
<!DOCTYPE svg PUBLIC "-//W3C//DTD SVG 1.1//EN" "http://www.w3.org/Graphics/SVG/1.1/DTD/svg11.dtd">
<svg version="1.1" id="Capa_1" xmlns="http://www.w3.org/2000/svg" xmlns:xlink="http://www.w3.org/1999/xlink" x="0px" y="0px"
	 width="440.25px" height="440.25px" viewBox="0 0 440.25 440.25" style="enable-background:new 0 0 440.25 440.25;"
	 xml:space="preserve">
<g>
	<path d="M434.823,207.279L232.111,4.571c-3.609-3.617-6.655-4.856-9.133-3.713c-2.475,1.143-3.712,4.189-3.712,9.137v202.708
		c-0.949-2.091-2.187-3.901-3.711-5.424L12.847,4.571C9.229,0.954,6.186-0.285,3.711,0.858C1.237,2.001,0,5.047,0,9.995v420.262
		c0,4.948,1.237,7.994,3.711,9.138c2.474,1.14,5.518-0.1,9.135-3.721l202.708-202.701c1.521-1.711,2.762-3.524,3.711-5.428v202.712
		c0,4.948,1.237,7.991,3.712,9.131c2.478,1.143,5.523-0.093,9.133-3.714l202.712-202.708c3.61-3.617,5.428-7.901,5.428-12.847
		C440.248,215.178,438.433,210.896,434.823,207.279z"/>
</g>
<g>
</g>
<g>
</g>
<g>
</g>
<g>
</g>
<g>
</g>
<g>
</g>
<g>
</g>
<g>
</g>
<g>
</g>
<g>
</g>
<g>
</g>
<g>
</g>
<g>
</g>
<g>
</g>
<g>
</g>
</svg>
