<?xml version="1.0" encoding="iso-8859-1"?>
<!-- Generator: Adobe Illustrator 16.0.0, SVG Export Plug-In . SVG Version: 6.00 Build 0)  -->
<!DOCTYPE svg PUBLIC "-//W3C//DTD SVG 1.1//EN" "http://www.w3.org/Graphics/SVG/1.1/DTD/svg11.dtd">
<svg version="1.1" id="Capa_1" xmlns="http://www.w3.org/2000/svg" xmlns:xlink="http://www.w3.org/1999/xlink" x="0px" y="0px"
	 width="439.679px" height="439.679px" viewBox="0 0 439.679 439.679" style="enable-background:new 0 0 439.679 439.679;"
	 xml:space="preserve">
<g>
	<g>
		<path d="M145.031,169.879c-2.666-2.857-6.089-4.286-10.276-4.286c-4.192,0-7.521,1.434-9.995,4.286l-34.546,34.258
			c-2.666,2.667-3.997,5.996-3.997,9.994c0,3.997,1.334,7.428,3.997,10.282l116.203,116.483c2.284,2.286,5.138,3.621,8.564,4.004
			c0.383,0.191,0.955,0.28,1.714,0.28c3.805,0,7.324-1.431,10.564-4.284l208.417-208.42c2.669-2.859,4.004-6.283,4.004-10.282
			c0-3.997-1.335-7.424-4.004-10.277l-34.256-34.263c-2.854-2.856-6.283-4.281-10.28-4.281s-7.426,1.429-10.28,4.281l-163.88,164.17
			L145.031,169.879z"/>
		<path d="M422.835,182.435L246.108,359.164c-7.426,7.803-16.848,11.711-28.267,11.711h-7.994l-1.713-1.144
			c-7.044-1.718-13.418-5.235-19.13-10.567L73.089,242.681c-7.995-7.994-11.992-17.515-11.992-28.55
			c0-11.228,3.997-20.647,11.992-28.262l34.261-34.545c7.804-7.804,17.318-11.709,28.549-11.709c10.85,0,20.273,3.999,28.266,11.991
			l53.676,53.677L331.467,91.364l-75.657-75.66C245.721,5.619,233.542,0.576,219.263,0.576c-14.275,0-26.457,5.042-36.542,15.128
			L15.131,183.292C5.042,193.382,0,205.562,0,219.839c0,14.279,5.046,26.455,15.131,36.547l167.594,167.586
			c10.085,10.089,22.314,15.13,36.685,15.13c14.372,0,26.503-5.041,36.403-15.13l167.59-167.586
			c10.089-10.093,15.133-22.269,15.133-36.551c0-14.281-5.044-26.457-15.133-36.547L422.835,182.435z"/>
	</g>
</g>
<g>
</g>
<g>
</g>
<g>
</g>
<g>
</g>
<g>
</g>
<g>
</g>
<g>
</g>
<g>
</g>
<g>
</g>
<g>
</g>
<g>
</g>
<g>
</g>
<g>
</g>
<g>
</g>
<g>
</g>
</svg>
