<?xml version="1.0" encoding="iso-8859-1"?>
<!-- Generator: Adobe Illustrator 16.0.0, SVG Export Plug-In . SVG Version: 6.00 Build 0)  -->
<!DOCTYPE svg PUBLIC "-//W3C//DTD SVG 1.1//EN" "http://www.w3.org/Graphics/SVG/1.1/DTD/svg11.dtd">
<svg version="1.1" id="Capa_1" xmlns="http://www.w3.org/2000/svg" xmlns:xlink="http://www.w3.org/1999/xlink" x="0px" y="0px"
	 width="548.176px" height="548.176px" viewBox="0 0 548.176 548.176" style="enable-background:new 0 0 548.176 548.176;"
	 xml:space="preserve">
<g>
	<path d="M505.347,170.733c-28.551-28.549-62.998-42.825-103.353-42.825H146.181c-40.349,0-74.807,14.275-103.353,42.825
		C14.275,199.283,0,233.734,0,274.086c0,40.357,14.279,74.805,42.828,103.353c28.546,28.548,63,42.829,103.353,42.829
		c36.547,0,68.708-12.187,96.501-36.549h62.811c27.791,24.362,59.952,36.549,96.501,36.549c40.348,0,74.802-14.274,103.353-42.829
		c28.552-28.554,42.829-62.995,42.829-103.353C548.176,233.734,533.898,199.283,505.347,170.733z M237.541,292.36
		c0,2.666-0.854,4.856-2.568,6.563c-1.713,1.715-3.9,2.57-6.567,2.57h-54.818v54.819c0,2.666-0.854,4.856-2.568,6.564
		c-1.713,1.714-3.899,2.569-6.567,2.569h-36.545c-2.664,0-4.854-0.855-6.567-2.569c-1.711-1.708-2.565-3.898-2.565-6.564v-54.819
		H63.953c-2.664,0-4.854-0.855-6.567-2.57c-1.711-1.707-2.565-3.897-2.565-6.563v-36.545c0-2.664,0.854-4.854,2.565-6.567
		c1.713-1.714,3.903-2.568,6.567-2.568h54.821v-54.818c0-2.664,0.854-4.854,2.565-6.567c1.712-1.715,3.903-2.568,6.567-2.568h36.545
		c2.667,0,4.854,0.854,6.567,2.568c1.714,1.713,2.568,3.903,2.568,6.567v54.818h54.818c2.667,0,4.854,0.854,6.567,2.568
		c1.714,1.713,2.568,3.903,2.568,6.567V292.36z M391.29,336.469c-7.139,7.139-15.753,10.711-25.845,10.711
		c-10.081,0-18.698-3.572-25.834-10.711c-7.139-7.132-10.707-15.749-10.707-25.837c0-10.089,3.568-18.702,10.707-25.838
		c7.136-7.132,15.753-10.708,25.834-10.708c10.092,0,18.706,3.576,25.845,10.708c7.132,7.136,10.704,15.749,10.704,25.838
		C401.994,320.72,398.422,329.337,391.29,336.469z M464.373,263.38c-7.131,7.135-15.748,10.706-25.837,10.706
		s-18.702-3.567-25.837-10.706c-7.139-7.14-10.708-15.75-10.708-25.841c0-10.085,3.569-18.698,10.708-25.835
		c7.135-7.139,15.748-10.707,25.837-10.707s18.706,3.568,25.837,10.707c7.139,7.137,10.712,15.75,10.712,25.835
		C475.085,247.629,471.516,256.243,464.373,263.38z"/>
</g>
<g>
</g>
<g>
</g>
<g>
</g>
<g>
</g>
<g>
</g>
<g>
</g>
<g>
</g>
<g>
</g>
<g>
</g>
<g>
</g>
<g>
</g>
<g>
</g>
<g>
</g>
<g>
</g>
<g>
</g>
</svg>
