<?xml version="1.0" encoding="iso-8859-1"?>
<!-- Generator: Adobe Illustrator 16.0.0, SVG Export Plug-In . SVG Version: 6.00 Build 0)  -->
<!DOCTYPE svg PUBLIC "-//W3C//DTD SVG 1.1//EN" "http://www.w3.org/Graphics/SVG/1.1/DTD/svg11.dtd">
<svg version="1.1" id="Capa_1" xmlns="http://www.w3.org/2000/svg" xmlns:xlink="http://www.w3.org/1999/xlink" x="0px" y="0px"
	 width="438.533px" height="438.533px" viewBox="0 0 438.533 438.533" style="enable-background:new 0 0 438.533 438.533;"
	 xml:space="preserve">
<g>
	<path d="M409.133,109.203c-19.608-33.592-46.205-60.189-79.798-79.796C295.736,9.801,259.058,0,219.273,0
		c-39.781,0-76.47,9.801-110.063,29.407c-33.595,19.604-60.192,46.201-79.8,79.796C9.801,142.8,0,179.489,0,219.267
		c0,39.78,9.804,76.463,29.407,110.062c19.607,33.592,46.204,60.189,79.799,79.798c33.597,19.605,70.283,29.407,110.063,29.407
		s76.47-9.802,110.065-29.407c33.593-19.602,60.189-46.206,79.795-79.798c19.603-33.596,29.403-70.284,29.403-110.062
		C438.533,179.485,428.732,142.795,409.133,109.203z M327.617,183.291c-1.615,7.044-3.949,12.662-6.994,16.846L220.7,335.18
		l-99.641-135.043c-3.045-4.187-5.376-9.801-6.995-16.846c-1.619-7.043-1.047-15.135,1.713-24.27
		c2.762-9.135,8.516-16.652,17.273-22.554c7.804-4.949,15.8-7.376,23.984-7.282c8.186,0.099,15.179,1.762,20.983,4.996
		c5.802,3.239,10.989,7.522,15.559,12.847c6.851,7.616,15.893,11.425,27.124,11.425c11.419,0,20.552-3.809,27.403-11.425
		c4.575-5.325,9.76-9.608,15.561-12.847c5.804-3.234,12.792-4.902,20.981-4.996s16.087,2.333,23.698,7.282
		c8.949,5.901,14.801,13.422,17.566,22.554C328.665,168.16,329.239,176.248,327.617,183.291z"/>
</g>
<g>
</g>
<g>
</g>
<g>
</g>
<g>
</g>
<g>
</g>
<g>
</g>
<g>
</g>
<g>
</g>
<g>
</g>
<g>
</g>
<g>
</g>
<g>
</g>
<g>
</g>
<g>
</g>
<g>
</g>
</svg>
