<?xml version="1.0" encoding="iso-8859-1"?>
<!-- Generator: Adobe Illustrator 16.0.0, SVG Export Plug-In . SVG Version: 6.00 Build 0)  -->
<!DOCTYPE svg PUBLIC "-//W3C//DTD SVG 1.1//EN" "http://www.w3.org/Graphics/SVG/1.1/DTD/svg11.dtd">
<svg version="1.1" id="Capa_1" xmlns="http://www.w3.org/2000/svg" xmlns:xlink="http://www.w3.org/1999/xlink" x="0px" y="0px"
	 width="438.536px" height="438.536px" viewBox="0 0 438.536 438.536" style="enable-background:new 0 0 438.536 438.536;"
	 xml:space="preserve">
<g>
	<path d="M365.449,109.631V36.545h-36.542v73.085H255.82v36.547h73.087v73.089h36.542v-73.089h73.083v210.131
		c0,22.647-8.042,42.018-24.126,58.102c-16.077,16.084-35.446,24.126-58.095,24.126H222.697
		c7.419-13.894,11.129-28.835,11.129-44.823c0-12.566-2.095-24.223-6.276-34.975c-4.188-10.749-9.471-19.602-15.847-26.549
		c-6.377-6.94-13.228-13.706-20.555-20.27c-7.329-6.563-14.178-12.228-20.557-16.991c-6.374-4.753-11.658-9.944-15.843-15.554
		c-4.187-5.623-6.279-11.283-6.279-16.991c0-6.854,2.19-13.325,6.567-19.417c4.38-6.088,9.71-11.94,15.987-17.556
		c6.279-5.619,12.515-11.755,18.702-18.42c6.186-6.658,11.466-15.511,15.843-26.549c4.38-11.038,6.567-23.507,6.567-37.404
		c0-13.894-2.522-27.74-7.564-41.54s-12.231-25.078-21.556-33.835c-1.142-1.138-2.474-2.185-3.997-3.14
		c-1.521-0.95-2.714-1.667-3.568-2.141c-0.859-0.478-1.809-1.381-2.855-2.712c-1.049-1.331-2.046-2.95-2.996-4.853h38.543
		l38.546-18.272H121.913c-26.267,0-49.536,3.662-69.805,10.994C31.84,54.866,14.469,67.572,0.003,85.651
		c0-23.984,7.708-44.252,23.124-60.813C38.547,8.276,58.243,0,82.228,0h274.084c22.648,0,42.018,8.042,58.095,24.123
		c16.084,16.084,24.126,35.453,24.126,58.102v27.406H365.449z M56.821,208.56c6.086,7.904,13.513,14.326,22.267,19.274
		s17.983,7.419,27.694,7.419c18.464,0,31.833-5.763,40.114-17.276c8.28-11.511,12.419-26.787,12.419-45.821
		c0-11.613-1.524-23.791-4.563-36.54c-3.047-12.751-7.52-25.122-13.421-37.113c-5.9-11.991-13.894-21.892-23.982-29.696
		c-10.085-7.804-21.411-11.708-33.974-11.708c-17.701,0-31.455,6.567-41.258,19.7c-9.801,13.134-14.703,28.835-14.703,47.11
		c0,8.942,1.093,18.361,3.284,28.262c2.19,9.898,5.568,19.799,10.138,29.696C45.4,191.764,50.73,200.662,56.821,208.56z
		 M91.935,275.512c0-4.757,1.997-12.946,5.996-24.558c-7.233,0.951-13.894,1.431-19.985,1.431c-32.355,0-58.336-11.232-77.941-33.69
		v123.624c28.737-14.852,65.378-22.935,109.918-24.27C97.93,302.437,91.935,288.263,91.935,275.512z M189.567,396.416
		c-0.953-3.135-2.618-6.416-4.996-9.849c-2.38-3.422-4.377-6.324-5.996-8.706c-1.617-2.375-4.139-5.182-7.566-8.418
		c-3.424-3.234-6.042-5.661-7.851-7.279c-1.807-1.619-4.853-4.042-9.135-7.279c-4.278-3.237-7.233-5.428-8.848-6.563
		c-1.615-1.144-4.755-3.333-9.419-6.57s-7.566-5.236-8.708-5.996c-3.235-0.376-7.898-0.567-13.99-0.567
		c-10.466,0-20.651,0.66-30.546,1.994c-9.9,1.332-20.083,3.614-30.551,6.852c-10.467,3.237-19.984,7.943-28.549,14.13
		c-8.564,6.188-15.131,13.559-19.702,22.128c5.142,17.316,14.993,31.354,29.552,42.106c14.564,10.759,30.883,16.136,48.966,16.136
		H190.72c1.903-6.28,2.853-13.042,2.853-20.27c0-3.997-0.428-7.851-1.293-11.563C191.425,402.986,190.517,399.558,189.567,396.416z"
		/>
</g>
<g>
</g>
<g>
</g>
<g>
</g>
<g>
</g>
<g>
</g>
<g>
</g>
<g>
</g>
<g>
</g>
<g>
</g>
<g>
</g>
<g>
</g>
<g>
</g>
<g>
</g>
<g>
</g>
<g>
</g>
</svg>
