<?xml version="1.0" encoding="iso-8859-1"?>
<!-- Generator: Adobe Illustrator 16.0.0, SVG Export Plug-In . SVG Version: 6.00 Build 0)  -->
<!DOCTYPE svg PUBLIC "-//W3C//DTD SVG 1.1//EN" "http://www.w3.org/Graphics/SVG/1.1/DTD/svg11.dtd">
<svg version="1.1" id="Capa_1" xmlns="http://www.w3.org/2000/svg" xmlns:xlink="http://www.w3.org/1999/xlink" x="0px" y="0px"
	 width="511.63px" height="511.63px" viewBox="0 0 511.63 511.63" style="enable-background:new 0 0 511.63 511.63;"
	 xml:space="preserve">
<g>
	<path d="M452.098,172.443c-15.317-16.368-36.206-24.457-62.67-24.267c-14.66-11.421-31.601-17.129-50.819-17.129
		c-4.186,0-8.278,0.284-12.278,0.855c-10.849-6.28-22.176-9.803-33.972-10.562V73.089c0-19.985-7.225-37.163-21.697-51.534
		C256.196,7.187,238.969,0,218.985,0c-19.607,0-36.641,7.233-51.108,21.698c-14.465,14.469-21.698,31.599-21.698,51.394v106.78
		c-11.419-4.185-23.601-6.279-36.545-6.279c-23.22,0-41.208,7.758-53.959,23.267c-12.753,15.514-19.126,35.166-19.126,58.957
		c0,7.231,1.663,13.849,4.996,19.841c3.333,5.992,8.042,11.232,14.134,15.705c6.089,4.469,12.085,8.322,17.987,11.56
		c5.901,3.241,12.752,6.759,20.557,10.564c7.803,3.806,13.701,6.95,17.7,9.421c10.467,6.656,22.744,16.18,36.829,28.545
		c0.572,0.386,2.19,1.721,4.854,4c2.667,2.286,4.714,4.093,6.139,5.428c1.427,1.334,3.474,3.285,6.136,5.852
		c2.664,2.566,4.805,4.856,6.423,6.852c1.615,1.995,3.33,4.144,5.137,6.427c1.809,2.279,3.14,4.517,3.999,6.707
		s1.287,4.237,1.287,6.14v82.228c0,10.089,3.568,18.698,10.705,25.837c7.139,7.139,15.752,10.708,25.841,10.708h182.716
		c10.088,0,18.705-3.569,25.844-10.708c7.132-7.135,10.708-15.748,10.708-25.837v-82.228c0-11.231,5.616-32.456,16.848-63.666
		c13.134-35.978,19.694-66.626,19.694-91.933C475.077,210.418,467.429,188.814,452.098,172.443z M396.573,469.657
		c-3.621,3.614-7.905,5.428-12.854,5.428s-9.227-1.817-12.847-5.428c-3.614-3.613-5.421-7.898-5.421-12.847
		s1.807-9.232,5.421-12.847c3.62-3.617,7.898-5.428,12.847-5.428s9.232,1.811,12.854,5.428c3.613,3.614,5.421,7.898,5.421,12.847
		S400.184,466.044,396.573,469.657z M429.405,289.933c-6.092,18.75-12.183,37.164-18.274,55.251
		c-6.091,18.079-9.137,33.975-9.137,47.674v9.134h-182.72v-9.134c0-13.511-5.424-26.833-16.272-39.968
		c-4.76-5.708-14.849-15.327-30.264-28.838c-15.415-13.703-29.215-24.366-41.396-31.978c-3.999-2.478-10.183-5.995-18.558-10.567
		c-26.458-12.56-39.687-21.121-39.687-25.693c0-13.513,2.902-24.506,8.709-32.976c5.802-8.47,15.082-12.703,27.834-12.703
		c8.186,0,16.228,1.427,24.126,4.283c7.898,2.852,14.372,5.992,19.414,9.419s10.278,6.567,15.703,9.423
		c5.429,2.855,10.044,4.283,13.849,4.283V73.092c0-9.514,3.666-17.983,10.994-25.41c7.327-7.421,15.843-11.132,25.553-11.132
		c9.898,0,18.462,3.615,25.697,10.848c7.233,7.232,10.848,15.798,10.848,25.697v94.501c3.239-2.858,7.756-5.236,13.56-7.139
		c5.805-1.903,11.088-2.856,15.845-2.856c13.135,0,24.455,5.042,33.969,15.131c6.092-3.427,12.662-5.14,19.705-5.14
		c7.042,0,14.037,1.667,20.984,4.996c6.943,3.333,11.939,7.854,14.985,13.562c5.708-0.95,11.036-1.427,15.985-1.427
		c31.781,0,47.681,17.985,47.681,53.958C438.546,254.099,435.497,271.186,429.405,289.933z"/>
</g>
<g>
</g>
<g>
</g>
<g>
</g>
<g>
</g>
<g>
</g>
<g>
</g>
<g>
</g>
<g>
</g>
<g>
</g>
<g>
</g>
<g>
</g>
<g>
</g>
<g>
</g>
<g>
</g>
<g>
</g>
</svg>
