<?xml version="1.0" encoding="iso-8859-1"?>
<!-- Generator: Adobe Illustrator 16.0.0, SVG Export Plug-In . SVG Version: 6.00 Build 0)  -->
<!DOCTYPE svg PUBLIC "-//W3C//DTD SVG 1.1//EN" "http://www.w3.org/Graphics/SVG/1.1/DTD/svg11.dtd">
<svg version="1.1" id="Capa_1" xmlns="http://www.w3.org/2000/svg" xmlns:xlink="http://www.w3.org/1999/xlink" x="0px" y="0px"
	 width="511.627px" height="511.627px" viewBox="0 0 511.627 511.627" style="enable-background:new 0 0 511.627 511.627;"
	 xml:space="preserve">
<g>
	<g>
		<path d="M451.378,115.06c-3.613-3.617-7.898-5.424-12.847-5.424h-91.357V27.412c0-7.616-2.663-14.092-7.991-19.417
			C333.854,2.666,327.376,0,319.766,0H191.857c-7.611,0-14.084,2.663-19.414,7.994c-5.33,5.329-7.992,11.802-7.992,19.417v82.224
			H73.089c-4.952,0-9.233,1.807-12.85,5.424c-3.615,3.617-5.424,7.898-5.424,12.847v365.446c0,4.952,1.809,9.233,5.424,12.851
			c3.621,3.617,7.902,5.424,12.85,5.424h365.449c4.948,0,9.233-1.807,12.847-5.424c3.61-3.617,5.428-7.898,5.428-12.851V127.907
			C456.809,122.958,455.002,118.677,451.378,115.06z M201.002,45.679c0-2.474,0.905-4.617,2.712-6.423
			c1.809-1.809,3.949-2.714,6.423-2.714h18.272c2.474,0,4.615,0.905,6.423,2.714c1.807,1.807,2.712,3.949,2.712,6.423v27.41h36.54
			v-27.41c0-2.474,0.907-4.617,2.711-6.423c1.813-1.809,3.956-2.714,6.427-2.714h18.274c2.478,0,4.613,0.905,6.427,2.714
			c1.8,1.807,2.703,3.949,2.703,6.423v91.363c0,2.475-0.903,4.615-2.703,6.424c-1.813,1.809-3.949,2.712-6.427,2.712h-18.274
			c-2.471,0-4.62-0.903-6.427-2.712c-1.801-1.809-2.711-3.949-2.711-6.424v-27.41h-36.54v27.41c0,2.475-0.905,4.615-2.712,6.424
			c-1.809,1.809-3.949,2.712-6.423,2.712h-18.272c-2.474,0-4.615-0.903-6.423-2.712c-1.807-1.809-2.712-3.949-2.712-6.424V45.679z
			 M420.264,475.085H310.632v-63.953c0-2.478-0.907-4.62-2.707-6.427c-1.817-1.807-3.949-2.711-6.427-2.711h-91.367
			c-2.474,0-4.615,0.904-6.423,2.711c-1.807,1.807-2.712,3.949-2.712,6.427v63.953H91.36V146.178h73.098v9.135
			c0,7.613,2.662,14.084,7.992,19.414s11.803,7.994,19.414,7.994h127.909c7.61,0,14.089-2.664,19.41-7.994
			c5.328-5.33,7.994-11.801,7.994-19.414v-9.135h73.084v328.907H420.264z"/>
		<path d="M155.313,365.449h-18.271c-2.474,0-4.615,0.903-6.423,2.714c-1.809,1.807-2.712,3.949-2.712,6.42v18.274
			c0,2.478,0.903,4.609,2.712,6.427c1.809,1.807,3.949,2.707,6.423,2.707h18.271c2.474,0,4.616-0.9,6.423-2.707
			c1.809-1.817,2.714-3.949,2.714-6.427v-18.274c0-2.471-0.905-4.613-2.714-6.42C159.93,366.356,157.788,365.449,155.313,365.449z"
			/>
		<path d="M155.313,292.362h-18.271c-2.474,0-4.615,0.903-6.423,2.71c-1.809,1.804-2.712,3.949-2.712,6.42v18.274
			c0,2.478,0.903,4.613,2.712,6.427c1.809,1.807,3.949,2.711,6.423,2.711h18.271c2.474,0,4.616-0.904,6.423-2.711
			c1.809-1.813,2.714-3.949,2.714-6.427v-18.274c0-2.471-0.905-4.616-2.714-6.42C159.93,293.266,157.788,292.362,155.313,292.362z"
			/>
		<path d="M228.407,292.362h-18.272c-2.474,0-4.615,0.903-6.423,2.71c-1.807,1.807-2.712,3.949-2.712,6.42v18.274
			c0,2.478,0.905,4.613,2.712,6.427c1.809,1.807,3.949,2.711,6.423,2.711h18.272c2.473,0,4.615-0.904,6.423-2.711
			c1.807-1.813,2.712-3.949,2.712-6.427v-18.274c0-2.471-0.909-4.613-2.712-6.42C233.022,293.266,230.88,292.362,228.407,292.362z"
			/>
		<path d="M155.313,219.271h-18.271c-2.474,0-4.615,0.903-6.423,2.712c-1.809,1.807-2.712,3.949-2.712,6.424v18.271
			c0,2.475,0.903,4.615,2.712,6.424s3.949,2.712,6.423,2.712h18.271c2.474,0,4.616-0.903,6.423-2.712
			c1.809-1.809,2.714-3.949,2.714-6.424v-18.271c0-2.475-0.905-4.617-2.714-6.424C159.93,220.175,157.788,219.271,155.313,219.271z"
			/>
		<path d="M374.585,365.449h-18.274c-2.471,0-4.613,0.903-6.42,2.714c-1.811,1.807-2.707,3.949-2.707,6.42v18.274
			c0,2.478,0.896,4.609,2.707,6.427c1.807,1.807,3.949,2.707,6.42,2.707h18.274c2.478,0,4.616-0.9,6.427-2.707
			c1.811-1.817,2.707-3.949,2.707-6.427v-18.274c0-2.471-0.903-4.613-2.707-6.42C379.201,366.356,377.062,365.449,374.585,365.449z"
			/>
		<path d="M301.498,292.362h-18.274c-2.471,0-4.62,0.903-6.427,2.71c-1.801,1.807-2.711,3.949-2.711,6.42v18.274
			c0,2.478,0.907,4.613,2.711,6.427c1.813,1.807,3.956,2.711,6.427,2.711h18.274c2.478,0,4.613-0.904,6.427-2.711
			c1.8-1.813,2.703-3.949,2.703-6.427v-18.274c0-2.471-0.903-4.613-2.703-6.42C306.114,293.266,303.976,292.362,301.498,292.362z"/>
		<path d="M228.407,219.271h-18.272c-2.474,0-4.615,0.903-6.423,2.712c-1.807,1.807-2.712,3.949-2.712,6.424v18.271
			c0,2.475,0.905,4.615,2.712,6.424c1.809,1.809,3.949,2.712,6.423,2.712h18.272c2.473,0,4.615-0.903,6.423-2.712
			c1.807-1.809,2.712-3.949,2.712-6.424v-18.271c0-2.475-0.909-4.613-2.712-6.424C233.022,220.175,230.88,219.271,228.407,219.271z"
			/>
		<path d="M374.585,292.362h-18.274c-2.471,0-4.613,0.903-6.42,2.71c-1.811,1.804-2.707,3.949-2.707,6.42v18.274
			c0,2.478,0.896,4.613,2.707,6.427c1.807,1.807,3.949,2.711,6.42,2.711h18.274c2.478,0,4.616-0.904,6.427-2.711
			c1.811-1.813,2.707-3.949,2.707-6.427v-18.274c0-2.471-0.903-4.613-2.707-6.42C379.201,293.266,377.062,292.362,374.585,292.362z"
			/>
		<path d="M301.498,219.271h-18.274c-2.471,0-4.62,0.903-6.427,2.712c-1.801,1.807-2.711,3.949-2.711,6.424v18.271
			c0,2.475,0.907,4.615,2.711,6.424c1.813,1.809,3.956,2.712,6.427,2.712h18.274c2.478,0,4.613-0.903,6.427-2.712
			c1.8-1.809,2.703-3.949,2.703-6.424v-18.271c0-2.475-0.903-4.613-2.703-6.424C306.114,220.175,303.976,219.271,301.498,219.271z"
			/>
		<path d="M347.177,246.678c0,2.475,0.903,4.615,2.71,6.424c1.808,1.809,3.949,2.712,6.42,2.712h18.274
			c2.478,0,4.613-0.903,6.427-2.712c1.808-1.809,2.711-3.949,2.711-6.424v-18.271c0-2.475-0.903-4.613-2.711-6.424
			c-1.813-1.809-3.949-2.712-6.427-2.712h-18.274c-2.471,0-4.612,0.903-6.42,2.712c-1.807,1.807-2.71,3.949-2.71,6.424V246.678z"/>
	</g>
</g>
<g>
</g>
<g>
</g>
<g>
</g>
<g>
</g>
<g>
</g>
<g>
</g>
<g>
</g>
<g>
</g>
<g>
</g>
<g>
</g>
<g>
</g>
<g>
</g>
<g>
</g>
<g>
</g>
<g>
</g>
</svg>
