<?xml version="1.0" encoding="iso-8859-1"?>
<!-- Generator: Adobe Illustrator 16.0.0, SVG Export Plug-In . SVG Version: 6.00 Build 0)  -->
<!DOCTYPE svg PUBLIC "-//W3C//DTD SVG 1.1//EN" "http://www.w3.org/Graphics/SVG/1.1/DTD/svg11.dtd">
<svg version="1.1" id="Capa_1" xmlns="http://www.w3.org/2000/svg" xmlns:xlink="http://www.w3.org/1999/xlink" x="0px" y="0px"
	 width="438.536px" height="438.536px" viewBox="0 0 438.536 438.536" style="enable-background:new 0 0 438.536 438.536;"
	 xml:space="preserve">
<g>
	<path d="M414.41,24.123C398.333,8.042,378.963,0,356.315,0H82.228C59.58,0,40.21,8.042,24.126,24.123
		C8.045,40.207,0.003,59.576,0.003,82.225v274.084c0,22.647,8.042,42.018,24.123,58.102c16.084,16.084,35.454,24.126,58.102,24.126
		h274.084c22.648,0,42.018-8.042,58.095-24.126c16.084-16.084,24.126-35.454,24.126-58.102V82.225
		C438.532,59.576,430.49,40.204,414.41,24.123z M365.449,347.172c0,4.948-1.811,9.232-5.421,12.847
		c-3.621,3.62-7.905,5.427-12.854,5.427h-36.542c-4.948,0-9.233-1.807-12.847-5.427c-3.614-3.614-5.428-7.898-5.428-12.847v-91.358
		H146.184v91.358c0,4.948-1.809,9.232-5.424,12.847c-3.621,3.62-7.904,5.427-12.85,5.427H91.363c-4.948,0-9.229-1.807-12.847-5.427
		c-3.615-3.614-5.424-7.898-5.424-12.847V91.36c0-4.949,1.809-9.233,5.424-12.847c3.617-3.618,7.898-5.428,12.847-5.428h36.544
		c4.95,0,9.233,1.81,12.85,5.428c3.615,3.614,5.424,7.898,5.424,12.847v91.36h146.178V91.36c0-4.949,1.807-9.233,5.421-12.847
		c3.62-3.618,7.905-5.428,12.847-5.428h36.549c4.948,0,9.232,1.81,12.854,5.428c3.613,3.614,5.421,7.898,5.421,12.847V347.172z"/>
</g>
<g>
</g>
<g>
</g>
<g>
</g>
<g>
</g>
<g>
</g>
<g>
</g>
<g>
</g>
<g>
</g>
<g>
</g>
<g>
</g>
<g>
</g>
<g>
</g>
<g>
</g>
<g>
</g>
<g>
</g>
</svg>
