<?xml version="1.0" encoding="iso-8859-1"?>
<!-- Generator: Adobe Illustrator 16.0.0, SVG Export Plug-In . SVG Version: 6.00 Build 0)  -->
<!DOCTYPE svg PUBLIC "-//W3C//DTD SVG 1.1//EN" "http://www.w3.org/Graphics/SVG/1.1/DTD/svg11.dtd">
<svg version="1.1" id="Capa_1" xmlns="http://www.w3.org/2000/svg" xmlns:xlink="http://www.w3.org/1999/xlink" x="0px" y="0px"
	 width="511.626px" height="511.626px" viewBox="0 0 511.626 511.626" style="enable-background:new 0 0 511.626 511.626;"
	 xml:space="preserve">
<g>
	<g>
		<path d="M9.139,347.173c2.667,0,4.854-0.855,6.567-2.566l82.224-82.229c1.711-1.711,2.57-3.9,2.57-6.565
			c0-2.666-0.859-4.853-2.57-6.567l-82.224-82.224c-1.713-1.714-3.9-2.568-6.567-2.568c-2.474,0-4.615,0.9-6.423,2.709
			c-1.809,1.81-2.712,3.952-2.712,6.427v164.446c0,2.478,0.903,4.62,2.712,6.427C4.524,346.266,6.665,347.173,9.139,347.173z"/>
		<path d="M502.49,383.722H9.135c-2.474,0-4.615,0.896-6.423,2.707C0.903,388.238,0,390.378,0,392.854v54.82
			c0,2.471,0.903,4.609,2.712,6.42c1.809,1.813,3.949,2.714,6.423,2.714H502.49c2.478,0,4.616-0.903,6.427-2.714
			c1.81-1.811,2.71-3.949,2.71-6.42v-54.82c0-2.477-0.903-4.616-2.71-6.426C507.106,384.625,504.967,383.722,502.49,383.722z"/>
		<path d="M502.49,274.082H191.86c-2.474,0-4.615,0.91-6.423,2.714s-2.712,3.953-2.712,6.424v54.815c0,2.478,0.903,4.62,2.712,6.427
			c1.809,1.808,3.949,2.707,6.423,2.707h310.63c2.478,0,4.616-0.896,6.427-2.707c1.81-1.807,2.71-3.949,2.71-6.427V283.22
			c0-2.471-0.903-4.613-2.71-6.424C507.106,274.992,504.967,274.082,502.49,274.082z"/>
		<path d="M502.49,164.453H191.86c-2.474,0-4.615,0.9-6.423,2.709c-1.809,1.81-2.712,3.952-2.712,6.427v54.817
			c0,2.473,0.903,4.615,2.712,6.424c1.809,1.803,3.949,2.712,6.423,2.712h310.63c2.478,0,4.616-0.905,6.427-2.712
			c1.81-1.809,2.71-3.951,2.71-6.424v-54.817c0-2.475-0.903-4.617-2.71-6.427C507.106,165.356,504.967,164.453,502.49,164.453z"/>
		<path d="M508.917,57.529c-1.811-1.805-3.949-2.712-6.427-2.712H9.135c-2.474,0-4.615,0.903-6.423,2.712S0,61.479,0,63.953v54.817
			c0,2.475,0.903,4.615,2.712,6.424s3.949,2.712,6.423,2.712H502.49c2.478,0,4.616-0.9,6.427-2.712
			c1.81-1.809,2.71-3.949,2.71-6.424V63.953C511.626,61.479,510.723,59.338,508.917,57.529z"/>
	</g>
</g>
<g>
</g>
<g>
</g>
<g>
</g>
<g>
</g>
<g>
</g>
<g>
</g>
<g>
</g>
<g>
</g>
<g>
</g>
<g>
</g>
<g>
</g>
<g>
</g>
<g>
</g>
<g>
</g>
<g>
</g>
</svg>
