<?xml version="1.0" encoding="iso-8859-1"?>
<!-- Generator: Adobe Illustrator 16.0.0, SVG Export Plug-In . SVG Version: 6.00 Build 0)  -->
<!DOCTYPE svg PUBLIC "-//W3C//DTD SVG 1.1//EN" "http://www.w3.org/Graphics/SVG/1.1/DTD/svg11.dtd">
<svg version="1.1" id="Capa_1" xmlns="http://www.w3.org/2000/svg" xmlns:xlink="http://www.w3.org/1999/xlink" x="0px" y="0px"
	 width="438.533px" height="438.533px" viewBox="0 0 438.533 438.533" style="enable-background:new 0 0 438.533 438.533;"
	 xml:space="preserve">
<g>
	<g>
		<path d="M409.133,109.203c-19.608-33.592-46.205-60.189-79.798-79.796C295.736,9.801,259.058,0,219.273,0
			c-39.781,0-76.47,9.801-110.063,29.407c-33.595,19.604-60.192,46.201-79.8,79.796C9.801,142.8,0,179.489,0,219.267
			c0,39.78,9.804,76.463,29.407,110.062c19.607,33.592,46.204,60.189,79.799,79.798c33.597,19.605,70.283,29.407,110.063,29.407
			s76.47-9.802,110.065-29.407c33.593-19.602,60.189-46.206,79.795-79.798c19.603-33.596,29.403-70.284,29.403-110.062
			C438.533,179.485,428.732,142.795,409.133,109.203z M353.742,297.208c-13.894,23.791-32.736,42.64-56.527,56.534
			c-23.791,13.894-49.771,20.834-77.945,20.834c-28.167,0-54.149-6.94-77.943-20.834c-23.791-13.895-42.633-32.743-56.527-56.534
			c-13.897-23.791-20.843-49.772-20.843-77.941c0-28.171,6.949-54.152,20.843-77.943c13.891-23.791,32.738-42.637,56.527-56.53
			c23.791-13.895,49.772-20.84,77.943-20.84c28.173,0,54.154,6.945,77.945,20.84c23.791,13.894,42.634,32.739,56.527,56.53
			c13.895,23.791,20.838,49.772,20.838,77.943C374.58,247.436,367.637,273.417,353.742,297.208z"/>
		<path d="M319.767,182.728h-100.5V127.91c0-2.474-0.903-4.616-2.712-6.423c-1.809-1.809-3.949-2.712-6.423-2.712
			c-2.664,0-4.854,0.854-6.567,2.568l-91.361,91.36c-1.709,1.714-2.568,3.901-2.568,6.567c0,2.667,0.855,4.854,2.568,6.565
			l91.078,91.078c2.284,1.902,4.57,2.847,6.854,2.847c2.662,0,4.853-0.855,6.567-2.566c1.713-1.711,2.568-3.895,2.568-6.563v-54.816
			h100.503c2.471,0,4.613-0.903,6.42-2.71c1.808-1.811,2.711-3.953,2.711-6.42V191.86c0-2.475-0.907-4.62-2.711-6.42
			C324.38,183.631,322.238,182.728,319.767,182.728z"/>
	</g>
</g>
<g>
</g>
<g>
</g>
<g>
</g>
<g>
</g>
<g>
</g>
<g>
</g>
<g>
</g>
<g>
</g>
<g>
</g>
<g>
</g>
<g>
</g>
<g>
</g>
<g>
</g>
<g>
</g>
<g>
</g>
</svg>
