<?xml version="1.0" encoding="iso-8859-1"?>
<!-- Generator: Adobe Illustrator 16.0.0, SVG Export Plug-In . SVG Version: 6.00 Build 0)  -->
<!DOCTYPE svg PUBLIC "-//W3C//DTD SVG 1.1//EN" "http://www.w3.org/Graphics/SVG/1.1/DTD/svg11.dtd">
<svg version="1.1" id="Capa_1" xmlns="http://www.w3.org/2000/svg" xmlns:xlink="http://www.w3.org/1999/xlink" x="0px" y="0px"
	 width="438.526px" height="438.526px" viewBox="0 0 438.526 438.526" style="enable-background:new 0 0 438.526 438.526;"
	 xml:space="preserve">
<g>
	<path d="M435.817,159.743c-1.707-14.939-4.093-26.215-7.139-33.832c-0.373-1.141-0.995-2.76-1.852-4.856
		c-0.855-2.093-1.471-3.614-1.851-4.567c-0.384-0.95-0.764-2.238-1.144-3.857c-0.373-1.617-0.66-3.235-0.855-4.854
		c-0.191-1.618-0.287-3.377-0.287-5.28c0-4.38,0.482-10.854,1.431-19.417c0.947-8.562,1.42-15.034,1.42-19.414
		c0-15.987-3.524-28.789-10.561-38.4c-7.043-9.612-18.278-14.417-33.688-14.417c-3.805,0-9.328,0.477-16.566,1.427
		c-7.23,0.95-12.658,1.425-16.269,1.425c-11.044,0-27.556-2.281-49.543-6.851C276.931,2.281,260.23,0,248.813,0
		c-23.223,0-53.298,7.421-90.227,22.267c-29.314,11.609-51.394,23.029-66.238,34.261c-16.37,12.369-30.642,27.218-42.827,44.536
		c-12.181,17.325-21.748,35.785-28.693,55.393c-6.945,19.599-12.132,39.538-15.559,59.811c-3.424,20.269-5.138,40.97-5.138,62.098
		c0,7.803,1.192,19.363,3.571,34.688c2.38,15.324,3.568,26.788,3.568,34.399c0,4.38-1.044,10.749-3.14,19.13
		c-2.096,8.377-3.14,14.842-3.14,19.41c0,13.895,4.805,26.125,14.417,36.692c9.611,10.562,21.365,15.842,35.26,15.842
		c4.759,0,11.753-1.387,20.983-4.142c9.235-2.758,16.13-4.144,20.701-4.144c10.657,0,26.741,1.386,48.249,4.144
		c21.51,2.755,37.687,4.142,48.535,4.142c38.454,0,69.479-4.186,93.078-12.563c29.499-10.465,56.254-27.647,80.236-51.534
		c23.982-23.89,42.633-51.298,55.959-82.228c13.319-30.926,19.985-62.102,19.985-93.505
		C438.395,187.661,437.528,174.681,435.817,159.743z M384.865,277.797c-11.327,26.27-27.124,49.629-47.39,70.093
		c-20.273,20.465-42.688,34.975-67.239,43.537c-19.605,6.858-46.632,10.283-81.086,10.283c-10.848,0-26.979-1.471-48.393-4.425
		c-21.416-2.949-37.546-4.428-48.395-4.428c-4.758,0-11.75,1.047-20.985,3.138c-9.233,2.098-16.134,3.139-20.699,3.139
		c-4.189,0-7.426-1.383-9.707-4.142c-2.284-2.758-3.427-6.234-3.427-10.424c0-4.191,1.044-10.424,3.14-18.705
		c2.093-8.274,3.14-14.605,3.14-18.986c0-7.799-1.191-19.314-3.571-34.536c-2.38-15.229-3.567-26.646-3.567-34.263
		c0-24.558,2.331-48.205,6.995-70.947c4.661-22.747,13.035-45.205,25.122-67.38c12.087-22.176,27.268-40.205,45.539-54.103
		c12.373-9.329,31.599-19.127,57.673-29.409c10.66-4.187,19.174-7.426,25.553-9.707c6.374-2.285,14.466-4.521,24.264-6.711
		c9.803-2.19,18.796-3.284,26.981-3.284c11.231,0,27.884,2.281,49.964,6.851s38.828,6.851,50.251,6.851
		c3.806,0,9.421-0.428,16.844-1.283c7.43-0.857,12.942-1.285,16.563-1.285c1.718,0,2.957,0.094,3.716,0.288
		c1.903,3.422,2.848,8.655,2.848,15.696c0,4.187-0.479,10.61-1.431,19.273c-0.947,8.658-1.417,15.176-1.417,19.556
		c0,4.948,0.37,9.565,1.144,13.846c0.756,4.283,1.612,7.755,2.56,10.422c0.955,2.667,2.577,6.851,4.853,12.563
		c2.102,5.137,3.806,14.321,5.147,27.55c1.334,13.227,1.991,24.03,1.991,32.404C401.846,225.35,396.186,251.521,384.865,277.797z"/>
</g>
<g>
</g>
<g>
</g>
<g>
</g>
<g>
</g>
<g>
</g>
<g>
</g>
<g>
</g>
<g>
</g>
<g>
</g>
<g>
</g>
<g>
</g>
<g>
</g>
<g>
</g>
<g>
</g>
<g>
</g>
</svg>
