<?xml version="1.0" encoding="iso-8859-1"?>
<!-- Generator: Adobe Illustrator 16.0.0, SVG Export Plug-In . SVG Version: 6.00 Build 0)  -->
<!DOCTYPE svg PUBLIC "-//W3C//DTD SVG 1.1//EN" "http://www.w3.org/Graphics/SVG/1.1/DTD/svg11.dtd">
<svg version="1.1" id="Capa_1" xmlns="http://www.w3.org/2000/svg" xmlns:xlink="http://www.w3.org/1999/xlink" x="0px" y="0px"
	 width="401.984px" height="401.984px" viewBox="0 0 401.984 401.984" style="enable-background:new 0 0 401.984 401.984;"
	 xml:space="preserve">
<g>
	<path d="M254.381,249.523c38.068,0,69.138-11.607,93.216-34.824c24.079-23.224,36.118-53.204,36.118-89.936
		c0-36.735-12.039-66.715-36.111-89.931C323.519,11.61,292.452,0,254.381,0H100.493c-2.663,0-4.853,0.859-6.567,2.568
		c-1.709,1.714-2.568,3.901-2.568,6.567V188.72H27.404c-2.666,0-4.853,0.9-6.567,2.708c-1.709,1.812-2.568,3.949-2.568,6.424v42.541
		c0,2.669,0.855,4.853,2.568,6.57c1.714,1.711,3.904,2.566,6.567,2.566h63.953v33.681H27.404c-2.666,0-4.853,0.862-6.567,2.574
		c-1.709,1.707-2.568,3.897-2.568,6.563v36.549c0,2.662,0.855,4.853,2.568,6.563c1.714,1.711,3.904,2.57,6.567,2.57h63.953v54.819
		c0,2.662,0.856,4.853,2.568,6.563c1.715,1.711,3.905,2.57,6.567,2.57h47.681c2.473,0,4.615-0.859,6.424-2.57
		c1.807-1.711,2.712-3.901,2.712-6.563v-54.819h144.184c2.663,0,4.854-0.859,6.564-2.57s2.566-3.901,2.566-6.563v-36.553
		c0-2.662-0.855-4.853-2.566-6.57c-1.711-1.708-3.901-2.563-6.564-2.563H157.31v-33.688H254.381z M157.31,60.807h91.356
		c20.177,0,36.449,5.901,48.823,17.699c12.371,11.803,18.562,27.218,18.562,46.254c0,19.036-6.184,34.451-18.555,46.249
		c-12.375,11.8-28.654,17.705-48.824,17.705H157.31V60.807z"/>
</g>
<g>
</g>
<g>
</g>
<g>
</g>
<g>
</g>
<g>
</g>
<g>
</g>
<g>
</g>
<g>
</g>
<g>
</g>
<g>
</g>
<g>
</g>
<g>
</g>
<g>
</g>
<g>
</g>
<g>
</g>
</svg>
