<?xml version="1.0" encoding="iso-8859-1"?>
<!-- Generator: Adobe Illustrator 16.0.0, SVG Export Plug-In . SVG Version: 6.00 Build 0)  -->
<!DOCTYPE svg PUBLIC "-//W3C//DTD SVG 1.1//EN" "http://www.w3.org/Graphics/SVG/1.1/DTD/svg11.dtd">
<svg version="1.1" id="Capa_1" xmlns="http://www.w3.org/2000/svg" xmlns:xlink="http://www.w3.org/1999/xlink" x="0px" y="0px"
	 width="401.71px" height="401.71px" viewBox="0 0 401.71 401.71" style="enable-background:new 0 0 401.71 401.71;"
	 xml:space="preserve">
<g>
	<path d="M342.602,115.914L251.24,6.28C247.812,2.096,243.144,0,237.254,0c-5.899,0-10.564,2.093-13.99,6.28l-91.363,109.634
		c-4.947,5.905-5.802,12.371-2.568,19.414c3.427,7.044,8.951,10.566,16.562,10.566h54.821v182.723h-91.363
		c-3.046,0-5.426,1.048-7.139,3.142l-45.683,54.816c-2.284,2.854-2.663,6.19-1.143,9.996c1.525,3.433,4.283,5.14,8.282,5.14h200.995
		c2.67,0,4.853-0.852,6.567-2.562c1.711-1.715,2.566-3.901,2.566-6.571V145.897h54.819c7.615,0,13.131-3.521,16.563-10.566
		C348.604,128.481,347.745,122.009,342.602,115.914z"/>
</g>
<g>
</g>
<g>
</g>
<g>
</g>
<g>
</g>
<g>
</g>
<g>
</g>
<g>
</g>
<g>
</g>
<g>
</g>
<g>
</g>
<g>
</g>
<g>
</g>
<g>
</g>
<g>
</g>
<g>
</g>
</svg>
