<?xml version="1.0" encoding="iso-8859-1"?>
<!-- Generator: Adobe Illustrator 16.0.0, SVG Export Plug-In . SVG Version: 6.00 Build 0)  -->
<!DOCTYPE svg PUBLIC "-//W3C//DTD SVG 1.1//EN" "http://www.w3.org/Graphics/SVG/1.1/DTD/svg11.dtd">
<svg version="1.1" id="Capa_1" xmlns="http://www.w3.org/2000/svg" xmlns:xlink="http://www.w3.org/1999/xlink" x="0px" y="0px"
	 width="438.536px" height="438.536px" viewBox="0 0 438.536 438.536" style="enable-background:new 0 0 438.536 438.536;"
	 xml:space="preserve">
<g>
	<g>
		<path d="M352.733,75.226c-8.466-16.271-19.599-29.787-33.394-40.541c-13.801-10.752-29.413-19.223-46.821-25.41
			C255.1,3.094,237.349,0,219.266,0s-35.832,3.09-53.247,9.276c-17.417,6.187-33.025,14.657-46.826,25.41
			c-13.796,10.754-24.932,24.267-33.402,40.541c-8.47,16.274-12.703,33.83-12.703,52.677c0,29.502,9.805,55.006,29.409,76.516
			c8.567,9.324,15.656,17.604,21.271,24.838c5.617,7.228,11.279,16.316,16.989,27.261c5.708,10.944,8.945,21.176,9.707,30.696
			c-8.947,5.332-13.418,13.135-13.418,23.415c0,7.042,2.378,13.134,7.139,18.274c-4.76,5.14-7.139,11.231-7.139,18.273
			c0,9.897,4.285,17.604,12.85,23.131c-2.478,4.373-3.715,8.847-3.715,13.415c0,8.754,2.996,15.516,8.992,20.27
			c5.992,4.757,13.369,7.139,22.126,7.139c3.806,8.374,9.519,15.037,17.13,19.985s15.891,7.419,24.838,7.419
			c8.949,0,17.227-2.471,24.838-7.419c7.614-4.948,13.329-11.611,17.135-19.985c8.754,0,16.132-2.382,22.124-7.139
			c5.995-4.754,8.99-11.516,8.99-20.27c0-4.568-1.239-9.042-3.717-13.415c8.562-5.523,12.851-13.233,12.851-23.131
			c0-7.042-2.382-13.134-7.139-18.273c4.757-5.141,7.139-11.232,7.139-18.274c0-10.28-4.474-18.083-13.422-23.415
			c0.763-9.521,4-19.752,9.708-30.696c5.719-10.944,11.376-20.033,16.995-27.261c5.619-7.234,12.706-15.515,21.265-24.838
			c19.605-21.51,29.414-47.014,29.414-76.516C365.447,109.056,361.211,91.5,352.733,75.226z M309.484,179.292
			c-1.906,2.093-4.808,5.232-8.709,9.421c-3.898,4.187-6.8,7.324-8.703,9.419c-24.362,29.126-37.78,57.482-40.255,85.078h-65.1
			c-2.474-27.596-15.891-55.952-40.256-85.078c-1.903-2.093-4.805-5.232-8.709-9.419c-3.899-4.189-6.805-7.325-8.708-9.421
			c-12.941-15.037-19.414-32.168-19.414-51.389c0-13.706,3.284-26.458,9.851-38.262c6.571-11.801,15.136-21.458,25.697-28.979
			c10.562-7.521,22.266-13.418,35.116-17.701c12.847-4.286,25.837-6.423,38.972-6.423s26.125,2.137,38.971,6.423
			c12.847,4.283,24.551,10.181,35.115,17.701c10.561,7.52,19.13,17.181,25.693,28.979c6.563,11.803,9.853,24.556,9.853,38.262
			C328.898,147.124,322.427,164.255,309.484,179.292z"/>
		<path d="M247.674,86.795c-9.418-3.046-18.891-4.57-28.404-4.57c-2.474,0-4.615,0.9-6.423,2.712
			c-1.809,1.809-2.712,3.949-2.712,6.423s0.904,4.615,2.712,6.423c1.809,1.805,3.949,2.712,6.423,2.712
			c9.9,0,19.985,2.38,30.272,7.135c10.273,4.758,15.406,11.516,15.406,20.273c0,2.473,0.9,4.618,2.711,6.423
			c1.813,1.804,3.949,2.708,6.42,2.708c2.478,0,4.616-0.901,6.427-2.708c1.811-1.809,2.71-3.951,2.71-6.423
			c0-9.9-3.572-18.464-10.704-25.693C265.38,94.98,257.095,89.835,247.674,86.795z"/>
	</g>
</g>
<g>
</g>
<g>
</g>
<g>
</g>
<g>
</g>
<g>
</g>
<g>
</g>
<g>
</g>
<g>
</g>
<g>
</g>
<g>
</g>
<g>
</g>
<g>
</g>
<g>
</g>
<g>
</g>
<g>
</g>
</svg>
