<?xml version="1.0" encoding="iso-8859-1"?>
<!-- Generator: Adobe Illustrator 16.0.0, SVG Export Plug-In . SVG Version: 6.00 Build 0)  -->
<!DOCTYPE svg PUBLIC "-//W3C//DTD SVG 1.1//EN" "http://www.w3.org/Graphics/SVG/1.1/DTD/svg11.dtd">
<svg version="1.1" id="Capa_1" xmlns="http://www.w3.org/2000/svg" xmlns:xlink="http://www.w3.org/1999/xlink" x="0px" y="0px"
	 width="502.496px" height="502.497px" viewBox="0 0 502.496 502.497" style="enable-background:new 0 0 502.496 502.497;"
	 xml:space="preserve">
<g>
	<g>
		<path d="M251.249,127.907c17.7,0,32.781-6.232,45.254-18.7c12.467-12.467,18.699-27.554,18.699-45.253
			c0-17.705-6.232-32.783-18.699-45.255C284.029,6.233,268.948,0,251.249,0c-17.705,0-32.79,6.23-45.254,18.699
			c-12.465,12.469-18.699,27.55-18.699,45.255c0,17.703,6.23,32.789,18.699,45.253C218.462,121.671,233.549,127.907,251.249,127.907
			z"/>
		<path d="M381.438,153.029c-10.663-10.657-23.599-15.987-38.827-15.987H159.889c-15.23,0-28.171,5.327-38.831,15.987
			c-10.657,10.66-15.987,23.604-15.987,38.831v118.776c0,7.611,2.663,14.079,7.993,19.407s11.803,7.994,19.414,7.994
			c7.614,0,14.087-2.666,19.417-7.994c5.327-5.328,7.994-11.796,7.994-19.407V210.134h18.271v260.379
			c0,8.754,3.144,16.275,9.423,22.559c6.28,6.276,13.796,9.418,22.554,9.418s16.278-3.142,22.557-9.418
			c6.28-6.283,9.42-13.802,9.42-22.559V338.038h18.27V470.52c0,8.75,3.141,16.275,9.421,22.552
			c6.279,6.283,13.802,9.425,22.556,9.425c8.76,0,16.279-3.142,22.559-9.425c6.283-6.283,9.418-13.798,9.418-22.552V210.134h18.274
			v100.495c0,7.618,2.665,14.086,7.994,19.411c5.328,5.331,11.799,7.994,19.41,7.994c7.61,0,14.093-2.663,19.417-7.994
			c5.328-5.325,7.994-11.793,7.994-19.411V191.86C397.43,176.63,392.095,163.689,381.438,153.029z"/>
	</g>
</g>
<g>
</g>
<g>
</g>
<g>
</g>
<g>
</g>
<g>
</g>
<g>
</g>
<g>
</g>
<g>
</g>
<g>
</g>
<g>
</g>
<g>
</g>
<g>
</g>
<g>
</g>
<g>
</g>
<g>
</g>
</svg>
