<?xml version="1.0" encoding="iso-8859-1"?>
<!-- Generator: Adobe Illustrator 16.0.0, SVG Export Plug-In . SVG Version: 6.00 Build 0)  -->
<!DOCTYPE svg PUBLIC "-//W3C//DTD SVG 1.1//EN" "http://www.w3.org/Graphics/SVG/1.1/DTD/svg11.dtd">
<svg version="1.1" id="Capa_1" xmlns="http://www.w3.org/2000/svg" xmlns:xlink="http://www.w3.org/1999/xlink" x="0px" y="0px"
	 width="501.21px" height="501.21px" viewBox="0 0 501.21 501.21" style="enable-background:new 0 0 501.21 501.21;"
	 xml:space="preserve">
<g>
	<path d="M498.212,159.954c-4.001-18.177-11.707-34.211-23.131-48.105c-11.231-13.899-25.262-24.699-42.109-32.408
		c-16.851-7.707-34.886-11.562-54.102-11.562H14.564l43.681,93.362L0,433.331h95.355l58.245-272.09h81.658l-58.245,272.09h95.356
		l58.245-272.09h48.253c10.656,0,18.555,3.136,23.695,9.419c5.338,6.09,6.762,14.465,4.291,25.125l-50.819,237.539h95.355
		l46.822-217.841C502.209,196.641,502.209,178.127,498.212,159.954z"/>
</g>
<g>
</g>
<g>
</g>
<g>
</g>
<g>
</g>
<g>
</g>
<g>
</g>
<g>
</g>
<g>
</g>
<g>
</g>
<g>
</g>
<g>
</g>
<g>
</g>
<g>
</g>
<g>
</g>
<g>
</g>
</svg>
