<?xml version="1.0" encoding="iso-8859-1"?>
<!-- Generator: Adobe Illustrator 16.0.0, SVG Export Plug-In . SVG Version: 6.00 Build 0)  -->
<!DOCTYPE svg PUBLIC "-//W3C//DTD SVG 1.1//EN" "http://www.w3.org/Graphics/SVG/1.1/DTD/svg11.dtd">
<svg version="1.1" id="Capa_1" xmlns="http://www.w3.org/2000/svg" xmlns:xlink="http://www.w3.org/1999/xlink" x="0px" y="0px"
	 width="438.533px" height="438.533px" viewBox="0 0 438.533 438.533" style="enable-background:new 0 0 438.533 438.533;"
	 xml:space="preserve">
<g>
	<g>
		<path d="M409.133,109.203c-19.608-33.592-46.205-60.189-79.798-79.796C295.736,9.801,259.058,0,219.273,0
			c-39.781,0-76.47,9.801-110.063,29.407c-33.595,19.604-60.192,46.201-79.8,79.796C9.801,142.8,0,179.489,0,219.267
			c0,39.78,9.804,76.463,29.407,110.062c19.607,33.592,46.204,60.189,79.799,79.798c33.597,19.605,70.283,29.407,110.063,29.407
			s76.47-9.802,110.065-29.407c33.593-19.602,60.189-46.206,79.795-79.798c19.603-33.596,29.403-70.284,29.403-110.062
			C438.533,179.485,428.732,142.795,409.133,109.203z M387.434,290.213c-9.709,22.556-22.696,41.97-38.969,58.245
			c-16.271,16.269-35.689,29.26-58.245,38.965c-22.555,9.712-46.202,14.564-70.946,14.564c-24.744,0-48.391-4.853-70.948-14.564
			c-22.554-9.705-41.971-22.696-58.245-38.965c-16.269-16.275-29.259-35.687-38.97-58.245
			c-9.707-22.552-14.562-46.206-14.562-70.946c0-24.744,4.854-48.391,14.562-70.948c9.707-22.554,22.697-41.968,38.97-58.245
			c16.274-16.269,35.691-29.26,58.245-38.97c22.554-9.704,46.205-14.558,70.948-14.558c24.74,0,48.395,4.851,70.946,14.558
			c22.556,9.707,41.97,22.698,58.245,38.97c16.272,16.274,29.26,35.688,38.969,58.245c9.709,22.554,14.564,46.201,14.564,70.948
			C402.002,244.011,397.143,267.664,387.434,290.213z"/>
		<path d="M310.633,255.813H127.911c-4.952,0-9.235,1.811-12.851,5.424c-3.617,3.617-5.426,7.898-5.426,12.847
			c0,4.949,1.809,9.233,5.426,12.848c3.619,3.617,7.902,5.427,12.851,5.427h182.716c4.948,0,9.236-1.81,12.847-5.427
			c3.62-3.614,5.431-7.898,5.431-12.848c0-4.948-1.804-9.229-5.424-12.847C319.87,257.62,315.582,255.813,310.633,255.813z"/>
		<path d="M146.181,182.725c10.085,0,18.699-3.576,25.837-10.709c7.139-7.135,10.708-15.749,10.708-25.837
			c0-10.089-3.569-18.699-10.708-25.837s-15.752-10.709-25.837-10.709c-10.088,0-18.702,3.571-25.84,10.709
			c-7.135,7.139-10.707,15.749-10.707,25.837c0,10.088,3.568,18.702,10.707,25.837C127.482,179.152,136.093,182.725,146.181,182.725
			z"/>
		<path d="M292.359,109.631c-10.089,0-18.706,3.571-25.845,10.709c-7.132,7.139-10.708,15.749-10.708,25.837
			c0,10.088,3.576,18.702,10.708,25.837c7.139,7.137,15.756,10.709,25.845,10.709c10.081,0,18.698-3.576,25.837-10.709
			c7.139-7.135,10.708-15.749,10.708-25.837c0-10.089-3.569-18.699-10.708-25.837S302.44,109.631,292.359,109.631z"/>
	</g>
</g>
<g>
</g>
<g>
</g>
<g>
</g>
<g>
</g>
<g>
</g>
<g>
</g>
<g>
</g>
<g>
</g>
<g>
</g>
<g>
</g>
<g>
</g>
<g>
</g>
<g>
</g>
<g>
</g>
<g>
</g>
</svg>
