<?xml version="1.0" encoding="iso-8859-1"?>
<!-- Generator: Adobe Illustrator 16.0.0, SVG Export Plug-In . SVG Version: 6.00 Build 0)  -->
<!DOCTYPE svg PUBLIC "-//W3C//DTD SVG 1.1//EN" "http://www.w3.org/Graphics/SVG/1.1/DTD/svg11.dtd">
<svg version="1.1" id="Capa_1" xmlns="http://www.w3.org/2000/svg" xmlns:xlink="http://www.w3.org/1999/xlink" x="0px" y="0px"
	 width="436.256px" height="436.257px" viewBox="0 0 436.256 436.257" style="enable-background:new 0 0 436.256 436.257;"
	 xml:space="preserve">
<g>
	<path d="M389.428,290.661l-165.879-165.88c-11.613-11.992-25.792-17.987-42.541-17.987c-15.608,0-28.833,5.424-39.684,16.274
		c-10.854,10.848-16.277,24.078-16.277,39.687c0,16.75,5.996,30.931,17.987,42.541l117.06,117.058
		c1.902,1.903,4.001,2.854,6.283,2.854c3.046,0,7.519-2.953,13.415-8.85c5.899-5.899,8.846-10.376,8.846-13.422
		c0-2.279-0.947-4.374-2.851-6.279L168.731,179.599c-4.758-5.14-7.137-10.754-7.137-16.844c0-5.523,1.807-10.09,5.424-13.706
		c3.615-3.617,8.186-5.424,13.706-5.424c6.471,0,12.18,2.281,17.131,6.849l165.875,165.88
		c11.998,11.988,17.994,25.786,17.994,41.392c0,12.189-4.001,22.274-11.992,30.266c-8,7.994-18.082,11.998-30.269,11.998
		c-15.608,0-29.406-6.003-41.391-17.994L76.513,160.178c-14.466-14.465-21.695-31.692-21.695-51.678
		c0-20.177,6.945-37.404,20.841-51.678c13.894-14.272,30.928-21.411,51.106-21.411c19.412,0,36.636,7.328,51.673,21.979
		l173.018,173.302c1.902,1.906,4.09,2.851,6.567,2.851c3.046,0,7.474-2.902,13.274-8.706c5.808-5.804,8.703-10.229,8.703-13.274
		c0-2.281-0.948-4.377-2.848-6.28L204.419,32.264C182.531,10.756,156.552,0,126.478,0c-30.264,0-55.863,10.566-76.8,31.693
		C28.739,52.821,18.271,78.518,18.271,108.78c0,29.692,10.752,55.483,32.26,77.372l221.842,221.557
		c19.033,19.027,41.394,28.548,67.091,28.548c22.269,0,40.926-7.521,55.959-22.559c15.037-15.03,22.562-33.688,22.562-55.963
		C417.979,331.662,408.458,309.302,389.428,290.661z"/>
</g>
<g>
</g>
<g>
</g>
<g>
</g>
<g>
</g>
<g>
</g>
<g>
</g>
<g>
</g>
<g>
</g>
<g>
</g>
<g>
</g>
<g>
</g>
<g>
</g>
<g>
</g>
<g>
</g>
<g>
</g>
</svg>
