<?xml version="1.0" encoding="iso-8859-1"?>
<!-- Generator: Adobe Illustrator 16.0.0, SVG Export Plug-In . SVG Version: 6.00 Build 0)  -->
<!DOCTYPE svg PUBLIC "-//W3C//DTD SVG 1.1//EN" "http://www.w3.org/Graphics/SVG/1.1/DTD/svg11.dtd">
<svg version="1.1" id="Capa_1" xmlns="http://www.w3.org/2000/svg" xmlns:xlink="http://www.w3.org/1999/xlink" x="0px" y="0px"
	 width="438.557px" height="438.557px" viewBox="0 0 438.557 438.557" style="enable-background:new 0 0 438.557 438.557;"
	 xml:space="preserve">
<g>
	<path d="M414.418,24.128C398.341,8.047,378.972,0.005,356.323,0.005V0H82.239C59.591,0,40.222,8.044,24.138,24.125
		C8.057,40.209,0.015,59.578,0.015,82.226v274.089c0,22.647,8.042,42.018,24.123,58.095c16.084,16.084,35.454,24.126,58.102,24.126
		h52.25c-3.239-29.304-2.573-53.481,1.997-72.512l27.978-118.198c-4.568-9.329-6.854-20.841-6.854-34.543
		c0-15.796,4.045-29.075,12.137-39.827c8.086-10.757,17.937-16.134,29.547-16.134c9.326,0,16.512,3.092,21.554,9.276
		c5.041,6.189,7.566,13.945,7.566,23.272c0,5.898-1.047,12.99-3.138,21.267c-2.098,8.285-4.9,17.99-8.422,29.126
		c-3.521,11.135-6.042,19.934-7.566,26.404c-2.663,11.424-0.476,21.27,6.567,29.555c7.042,8.274,16.272,12.422,27.696,12.422
		c20.177,0,36.686-11.231,49.539-33.694c12.847-22.456,19.267-49.676,19.267-81.649c0-24.551-7.946-44.54-23.846-59.955
		c-15.886-15.418-38.013-23.128-66.376-23.128c-31.78,0-57.526,10.138-77.228,30.407c-19.701,20.271-29.552,44.684-29.552,73.233
		c0,16.748,4.761,31.025,14.277,42.828c3.234,3.614,4.283,7.615,3.14,11.995c-0.953,3.237-2.38,9.041-4.283,17.412
		c-0.763,2.669-2.141,4.473-4.141,5.428c-2.002,0.951-4.237,0.951-6.711,0c-14.655-6.088-25.747-16.563-33.263-31.409
		c-7.517-14.842-11.276-31.977-11.276-51.387c0-12.564,2.047-25.179,6.14-37.831c4.093-12.66,10.422-24.841,18.986-36.545
		c8.564-11.709,18.792-22.129,30.69-31.267c11.894-9.132,26.458-16.413,43.682-21.838c17.222-5.424,35.736-8.137,55.524-8.137
		c20.181,0,38.927,3.48,56.25,10.426c17.319,6.945,31.833,16.175,43.544,27.69c11.703,11.516,20.889,24.744,27.545,39.687
		c6.666,14.938,9.996,30.406,9.996,46.392c0,43.019-10.896,78.564-32.688,106.637c-21.793,28.075-49.916,42.116-84.363,42.116
		c-11.43,0-22.128-2.666-32.124-7.994c-9.991-5.328-16.986-11.704-20.984-19.13c-8.374,33.312-13.417,53.197-15.131,59.669
		c-4.377,16.751-14.655,36.733-30.833,59.956H356.32c22.647,0,42.017-8.042,58.095-24.126
		c16.084-16.084,24.126-35.454,24.126-58.102v-274.1C438.541,59.582,430.499,40.212,414.418,24.128z"/>
</g>
<g>
</g>
<g>
</g>
<g>
</g>
<g>
</g>
<g>
</g>
<g>
</g>
<g>
</g>
<g>
</g>
<g>
</g>
<g>
</g>
<g>
</g>
<g>
</g>
<g>
</g>
<g>
</g>
<g>
</g>
</svg>
