<?xml version="1.0" encoding="iso-8859-1"?>
<!-- Generator: Adobe Illustrator 16.0.0, SVG Export Plug-In . SVG Version: 6.00 Build 0)  -->
<!DOCTYPE svg PUBLIC "-//W3C//DTD SVG 1.1//EN" "http://www.w3.org/Graphics/SVG/1.1/DTD/svg11.dtd">
<svg version="1.1" id="Capa_1" xmlns="http://www.w3.org/2000/svg" xmlns:xlink="http://www.w3.org/1999/xlink" x="0px" y="0px"
	 width="438.536px" height="438.536px" viewBox="0 0 438.536 438.536" style="enable-background:new 0 0 438.536 438.536;"
	 xml:space="preserve">
<g>
	<g>
		<path d="M414.41,24.123C398.333,8.042,378.963,0,356.315,0H82.228C59.58,0,40.21,8.042,24.126,24.123
			C8.045,40.207,0.003,59.576,0.003,82.225v274.084c0,22.647,8.042,42.018,24.123,58.102c16.084,16.084,35.454,24.126,58.102,24.126
			h274.084c22.648,0,42.018-8.042,58.095-24.126c16.084-16.084,24.126-35.454,24.126-58.102V82.225
			C438.532,59.576,430.49,40.204,414.41,24.123z M365.449,356.309c0,2.662-0.853,4.853-2.57,6.563
			c-1.708,1.711-3.897,2.567-6.563,2.567H82.228c-2.664,0-4.854-0.856-6.567-2.567c-1.711-1.711-2.568-3.901-2.568-6.563V82.221
			c0-2.664,0.854-4.854,2.568-6.567c1.713-1.711,3.903-2.568,6.567-2.568h274.084c2.67,0,4.859,0.859,6.57,2.568
			c1.712,1.713,2.561,3.903,2.561,6.567v274.088H365.449z"/>
		<path d="M302.926,204.411l-127.908-91.363c-5.901-4.377-12.181-4.853-18.842-1.425c-6.661,3.237-9.995,8.662-9.995,16.276v182.725
			c0,7.617,3.333,13.038,9.995,16.275c6.661,3.429,12.941,2.953,18.842-1.427l127.908-91.358c5.141-3.617,7.7-8.565,7.7-14.843
			C310.626,212.983,308.066,208.035,302.926,204.411z"/>
	</g>
</g>
<g>
</g>
<g>
</g>
<g>
</g>
<g>
</g>
<g>
</g>
<g>
</g>
<g>
</g>
<g>
</g>
<g>
</g>
<g>
</g>
<g>
</g>
<g>
</g>
<g>
</g>
<g>
</g>
<g>
</g>
</svg>
