<?xml version="1.0" encoding="iso-8859-1"?>
<!-- Generator: Adobe Illustrator 16.0.0, SVG Export Plug-In . SVG Version: 6.00 Build 0)  -->
<!DOCTYPE svg PUBLIC "-//W3C//DTD SVG 1.1//EN" "http://www.w3.org/Graphics/SVG/1.1/DTD/svg11.dtd">
<svg version="1.1" id="Capa_1" xmlns="http://www.w3.org/2000/svg" xmlns:xlink="http://www.w3.org/1999/xlink" x="0px" y="0px"
	 width="475.078px" height="475.077px" viewBox="0 0 475.078 475.077" style="enable-background:new 0 0 475.078 475.077;"
	 xml:space="preserve">
<g>
	<path d="M458.959,217.124c-10.759-10.758-23.654-16.134-38.69-16.134h-18.268v-73.089c0-7.611-1.91-15.99-5.719-25.122
		c-3.806-9.136-8.371-16.368-13.699-21.698L339.18,37.683c-5.328-5.325-12.56-9.895-21.692-13.704
		c-9.138-3.805-17.508-5.708-25.126-5.708H100.5c-7.614,0-14.087,2.663-19.417,7.993c-5.327,5.327-7.994,11.799-7.994,19.414V200.99
		H54.818c-15.037,0-27.932,5.379-38.688,16.134C5.376,227.876,0,240.772,0,255.81v118.773c0,2.478,0.905,4.609,2.712,6.426
		c1.809,1.804,3.951,2.707,6.423,2.707h63.954v45.68c0,7.617,2.664,14.089,7.994,19.417c5.33,5.325,11.803,7.994,19.417,7.994
		h274.083c7.611,0,14.093-2.669,19.418-7.994c5.328-5.332,7.994-11.8,7.994-19.417v-45.68h63.953c2.471,0,4.613-0.903,6.42-2.707
		c1.807-1.816,2.71-3.948,2.71-6.426V255.81C475.082,240.772,469.708,227.876,458.959,217.124z M365.449,420.262H109.636v-73.087
		h255.813V420.262z M365.449,237.537H109.636V54.816h182.726v45.679c0,7.614,2.669,14.083,7.991,19.414
		c5.328,5.33,11.799,7.993,19.417,7.993h45.679V237.537z M433.116,268.656c-3.614,3.614-7.898,5.428-12.847,5.428
		c-4.949,0-9.233-1.813-12.848-5.428c-3.613-3.61-5.42-7.898-5.42-12.847s1.807-9.232,5.42-12.847
		c3.614-3.617,7.898-5.426,12.848-5.426c4.948,0,9.232,1.809,12.847,5.426c3.613,3.614,5.427,7.898,5.427,12.847
		S436.733,265.046,433.116,268.656z"/>
</g>
<g>
</g>
<g>
</g>
<g>
</g>
<g>
</g>
<g>
</g>
<g>
</g>
<g>
</g>
<g>
</g>
<g>
</g>
<g>
</g>
<g>
</g>
<g>
</g>
<g>
</g>
<g>
</g>
<g>
</g>
</svg>
