<?xml version="1.0" encoding="iso-8859-1"?>
<!-- Generator: Adobe Illustrator 16.0.0, SVG Export Plug-In . SVG Version: 6.00 Build 0)  -->
<!DOCTYPE svg PUBLIC "-//W3C//DTD SVG 1.1//EN" "http://www.w3.org/Graphics/SVG/1.1/DTD/svg11.dtd">
<svg version="1.1" id="Capa_1" xmlns="http://www.w3.org/2000/svg" xmlns:xlink="http://www.w3.org/1999/xlink" x="0px" y="0px"
	 width="438.54px" height="438.539px" viewBox="0 0 438.54 438.539" style="enable-background:new 0 0 438.54 438.539;"
	 xml:space="preserve">
<g>
	<g>
		<path d="M182.156,140.477V2.004c-34.073,5.708-65.002,18.748-92.793,39.115c-27.79,20.367-49.632,46.015-65.524,76.944
			C7.946,148.998,0,182.258,0,217.85c0,53.293,17.227,100.403,51.676,141.325c38.831-18.843,70.283-48.01,94.361-87.508
			C170.116,232.168,182.156,188.443,182.156,140.477z"/>
		<path d="M414.697,118.056c-15.892-30.929-37.732-56.582-65.521-76.944C321.388,20.745,290.453,7.708,256.388,2v138.473
			c0,47.967,12.043,91.695,36.114,131.194c24.078,39.498,55.538,68.665,94.366,87.508c34.454-40.922,51.671-88.032,51.671-141.325
			C438.533,182.254,430.597,148.991,414.697,118.056z"/>
		<path d="M256.245,349.466c-18.556-23.599-31.173-49.107-37.831-76.52c-6.471,27.412-18.986,52.921-37.544,76.52
			c-18.559,23.596-40.968,43.681-67.237,60.237c32.548,17.891,67.475,26.836,104.781,26.836c37.495,0,72.517-8.945,105.059-26.836
			C297.214,393.146,274.806,373.065,256.245,349.466z"/>
	</g>
</g>
<g>
</g>
<g>
</g>
<g>
</g>
<g>
</g>
<g>
</g>
<g>
</g>
<g>
</g>
<g>
</g>
<g>
</g>
<g>
</g>
<g>
</g>
<g>
</g>
<g>
</g>
<g>
</g>
<g>
</g>
</svg>
