<?xml version="1.0" encoding="iso-8859-1"?>
<!-- Generator: Adobe Illustrator 16.0.0, SVG Export Plug-In . SVG Version: 6.00 Build 0)  -->
<!DOCTYPE svg PUBLIC "-//W3C//DTD SVG 1.1//EN" "http://www.w3.org/Graphics/SVG/1.1/DTD/svg11.dtd">
<svg version="1.1" id="Capa_1" xmlns="http://www.w3.org/2000/svg" xmlns:xlink="http://www.w3.org/1999/xlink" x="0px" y="0px"
	 width="548.172px" height="548.172px" viewBox="0 0 548.172 548.172" style="enable-background:new 0 0 548.172 548.172;"
	 xml:space="preserve">
<g>
	<g>
		<path d="M317.769,368.589c-1.712-2.094-4.09-3.142-7.132-3.142H146.181V255.81h54.814c4.948,0,9.233-1.809,12.847-5.426
			c3.616-3.616,5.424-7.898,5.424-12.85c0-4.565-1.431-8.47-4.283-11.704l-91.359-109.636c-3.617-4.184-8.28-6.279-13.99-6.279
			c-5.712,0-10.373,2.092-13.988,6.279L4.285,225.83C1.425,229.064,0,232.969,0,237.534c0,4.952,1.811,9.234,5.424,12.85
			c3.617,3.617,7.902,5.426,12.85,5.426h54.818v118.775v45.679v3.138v3.714c0,0.574,0.094,1.67,0.284,3.288
			c0.191,1.619,0.479,2.714,0.859,3.282c0.378,0.575,0.903,1.335,1.569,2.286c0.662,0.951,1.521,1.622,2.565,1.998
			c1.047,0.377,2.334,0.568,3.858,0.568h274.088c2.471,0,4.613-0.903,6.42-2.711c1.807-1.807,2.71-3.948,2.71-6.42
			c0-1.909-0.663-3.9-1.995-6.002L317.769,368.589z"/>
		<path d="M542.748,297.788c-3.614-3.61-7.898-5.424-12.847-5.424h-54.816V173.593V127.91v-3.14v-3.711
			c0-0.572-0.096-1.665-0.288-3.287c-0.191-1.619-0.479-2.712-0.855-3.284c-0.379-0.571-0.903-1.334-1.57-2.284
			c-0.667-0.949-1.522-1.617-2.57-1.999c-1.047-0.378-2.327-0.571-3.854-0.571H191.86c-2.474,0-4.611,0.905-6.423,2.712
			c-1.805,1.809-2.708,3.951-2.708,6.423c0,2.093,0.662,3.996,1.997,5.71l45.679,54.818c1.713,2.284,4.093,3.426,7.137,3.426
			h164.453v109.634h-54.816c-4.948,0-9.232,1.81-12.847,5.42c-3.617,3.621-5.427,7.909-5.427,12.854
			c0,4.568,1.43,8.466,4.287,11.707l91.361,109.632c3.806,4.381,8.467,6.567,13.99,6.567c5.514,0,10.174-2.187,13.983-6.567
			l91.361-109.632c2.851-3.241,4.284-7.139,4.284-11.707C548.176,305.689,546.361,301.405,542.748,297.788z"/>
	</g>
</g>
<g>
</g>
<g>
</g>
<g>
</g>
<g>
</g>
<g>
</g>
<g>
</g>
<g>
</g>
<g>
</g>
<g>
</g>
<g>
</g>
<g>
</g>
<g>
</g>
<g>
</g>
<g>
</g>
<g>
</g>
</svg>
