<?xml version="1.0" encoding="iso-8859-1"?>
<!-- Generator: Adobe Illustrator 16.0.0, SVG Export Plug-In . SVG Version: 6.00 Build 0)  -->
<!DOCTYPE svg PUBLIC "-//W3C//DTD SVG 1.1//EN" "http://www.w3.org/Graphics/SVG/1.1/DTD/svg11.dtd">
<svg version="1.1" id="Capa_1" xmlns="http://www.w3.org/2000/svg" xmlns:xlink="http://www.w3.org/1999/xlink" x="0px" y="0px"
	 width="511.633px" height="511.634px" viewBox="0 0 511.633 511.634" style="enable-background:new 0 0 511.633 511.634;"
	 xml:space="preserve">
<g>
	<path d="M507.917,36.552c-2.479-1.143-5.523,0.094-9.135,3.709L296.079,242.965c-1.718,1.524-2.957,3.333-3.717,5.424V45.681
		c0-4.948-1.239-7.994-3.716-9.137c-2.475-1.141-5.518,0.096-9.138,3.711L76.807,242.965c-1.718,1.524-2.954,3.333-3.715,5.424
		V54.816c0-4.952-1.809-9.235-5.424-12.851c-3.617-3.617-7.898-5.426-12.847-5.426H18.274c-4.952,0-9.233,1.809-12.851,5.426
		C1.809,45.585,0,49.868,0,54.816v401.992c0,4.948,1.809,9.229,5.424,12.847c3.621,3.61,7.904,5.425,12.851,5.425h36.543
		c4.948,0,9.229-1.814,12.847-5.425c3.616-3.617,5.424-7.898,5.424-12.847V263.234c0.765,1.902,2.002,3.713,3.714,5.424
		l202.712,202.709c3.613,3.62,6.656,4.862,9.131,3.72c2.477-1.144,3.716-4.189,3.716-9.138V263.237
		c0.767,1.903,1.999,3.717,3.717,5.425l202.708,202.711c3.613,3.617,6.659,4.86,9.137,3.717c2.472-1.143,3.71-4.188,3.71-9.137
		V45.688C511.63,40.739,510.388,37.693,507.917,36.552z"/>
</g>
<g>
</g>
<g>
</g>
<g>
</g>
<g>
</g>
<g>
</g>
<g>
</g>
<g>
</g>
<g>
</g>
<g>
</g>
<g>
</g>
<g>
</g>
<g>
</g>
<g>
</g>
<g>
</g>
<g>
</g>
</svg>
