<?xml version="1.0" encoding="iso-8859-1"?>
<!-- Generator: Adobe Illustrator 16.0.0, SVG Export Plug-In . SVG Version: 6.00 Build 0)  -->
<!DOCTYPE svg PUBLIC "-//W3C//DTD SVG 1.1//EN" "http://www.w3.org/Graphics/SVG/1.1/DTD/svg11.dtd">
<svg version="1.1" id="Capa_1" xmlns="http://www.w3.org/2000/svg" xmlns:xlink="http://www.w3.org/1999/xlink" x="0px" y="0px"
	 width="519.625px" height="519.625px" viewBox="0 0 519.625 519.625" style="enable-background:new 0 0 519.625 519.625;"
	 xml:space="preserve">
<g>
	<path d="M512.195,388.575L393.138,90.508c-1.523-3.617-3.997-6.757-7.42-9.419c-3.429-2.668-7.049-3.999-10.854-3.999h-96.786
		c2.472,0,4.661,0.902,6.564,2.709c1.902,1.812,2.949,3.949,3.142,6.423l4.284,54.821c0.191,2.665-0.568,4.854-2.275,6.564
		c-1.718,1.713-3.81,2.568-6.287,2.568h-47.394c-2.474,0-4.565-0.855-6.279-2.568c-1.713-1.709-2.474-3.899-2.281-6.564
		l4.283-54.821c0.188-2.474,1.233-4.611,3.14-6.423c1.903-1.804,4.09-2.709,6.567-2.709h-96.789c-3.806,0-7.423,1.331-10.85,3.999
		c-3.424,2.659-5.896,5.802-7.421,9.419L7.423,388.575C2.474,400.375,0,411.414,0,421.694c0,13.895,4.377,20.841,13.134,20.841
		H214.13c-2.474,0-4.565-0.903-6.28-2.71c-1.713-1.813-2.474-3.949-2.281-6.427l5.708-73.08c0.19-2.478,1.237-4.617,3.14-6.427
		c1.902-1.811,4.093-2.707,6.567-2.707h77.654c2.478,0,4.661,0.896,6.57,2.707c1.903,1.81,2.95,3.949,3.139,6.427l5.715,73.08
		c0.195,2.478-0.575,4.613-2.282,6.427c-1.711,1.807-3.806,2.71-6.283,2.71H506.49c8.754,0,13.135-6.946,13.135-20.841
		C519.625,411.418,517.147,400.378,512.195,388.575z M302.926,288.36c0.185,2.286-0.575,4.188-2.286,5.708
		c-1.708,1.526-3.713,2.286-5.995,2.286H224.98c-2.285,0-4.287-0.76-5.996-2.286c-1.715-1.526-2.475-3.429-2.286-5.708v-1.143
		l6.854-91.356c0.19-2.475,1.237-4.615,3.14-6.424c1.903-1.809,4.093-2.712,6.567-2.712h53.1c2.478,0,4.668,0.9,6.57,2.712
		c1.902,1.809,2.95,3.949,3.142,6.424l6.852,91.356v1.143H302.926z"/>
</g>
<g>
</g>
<g>
</g>
<g>
</g>
<g>
</g>
<g>
</g>
<g>
</g>
<g>
</g>
<g>
</g>
<g>
</g>
<g>
</g>
<g>
</g>
<g>
</g>
<g>
</g>
<g>
</g>
<g>
</g>
</svg>
