<?xml version="1.0" encoding="iso-8859-1"?>
<!-- Generator: Adobe Illustrator 16.0.0, SVG Export Plug-In . SVG Version: 6.00 Build 0)  -->
<!DOCTYPE svg PUBLIC "-//W3C//DTD SVG 1.1//EN" "http://www.w3.org/Graphics/SVG/1.1/DTD/svg11.dtd">
<svg version="1.1" id="Capa_1" xmlns="http://www.w3.org/2000/svg" xmlns:xlink="http://www.w3.org/1999/xlink" x="0px" y="0px"
	 width="438.536px" height="438.536px" viewBox="0 0 438.536 438.536" style="enable-background:new 0 0 438.536 438.536;"
	 xml:space="preserve">
<g>
	<path d="M414.41,24.123C398.333,8.042,378.963,0,356.315,0H82.228C59.58,0,40.21,8.042,24.126,24.123
		C8.045,40.207,0.003,59.576,0.003,82.225v274.084c0,22.647,8.042,42.018,24.123,58.102c16.084,16.084,35.454,24.126,58.102,24.126
		h274.084c22.648,0,42.018-8.042,58.095-24.126c16.084-16.084,24.126-35.454,24.126-58.102V82.225
		C438.532,59.576,430.49,40.204,414.41,24.123z M387.433,177.295L286.938,277.797c-3.62,3.614-7.898,5.421-12.847,5.428
		c-2.279,0-4.572-0.479-6.852-1.43c-7.617-3.238-11.423-8.851-11.423-16.845v-45.68c-26.645,0-47.967,2.233-63.953,6.708
		c-15.987,4.474-28.358,11.656-37.115,21.553c-20.177,22.655-26.078,67.663-17.703,135.046c0.572,4.565-1.237,7.707-5.426,9.418
		c-1.141,0.575-2.378,0.855-3.709,0.855c-2.858,0-5.236-1.144-7.139-3.429c-31.785-42.442-47.679-80.894-47.679-115.341
		c0-11.423,0.479-21.937,1.429-31.553c0.95-9.605,2.996-20.225,6.136-31.829c3.14-11.613,7.373-21.986,12.703-31.123
		c5.33-9.132,12.612-18.218,21.844-27.263c9.229-9.045,20.08-16.562,32.546-22.557c12.465-5.996,27.93-10.846,46.394-14.561
		c18.461-3.71,39.018-5.568,61.672-5.568V63.948c0-7.996,3.806-13.61,11.417-16.847c7.426-3.23,13.989-1.903,19.704,3.997
		l100.495,100.5c3.621,3.617,5.428,7.901,5.428,12.85C392.86,169.397,391.054,173.68,387.433,177.295z"/>
</g>
<g>
</g>
<g>
</g>
<g>
</g>
<g>
</g>
<g>
</g>
<g>
</g>
<g>
</g>
<g>
</g>
<g>
</g>
<g>
</g>
<g>
</g>
<g>
</g>
<g>
</g>
<g>
</g>
<g>
</g>
</svg>
