<?xml version="1.0" encoding="iso-8859-1"?>
<!-- Generator: Adobe Illustrator 16.0.0, SVG Export Plug-In . SVG Version: 6.00 Build 0)  -->
<!DOCTYPE svg PUBLIC "-//W3C//DTD SVG 1.1//EN" "http://www.w3.org/Graphics/SVG/1.1/DTD/svg11.dtd">
<svg version="1.1" id="Capa_1" xmlns="http://www.w3.org/2000/svg" xmlns:xlink="http://www.w3.org/1999/xlink" x="0px" y="0px"
	 width="511.63px" height="511.63px" viewBox="0 0 511.63 511.63" style="enable-background:new 0 0 511.63 511.63;"
	 xml:space="preserve">
<g>
	<g>
		<path d="M240.214,401.994h-54.816V9.139c0-2.663-0.855-4.856-2.57-6.567c-1.713-1.709-3.899-2.568-6.567-2.568h-54.816
			c-2.664,0-4.858,0.856-6.567,2.568c-1.711,1.714-2.57,3.905-2.57,6.567v392.855H57.491c-4.186,0-7.042,1.903-8.566,5.709
			c-1.524,3.62-0.854,6.95,1.999,9.999l91.36,91.365c2.096,1.704,4.283,2.56,6.567,2.56c2.475,0,4.665-0.855,6.567-2.56
			l91.076-91.078c1.908-2.282,2.857-4.571,2.857-6.848c0-2.673-0.855-4.855-2.57-6.581
			C245.068,402.85,242.881,401.994,240.214,401.994z"/>
		<path d="M407.804,292.369L407.804,292.369h-35.114l-54.823,52.814l23.421,24.55l17.7-16.556c3.425-3.433,5.899-6.379,7.419-8.854
			l1.995-3.429h0.571v4.568c0,0.955-0.055,2.57-0.144,4.856c-0.089,2.285-0.144,4.093-0.144,5.427v123.339h-47.671v32.544h133.902
			v-32.544h-47.109V292.369H407.804z"/>
		<path d="M440.062,26.98C424.452,8.992,404.946,0,381.532,0c-20.749,0-37.973,6.949-51.679,20.845
			c-13.698,13.894-20.55,30.833-20.55,50.819c0,19.224,6.369,35.642,19.13,49.249c12.758,13.611,29.212,20.417,49.389,20.417
			c8.385,0,16.427-1.334,24.133-3.999c7.7-2.667,13.562-6.189,17.56-10.566h0.571c-3.046,16.558-9.377,30.404-18.986,41.54
			c-9.609,11.134-22.415,16.702-38.403,16.702c-7.228,0-14.366-1.237-21.402-3.711c-3.046-0.759-5.995-1.809-8.85-3.14
			l-11.136,32.264c3.426,1.332,7.419,2.758,11.995,4.283c8.75,3.044,19.034,4.569,30.833,4.569c13.135,0,25.267-2.329,36.401-6.993
			c11.137-4.665,20.513-10.9,28.12-18.702c7.618-7.806,14.089-16.892,19.418-27.264c5.328-10.373,9.229-21.223,11.703-32.548
			c2.478-11.326,3.72-22.886,3.72-34.689C463.485,69,455.673,44.971,440.062,26.98z M413.516,101.929
			c-6.659,5.14-14.753,7.71-24.267,7.71c-12.939,0-22.891-3.617-29.845-10.85c-6.943-7.232-10.424-16.274-10.424-27.122
			c0-10.85,2.95-19.794,8.85-26.836c5.896-7.043,13.798-10.566,23.698-10.566c11.229,0,21.033,5.042,29.414,15.131
			c8.377,10.09,12.559,21.128,12.559,33.12C423.501,90.319,420.175,96.792,413.516,101.929z"/>
	</g>
</g>
<g>
</g>
<g>
</g>
<g>
</g>
<g>
</g>
<g>
</g>
<g>
</g>
<g>
</g>
<g>
</g>
<g>
</g>
<g>
</g>
<g>
</g>
<g>
</g>
<g>
</g>
<g>
</g>
<g>
</g>
</svg>
