<?xml version="1.0" encoding="iso-8859-1"?>
<!-- Generator: Adobe Illustrator 16.0.0, SVG Export Plug-In . SVG Version: 6.00 Build 0)  -->
<!DOCTYPE svg PUBLIC "-//W3C//DTD SVG 1.1//EN" "http://www.w3.org/Graphics/SVG/1.1/DTD/svg11.dtd">
<svg version="1.1" id="Capa_1" xmlns="http://www.w3.org/2000/svg" xmlns:xlink="http://www.w3.org/1999/xlink" x="0px" y="0px"
	 width="511.627px" height="511.627px" viewBox="0 0 511.627 511.627" style="enable-background:new 0 0 511.627 511.627;"
	 xml:space="preserve">
<g>
	<g>
		<polygon points="324.907,344.893 123.913,326.334 119.916,369.162 321.197,387.717 		"/>
		<polygon points="320.055,399.996 118.202,400.283 118.202,443.389 320.055,443.111 		"/>
		<polygon points="363.734,239.255 189.865,136.471 167.883,173.586 341.751,276.37 		"/>
		<polygon points="338.329,288.361 143.327,236.112 132.191,277.798 327.193,330.047 		"/>
		<polygon points="354.594,477.651 89.649,477.651 89.649,301.212 55.104,301.212 55.104,511.34 55.391,511.34 65.386,511.627 
			388.573,511.627 388.573,511.34 388.86,501.347 388.86,301.212 354.594,301.212 		"/>
		<polygon points="421.98,0 379.436,7.423 413.989,206.421 456.523,198.999 		"/>
		<polygon points="256.958,66.522 370.873,233.26 406.282,208.993 292.643,41.971 		"/>
	</g>
</g>
<g>
</g>
<g>
</g>
<g>
</g>
<g>
</g>
<g>
</g>
<g>
</g>
<g>
</g>
<g>
</g>
<g>
</g>
<g>
</g>
<g>
</g>
<g>
</g>
<g>
</g>
<g>
</g>
<g>
</g>
</svg>
