<?xml version="1.0" encoding="iso-8859-1"?>
<!-- Generator: Adobe Illustrator 16.0.0, SVG Export Plug-In . SVG Version: 6.00 Build 0)  -->
<!DOCTYPE svg PUBLIC "-//W3C//DTD SVG 1.1//EN" "http://www.w3.org/Graphics/SVG/1.1/DTD/svg11.dtd">
<svg version="1.1" id="Capa_1" xmlns="http://www.w3.org/2000/svg" xmlns:xlink="http://www.w3.org/1999/xlink" x="0px" y="0px"
	 width="438.53px" height="438.529px" viewBox="0 0 438.53 438.529" style="enable-background:new 0 0 438.53 438.529;"
	 xml:space="preserve">
<g>
	<g>
		<rect x="42.532" y="191.573" width="353.458" height="72.803"/>
		<path d="M42.529,284.648v18.843c0,16.173,5.474,29.93,16.418,41.251c10.944,11.32,24.128,16.987,39.543,16.987h151.039v76.8
			l74.227-76.8h16.282c15.414,0,28.603-5.66,39.547-16.987C390.529,333.421,396,319.664,396,303.491v-18.843H42.529z"/>
		<rect x="42.532" y="97.927" width="353.458" height="72.802"/>
		<path d="M395.991,57.956c0-15.988-5.469-29.643-16.413-40.968S355.448,0,340.031,0H98.493C83.078,0,69.894,5.662,58.95,16.988
			S42.532,41.971,42.532,57.956v19.126h353.458V57.956z"/>
	</g>
</g>
<g>
</g>
<g>
</g>
<g>
</g>
<g>
</g>
<g>
</g>
<g>
</g>
<g>
</g>
<g>
</g>
<g>
</g>
<g>
</g>
<g>
</g>
<g>
</g>
<g>
</g>
<g>
</g>
<g>
</g>
</svg>
