<?xml version="1.0" encoding="iso-8859-1"?>
<!-- Generator: Adobe Illustrator 16.0.0, SVG Export Plug-In . SVG Version: 6.00 Build 0)  -->
<!DOCTYPE svg PUBLIC "-//W3C//DTD SVG 1.1//EN" "http://www.w3.org/Graphics/SVG/1.1/DTD/svg11.dtd">
<svg version="1.1" id="Capa_1" xmlns="http://www.w3.org/2000/svg" xmlns:xlink="http://www.w3.org/1999/xlink" x="0px" y="0px"
	 width="475.075px" height="475.075px" viewBox="0 0 475.075 475.075" style="enable-background:new 0 0 475.075 475.075;"
	 xml:space="preserve">
<g>
	<path d="M475.075,186.573c0-7.043-5.328-11.42-15.992-13.135L315.766,152.6L251.529,22.694c-3.614-7.804-8.281-11.704-13.99-11.704
		c-5.708,0-10.372,3.9-13.989,11.704L159.31,152.6L15.986,173.438C5.33,175.153,0,179.53,0,186.573c0,3.999,2.38,8.567,7.139,13.706
		l103.924,101.068L86.51,444.096c-0.381,2.666-0.57,4.575-0.57,5.712c0,3.997,0.998,7.374,2.996,10.136
		c1.997,2.766,4.993,4.142,8.992,4.142c3.428,0,7.233-1.137,11.42-3.423l128.188-67.386l128.194,67.379
		c4,2.286,7.806,3.43,11.416,3.43c7.812,0,11.714-4.75,11.714-14.271c0-2.471-0.096-4.374-0.287-5.716l-24.551-142.744
		l103.634-101.069C472.604,195.33,475.075,190.76,475.075,186.573z M324.619,288.5l20.551,120.2l-107.634-56.821L129.614,408.7
		l20.843-120.2l-87.365-84.799l120.484-17.7l53.959-109.064l53.957,109.064l120.494,17.7L324.619,288.5z"/>
</g>
<g>
</g>
<g>
</g>
<g>
</g>
<g>
</g>
<g>
</g>
<g>
</g>
<g>
</g>
<g>
</g>
<g>
</g>
<g>
</g>
<g>
</g>
<g>
</g>
<g>
</g>
<g>
</g>
<g>
</g>
</svg>
