<?xml version="1.0" encoding="iso-8859-1"?>
<!-- Generator: Adobe Illustrator 16.0.0, SVG Export Plug-In . SVG Version: 6.00 Build 0)  -->
<!DOCTYPE svg PUBLIC "-//W3C//DTD SVG 1.1//EN" "http://www.w3.org/Graphics/SVG/1.1/DTD/svg11.dtd">
<svg version="1.1" id="Capa_1" xmlns="http://www.w3.org/2000/svg" xmlns:xlink="http://www.w3.org/1999/xlink" x="0px" y="0px"
	 width="438.536px" height="438.536px" viewBox="0 0 438.536 438.536" style="enable-background:new 0 0 438.536 438.536;"
	 xml:space="preserve">
<g>
	<path d="M404.272,125.623c-10.663-10.657-23.605-15.987-38.834-15.987c-15.222,0-28.164,5.33-38.828,15.987
		c-10.656,10.66-15.984,23.601-15.984,38.831c0,11.8,3.377,22.366,10.133,31.689c6.762,9.329,15.561,15.986,26.412,19.985v112.776
		c0,20.177-8.949,37.404-26.837,51.678c-17.891,14.273-39.396,21.412-64.524,21.412c-25.122,0-46.632-7.139-64.525-21.412
		c-17.89-14.273-26.837-31.501-26.837-51.678v-37.686c31.217-3.805,57.292-15.991,78.231-36.549
		c20.937-20.553,31.408-44.537,31.408-71.949V36.547c0-4.948-1.813-9.233-5.428-12.85c-3.613-3.612-7.904-5.424-12.854-5.424
		c-1.136,0-2.662,0.193-4.564,0.572c-3.238-5.713-7.707-10.275-13.422-13.706C232.118,1.711,225.927,0,219.266,0
		c-10.085,0-18.698,3.573-25.837,10.706c-7.139,7.139-10.707,15.752-10.707,25.841c0,10.085,3.568,18.699,10.707,25.837
		s15.752,10.707,25.837,10.707c6.281,0,12.37-1.711,18.272-5.139v114.772c0,20.179-8.945,37.402-26.836,51.68
		c-17.893,14.271-39.403,21.406-64.525,21.406c-25.122,0-46.632-7.136-64.524-21.406c-17.89-14.274-26.837-31.498-26.837-51.68
		V67.952c5.898,3.427,11.993,5.139,18.273,5.139c10.085,0,18.699-3.568,25.837-10.707c7.137-7.139,10.704-15.752,10.704-25.837
		c0-10.088-3.567-18.702-10.704-25.841C91.787,3.573,83.173,0,73.088,0c-6.663,0-12.85,1.711-18.56,5.139
		c-5.708,3.427-10.183,7.992-13.417,13.706c-1.906-0.378-3.427-0.572-4.57-0.572c-4.952,0-9.233,1.812-12.85,5.424
		c-3.615,3.617-5.424,7.902-5.424,12.85v146.178c0,27.408,10.466,51.386,31.405,71.945c20.938,20.558,47.014,32.744,78.229,36.553
		v37.685c0,30.266,12.515,56.103,37.546,77.512c25.031,21.413,55.15,32.117,90.358,32.117c35.221,0,65.336-10.704,90.366-32.117
		c25.036-21.409,37.541-47.246,37.541-77.512V216.128c10.854-3.999,19.656-10.657,26.412-19.985
		c6.762-9.324,10.144-19.89,10.144-31.689C420.265,149.229,414.937,136.282,404.272,125.623z M378.299,177.301
		c-3.621,3.617-7.905,5.424-12.854,5.424s-9.227-1.807-12.847-5.424c-3.614-3.616-5.421-7.898-5.421-12.847
		c0-4.948,1.807-9.233,5.421-12.85c3.62-3.612,7.898-5.424,12.847-5.424s9.232,1.812,12.854,5.424
		c3.614,3.617,5.421,7.902,5.421,12.85C383.72,169.406,381.913,173.685,378.299,177.301z"/>
</g>
<g>
</g>
<g>
</g>
<g>
</g>
<g>
</g>
<g>
</g>
<g>
</g>
<g>
</g>
<g>
</g>
<g>
</g>
<g>
</g>
<g>
</g>
<g>
</g>
<g>
</g>
<g>
</g>
<g>
</g>
</svg>
