<?xml version="1.0" encoding="iso-8859-1"?>
<!-- Generator: Adobe Illustrator 16.0.0, SVG Export Plug-In . SVG Version: 6.00 Build 0)  -->
<!DOCTYPE svg PUBLIC "-//W3C//DTD SVG 1.1//EN" "http://www.w3.org/Graphics/SVG/1.1/DTD/svg11.dtd">
<svg version="1.1" id="Capa_1" xmlns="http://www.w3.org/2000/svg" xmlns:xlink="http://www.w3.org/1999/xlink" x="0px" y="0px"
	 width="511.626px" height="511.627px" viewBox="0 0 511.626 511.627" style="enable-background:new 0 0 511.626 511.627;"
	 xml:space="preserve">
<g>
	<g>
		<path d="M18.842,128.48C6.28,141.043,0,156.08,0,173.588v237.537c0,17.515,6.28,32.552,18.842,45.111
			c12.563,12.565,27.6,18.842,45.111,18.842h18.271V109.634H63.953C46.438,109.634,31.402,115.917,18.842,128.48z"/>
		<path d="M365.446,63.955c0-7.614-2.663-14.084-7.994-19.414c-5.325-5.33-11.8-7.993-19.411-7.993H173.589
			c-7.612,0-14.083,2.663-19.414,7.993c-5.33,5.327-7.994,11.799-7.994,19.414v45.679h-36.545v365.444h292.359V109.634h-36.549
			V63.955z M328.904,109.634H182.725V73.091h146.179V109.634z"/>
		<path d="M492.785,128.48c-12.563-12.562-27.601-18.846-45.111-18.846h-18.274v365.444h18.274c17.511,0,32.548-6.276,45.111-18.842
			c12.559-12.56,18.842-27.597,18.842-45.111V173.588C511.626,156.08,505.343,141.043,492.785,128.48z"/>
	</g>
</g>
<g>
</g>
<g>
</g>
<g>
</g>
<g>
</g>
<g>
</g>
<g>
</g>
<g>
</g>
<g>
</g>
<g>
</g>
<g>
</g>
<g>
</g>
<g>
</g>
<g>
</g>
<g>
</g>
<g>
</g>
</svg>
