<?xml version="1.0" encoding="iso-8859-1"?>
<!-- Generator: Adobe Illustrator 16.0.0, SVG Export Plug-In . SVG Version: 6.00 Build 0)  -->
<!DOCTYPE svg PUBLIC "-//W3C//DTD SVG 1.1//EN" "http://www.w3.org/Graphics/SVG/1.1/DTD/svg11.dtd">
<svg version="1.1" id="Capa_1" xmlns="http://www.w3.org/2000/svg" xmlns:xlink="http://www.w3.org/1999/xlink" x="0px" y="0px"
	 width="511.34px" height="511.34px" viewBox="0 0 511.34 511.34" style="enable-background:new 0 0 511.34 511.34;"
	 xml:space="preserve">
<g>
	<path d="M497.78,326.334l-51.395-70.808l51.395-70.804c1.711-2.475,2.088-5.232,1.14-8.276c-0.767-2.859-2.669-4.762-5.712-5.712
		l-83.363-27.408V55.959c0-3.044-1.242-5.519-3.721-7.421c-2.85-1.902-5.615-2.284-8.274-1.143l-83.367,26.836L263.092,3.427
		C261.378,1.143,258.905,0,255.667,0c-3.234,0-5.708,1.146-7.422,3.427l-51.394,70.805l-83.368-26.836
		c-2.662-1.142-5.424-0.76-8.28,1.143c-2.474,1.903-3.711,4.377-3.711,7.421v87.366l-83.367,27.408
		c-3.044,0.953-4.947,2.856-5.708,5.712c-0.95,3.044-0.571,5.802,1.143,8.276l51.391,70.804L13.56,326.334
		c-1.714,2.282-2.093,5.041-1.143,8.278c0.76,2.847,2.664,4.753,5.708,5.712l83.367,27.407v87.364c0,3.043,1.237,5.521,3.711,7.423
		c2.856,1.903,5.618,2.283,8.28,1.144l83.368-26.837l51.394,70.805c1.902,2.471,4.377,3.71,7.422,3.71s5.522-1.239,7.424-3.71
		l51.391-70.805l83.371,26.837c2.659,1.143,5.421,0.76,8.271-1.144c2.479-1.902,3.721-4.38,3.721-7.423v-87.364l83.363-27.407
		c3.043-0.955,4.945-2.861,5.712-5.712C499.875,331.375,499.491,328.616,497.78,326.334z M407.134,319.339
		c-8.661,20.27-20.365,37.78-35.114,52.534c-14.753,14.749-32.261,26.456-52.534,35.118c-20.266,8.657-41.541,12.99-63.811,12.99
		c-22.27,0-43.537-4.333-63.81-12.99c-20.27-8.665-37.782-20.369-52.532-35.118c-14.75-14.754-26.455-32.265-35.117-52.534
		c-8.66-20.272-12.99-41.541-12.99-63.813c0-22.27,4.331-43.537,12.99-63.81c8.658-20.27,20.367-37.781,35.117-52.534
		c14.753-14.749,32.262-26.457,52.532-35.115c20.27-8.663,41.54-12.99,63.81-12.99c22.266,0,43.545,4.327,63.811,12.99
		c20.273,8.658,37.781,20.366,52.534,35.115c14.749,14.753,26.453,32.264,35.114,52.534c8.658,20.273,12.991,41.543,12.991,63.81
		C420.125,277.798,415.789,299.066,407.134,319.339z"/>
</g>
<g>
</g>
<g>
</g>
<g>
</g>
<g>
</g>
<g>
</g>
<g>
</g>
<g>
</g>
<g>
</g>
<g>
</g>
<g>
</g>
<g>
</g>
<g>
</g>
<g>
</g>
<g>
</g>
<g>
</g>
</svg>
