<?xml version="1.0" encoding="iso-8859-1"?>
<!-- Generator: Adobe Illustrator 16.0.0, SVG Export Plug-In . SVG Version: 6.00 Build 0)  -->
<!DOCTYPE svg PUBLIC "-//W3C//DTD SVG 1.1//EN" "http://www.w3.org/Graphics/SVG/1.1/DTD/svg11.dtd">
<svg version="1.1" id="Capa_1" xmlns="http://www.w3.org/2000/svg" xmlns:xlink="http://www.w3.org/1999/xlink" x="0px" y="0px"
	 width="511.63px" height="511.631px" viewBox="0 0 511.63 511.631" style="enable-background:new 0 0 511.63 511.631;"
	 xml:space="preserve">
<g>
	<g>
		<path d="M493.356,347.177H18.274c-4.952,0-9.233,1.811-12.851,5.425C1.809,356.215,0,360.506,0,365.455v73.083
			c0,4.942,1.809,9.233,5.424,12.847c3.621,3.614,7.904,5.428,12.851,5.428h475.082c4.944,0,9.232-1.813,12.85-5.428
			c3.614-3.613,5.425-7.904,5.425-12.847v-73.083c0-4.949-1.811-9.24-5.425-12.854C502.588,348.987,498.3,347.177,493.356,347.177z
			 M475.084,420.271H292.369v-36.548h182.723v36.548H475.084z"/>
		<path d="M493.356,201H18.274c-4.952,0-9.233,1.809-12.851,5.426C1.809,210.041,0,214.324,0,219.271v73.087
			c0,4.948,1.809,9.233,5.424,12.847c3.621,3.614,7.904,5.428,12.851,5.428h475.082c4.944,0,9.232-1.813,12.85-5.428
			c3.614-3.613,5.425-7.898,5.425-12.847v-73.087c0-4.947-1.811-9.229-5.425-12.845C502.588,202.808,498.3,201,493.356,201z
			 M475.078,274.09h-292.35v-36.543h292.35V274.09z"/>
		<path d="M506.206,60.243c-3.617-3.612-7.905-5.424-12.85-5.424H18.274c-4.952,0-9.233,1.812-12.851,5.424
			C1.809,63.86,0,68.145,0,73.093v73.085c0,4.952,1.809,9.235,5.424,12.85c3.621,3.617,7.904,5.424,12.851,5.424h475.082
			c4.944,0,9.232-1.807,12.85-5.424c3.614-3.615,5.425-7.898,5.425-12.85V73.093C511.63,68.145,509.82,63.863,506.206,60.243z
			 M475.078,127.911H365.449V91.364h109.629V127.911z"/>
	</g>
</g>
<g>
</g>
<g>
</g>
<g>
</g>
<g>
</g>
<g>
</g>
<g>
</g>
<g>
</g>
<g>
</g>
<g>
</g>
<g>
</g>
<g>
</g>
<g>
</g>
<g>
</g>
<g>
</g>
<g>
</g>
</svg>
