<?xml version="1.0" encoding="iso-8859-1"?>
<!-- Generator: Adobe Illustrator 16.0.0, SVG Export Plug-In . SVG Version: 6.00 Build 0)  -->
<!DOCTYPE svg PUBLIC "-//W3C//DTD SVG 1.1//EN" "http://www.w3.org/Graphics/SVG/1.1/DTD/svg11.dtd">
<svg version="1.1" id="Capa_1" xmlns="http://www.w3.org/2000/svg" xmlns:xlink="http://www.w3.org/1999/xlink" x="0px" y="0px"
	 width="438.533px" height="438.533px" viewBox="0 0 438.533 438.533" style="enable-background:new 0 0 438.533 438.533;"
	 xml:space="preserve">
<g>
	<g>
		<path d="M246.676,182.72c-7.617,0-14.089-2.663-19.417-7.993c-5.33-5.327-7.992-11.799-7.992-19.414V0H63.953
			C56.341,0,49.869,2.663,44.54,7.993c-5.33,5.327-7.994,11.799-7.994,19.414v383.719c0,7.617,2.664,14.089,7.994,19.417
			c5.33,5.325,11.801,7.991,19.414,7.991h310.633c7.611,0,14.079-2.666,19.407-7.991c5.328-5.332,7.994-11.8,7.994-19.417V182.72
			H246.676z M328.9,356.309c0,2.662-0.855,4.853-2.566,6.563s-3.901,2.567-6.564,2.567h-201c-2.663,0-4.853-0.856-6.567-2.567
			c-1.709-1.711-2.568-3.901-2.568-6.563v-18.274c0-2.669,0.856-4.859,2.568-6.57c1.715-1.704,3.905-2.566,6.567-2.566h201
			c2.663,0,4.854,0.862,6.564,2.566c1.711,1.711,2.566,3.901,2.566,6.57V356.309z M328.9,283.218c0,2.67-0.855,4.853-2.566,6.571
			c-1.711,1.707-3.901,2.566-6.564,2.566h-201c-2.663,0-4.853-0.859-6.567-2.566c-1.709-1.719-2.568-3.901-2.568-6.571v-18.274
			c0-2.662,0.856-4.853,2.568-6.563c1.715-1.711,3.905-2.566,6.567-2.566h201c2.663,0,4.854,0.855,6.564,2.566
			s2.566,3.901,2.566,6.563V283.218z"/>
		<path d="M382.58,108.493l-89.078-89.081c-9.521-9.517-22.087-15.706-37.692-18.558v145.324h145.326
			C398.281,130.566,392.091,118.006,382.58,108.493z"/>
	</g>
</g>
<g>
</g>
<g>
</g>
<g>
</g>
<g>
</g>
<g>
</g>
<g>
</g>
<g>
</g>
<g>
</g>
<g>
</g>
<g>
</g>
<g>
</g>
<g>
</g>
<g>
</g>
<g>
</g>
<g>
</g>
</svg>
