<?xml version="1.0" encoding="iso-8859-1"?>
<!-- Generator: Adobe Illustrator 16.0.0, SVG Export Plug-In . SVG Version: 6.00 Build 0)  -->
<!DOCTYPE svg PUBLIC "-//W3C//DTD SVG 1.1//EN" "http://www.w3.org/Graphics/SVG/1.1/DTD/svg11.dtd">
<svg version="1.1" id="Capa_1" xmlns="http://www.w3.org/2000/svg" xmlns:xlink="http://www.w3.org/1999/xlink" x="0px" y="0px"
	 width="510.714px" height="510.714px" viewBox="0 0 510.714 510.714" style="enable-background:new 0 0 510.714 510.714;"
	 xml:space="preserve">
<g>
	<g>
		<path d="M364.877,66.208V36.371c-2.478-0.188-5.14-0.282-7.994-0.282l-11.991,0.282l-1.998,2.286
			c-1.335,1.524-3.334,3.046-5.996,4.565c-2.662,1.521-5.328,2.19-7.994,1.998l-9.709-0.568h-83.653l-61.385-0.288l-32.836,0.288
			l-5.424,0.855H98.782c-36.357,0-56.437-0.477-60.242-1.427l-15.419-7.71L0,36.674v24.55v84.796
			c2.283,3.236,7.612,7.423,15.986,12.563c1.332,0,3.284-1.239,5.852-3.716c2.57-2.475,4.423-5.52,5.566-9.137
			c2.094-6.28,4.38-14.272,6.854-23.983c2.473-9.703,4.568-16.845,6.279-21.411c1.709-4.567,3.802-7.707,6.28-9.419
			c3.041-2.096,9.989-4.427,20.839-6.995c10.85-2.574,20.367-3.855,28.549-3.855c20.938,0,35.022,0.571,42.255,1.709
			c1.524,0.19,2.855,0.765,3.999,1.715c0.763,0.76,1.332,2.19,1.713,4.281c0.378,2.096,0.571,7.522,0.571,16.279
			c0,8.752-0.049,18.512-0.144,29.263c-0.094,10.756-0.05,22.032,0.144,33.831l1.425,122.197c0.38,45.87-0.188,87.08-1.712,123.622
			c-0.572,6.659-1.713,11.987-3.427,15.988c-3.806,2.279-18.937,7.043-45.395,14.271c-11.042,3.045-18.559,7.706-22.557,13.989
			v2.567l0.287,7.419c0,0.767,0.193,3.237,0.572,7.426c4.187,0,10.85-0.376,19.985-1.143c27.6-2.666,49.772-4.001,66.521-4.001
			c31.595,0,54.247,0.76,67.952,2.283c14.654,1.902,32.455,2.851,53.391,2.851c3.806,0,7.043-0.093,9.705-0.284
			c0.575-3.614,0.862-6.372,0.862-8.275c0-0.951-0.479-5.708-1.431-14.277c-3.806-1.902-8.559-3.613-14.271-5.14
			c-2.854-0.76-6.946-1.902-12.275-3.429c-5.326-1.526-9.518-2.766-12.562-3.717c-3.045-0.948-4.76-1.424-5.138-1.424
			c-7.611-1.334-16.081-4.377-25.41-9.137c-2.284-7.42-3.33-15.51-3.14-24.267l0.288-41.973l-0.859-102.501v-94.771l-0.288-43.396
			c-0.378-7.422,0.383-20.363,2.286-38.831c6.279-0.95,12.657-1.427,19.13-1.427c8.186,0,18.747-0.09,31.693-0.284
			c12.942-0.192,22.791-0.288,29.554-0.288c6.755,0,10.797,0.193,12.135,0.571c2.662,0.765,5.229,2.574,7.703,5.426
			c0.38,0.382,0.948,3.14,1.711,8.28c0.764,5.14,1.858,11.372,3.289,18.699c1.427,7.33,2.901,13.278,4.428,17.848
			c5.517,16.178,10.657,28.359,15.414,36.545c5.517-0.572,11.991-2.288,19.417-5.141c0.76-3.617,1.136-8.47,1.136-14.561
			l0.284-16.562l-0.284-28.544C364.973,78.721,364.877,66.208,364.877,66.208z"/>
		<path d="M497.924,401.534h-22.843v-292.36h22.843c6.283,0,10.28-1.759,11.991-5.282c1.715-3.521,0.667-7.754-3.139-12.707
			L470.8,44.937c-3.806-4.949-8.474-7.423-13.99-7.423c-5.516,0-10.181,2.474-13.986,7.423l-35.977,46.249
			c-3.799,4.952-4.846,9.186-3.142,12.707c1.704,3.523,5.708,5.282,11.991,5.282h22.846v292.36h-22.846
			c-6.283,0-10.28,1.76-11.991,5.288c-1.711,3.518-0.664,7.754,3.142,12.702l35.977,46.251c3.806,4.948,8.471,7.419,13.986,7.419
			c5.517,0,10.185-2.471,13.99-7.419l35.977-46.251c3.803-4.948,4.85-9.185,3.139-12.702
			C508.205,403.294,504.208,401.534,497.924,401.534z"/>
	</g>
</g>
<g>
</g>
<g>
</g>
<g>
</g>
<g>
</g>
<g>
</g>
<g>
</g>
<g>
</g>
<g>
</g>
<g>
</g>
<g>
</g>
<g>
</g>
<g>
</g>
<g>
</g>
<g>
</g>
<g>
</g>
</svg>
