<?xml version="1.0" encoding="iso-8859-1"?>
<!-- Generator: Adobe Illustrator 16.0.0, SVG Export Plug-In . SVG Version: 6.00 Build 0)  -->
<!DOCTYPE svg PUBLIC "-//W3C//DTD SVG 1.1//EN" "http://www.w3.org/Graphics/SVG/1.1/DTD/svg11.dtd">
<svg version="1.1" id="Capa_1" xmlns="http://www.w3.org/2000/svg" xmlns:xlink="http://www.w3.org/1999/xlink" x="0px" y="0px"
	 width="438.526px" height="438.525px" viewBox="0 0 438.526 438.525" style="enable-background:new 0 0 438.526 438.525;"
	 xml:space="preserve">
<g>
	<g>
		<path d="M429.686,370.178l-46.25-35.974c-4.948-3.806-9.186-4.853-12.703-3.142c-3.528,1.714-5.287,5.715-5.287,11.991v22.84
			H73.089v-22.84c0-6.276-1.763-10.277-5.282-11.991c-3.521-1.718-7.755-0.671-12.707,3.142L8.851,370.178
			c-4.952,3.806-7.426,8.474-7.426,13.989c0,5.517,2.474,10.178,7.426,13.99L55.1,434.131c4.952,3.806,9.185,4.859,12.707,3.142
			c3.523-1.711,5.282-5.708,5.282-11.991v-22.843h292.357v22.843c0,6.283,1.759,10.28,5.287,11.991
			c3.518,1.711,7.755,0.66,12.703-3.142l46.25-35.974c4.948-3.812,7.42-8.474,7.42-13.99
			C437.106,378.651,434.634,373.986,429.686,370.178z"/>
		<path d="M438.249,68.122c-0.191-25.031-0.28-37.544-0.28-37.544V0.742c-2.478-0.193-5.147-0.288-7.994-0.288l-11.991,0.288
			l-1.999,2.284c-1.334,1.521-3.33,3.046-5.995,4.567c-2.663,1.521-5.332,2.19-7.991,1.997l-9.709-0.572h-90.797L174.162,8.73
			l-32.835,0.288l-5.424,0.855H98.786c-36.357,0-56.437-0.477-60.242-1.427l-15.42-7.708L0,1.05V25.6v84.798
			c2.281,3.234,7.611,7.421,15.986,12.563c1.332,0,3.284-1.237,5.852-3.711s4.421-5.52,5.564-9.136
			c2.096-6.283,4.38-14.277,6.854-23.984c2.474-9.706,4.569-16.844,6.28-21.411c1.709-4.565,3.802-7.705,6.28-9.419
			c2.662-1.906,15.271-4.187,37.829-6.854c22.557-2.666,38.593-3.997,48.11-3.997c20.938,0,35.022,0.57,42.255,1.713
			c1.525,0.193,2.856,0.763,3.999,1.713c0.76,0.761,1.331,2.19,1.713,4.283c0.381,2.474,0.571,28.928,0.571,79.368l1.429,12.563
			c0,56.339-0.57,97.547-1.713,123.624c-0.571,6.663-1.712,11.991-3.427,15.988c-3.805,2.279-18.937,7.043-45.395,14.271
			c-11.042,3.046-18.558,7.707-22.557,13.99v2.566l0.288,7.419c0,0.767,0.19,3.241,0.571,7.42c4.759,0,11.42-0.473,19.986-1.421
			c28.741-2.474,50.913-3.713,66.521-3.713c31.597,0,54.245,0.753,67.954,2.279c14.646,1.902,32.448,2.854,53.386,2.854
			c3.805,0,7.042-0.093,9.712-0.288c0.568-3.613,0.855-6.372,0.855-8.274c0-0.951-0.486-5.715-1.431-14.277
			c-3.806-1.902-8.559-3.614-14.273-5.14c-2.851-0.76-6.944-1.903-12.275-3.43c-5.335-1.526-9.521-2.758-12.566-3.713
			c-3.042-0.955-4.76-1.427-5.14-1.427c-7.611-1.331-16.078-4.381-25.406-9.131c-2.283-7.426-3.334-15.516-3.142-24.276l0.28-41.97
			l-0.855-102.497v14.844l-0.287-43.396c-0.377-7.426,0.376-20.367,2.279-38.831c6.283-0.95,18.37-1.425,36.268-1.425
			c7.803,0,19.985-0.096,36.549-0.288c16.55-0.193,29.731-0.288,39.533-0.288c9.808,0,15.379,0.192,16.706,0.57
			c2.673,0.762,5.236,2.574,7.714,5.426c0.377,0.382,0.948,3.144,1.704,8.28c0.767,5.138,1.862,11.372,3.285,18.698
			c1.431,7.329,2.902,13.275,4.429,17.845c5.517,16.178,10.663,28.363,15.413,36.545c5.521-0.57,11.991-2.285,19.418-5.141
			c0.759-3.617,1.14-8.47,1.14-14.56l0.28-16.562L438.249,68.122z"/>
	</g>
</g>
<g>
</g>
<g>
</g>
<g>
</g>
<g>
</g>
<g>
</g>
<g>
</g>
<g>
</g>
<g>
</g>
<g>
</g>
<g>
</g>
<g>
</g>
<g>
</g>
<g>
</g>
<g>
</g>
<g>
</g>
</svg>
