<?xml version="1.0" encoding="iso-8859-1"?>
<!-- Generator: Adobe Illustrator 16.0.0, SVG Export Plug-In . SVG Version: 6.00 Build 0)  -->
<!DOCTYPE svg PUBLIC "-//W3C//DTD SVG 1.1//EN" "http://www.w3.org/Graphics/SVG/1.1/DTD/svg11.dtd">
<svg version="1.1" id="Capa_1" xmlns="http://www.w3.org/2000/svg" xmlns:xlink="http://www.w3.org/1999/xlink" x="0px" y="0px"
	 width="456.824px" height="456.824px" viewBox="0 0 456.824 456.824" style="enable-background:new 0 0 456.824 456.824;"
	 xml:space="preserve">
<g>
	<g>
		<path d="M100.5,45.683H18.276c-4.949,0-9.231,1.809-12.851,5.426C1.809,54.724,0,59.007,0,63.954v182.729
			c0,4.948,1.809,9.233,5.426,12.847c3.616,3.614,7.898,5.425,12.851,5.425H100.5c4.948,0,9.229-1.811,12.847-5.425
			c3.616-3.613,5.424-7.898,5.424-12.847V63.954c0-4.947-1.809-9.229-5.424-12.845C109.73,47.491,105.449,45.683,100.5,45.683z
			 M67.665,113.351c-3.616,3.617-7.898,5.424-12.847,5.424c-5.14,0-9.471-1.807-12.99-5.424c-3.521-3.617-5.281-7.898-5.281-12.85
			c0-5.137,1.759-9.469,5.281-12.991c3.52-3.521,7.85-5.28,12.99-5.28c4.949,0,9.231,1.759,12.847,5.28
			c3.621,3.521,5.426,7.854,5.426,12.991C73.091,105.449,71.282,109.73,67.665,113.351z"/>
		<path d="M441.106,204.141c2.861-8.376,4.281-15.608,4.261-21.693c0.575-14.466-3.519-27.504-12.279-39.114
			c3.237-10.66,3.237-21.797,0-33.407c-2.847-10.85-7.994-19.792-15.413-26.835c1.711-21.32-2.95-38.543-13.99-51.678
			c-12.183-14.465-30.929-21.892-56.246-22.27h-10.28h-21.696h-4.853c-12.56,0-26.269,1.475-41.114,4.425
			c-14.838,2.952-26.405,5.713-34.68,8.282c-8.28,2.568-19.75,6.328-34.403,11.276c-23.413,8.183-38.45,12.371-45.111,12.56
			c-4.949,0.193-9.231,2.046-12.847,5.569c-3.617,3.518-5.426,7.755-5.426,12.703V246.97c0,4.757,1.718,8.898,5.142,12.416
			c3.424,3.524,7.517,5.476,12.275,5.858c4.565,0.384,11.799,5.996,21.698,16.844c9.9,10.849,19.511,22.368,28.836,34.551
			c12.944,16.553,22.558,27.973,28.837,34.256c3.424,3.422,6.37,7.99,8.848,13.702c2.472,5.708,4.142,10.324,5.004,13.846
			c0.855,3.519,2.135,9.274,3.856,17.275c1.328,7.419,2.519,13.227,3.569,17.412c1.047,4.188,2.898,9.137,5.564,14.845
			c2.67,5.716,5.903,10.469,9.712,14.274c3.614,3.62,7.898,5.431,12.847,5.431c8.761,0,16.604-0.999,23.559-2.998
			c6.947-1.998,12.655-4.469,17.131-7.419c4.477-2.957,8.282-6.803,11.424-11.566c3.142-4.757,5.424-9.042,6.851-12.848
			c1.431-3.812,2.574-8.562,3.426-14.27c0.855-5.716,1.338-10,1.431-12.854c0.093-2.854,0.144-6.563,0.144-11.136
			c0-7.228-0.948-14.51-2.851-21.84c-1.909-7.323-3.72-12.895-5.428-16.707c-1.711-3.806-4.281-9.227-7.706-16.269
			c-0.575-1.144-1.523-2.861-2.854-5.144c-1.328-2.283-2.382-4.381-3.142-6.283c-0.763-1.902-1.522-4.186-2.279-6.852h79.086
			c14.843,0,27.645-5.428,38.397-16.279c10.756-10.848,16.228-23.694,16.419-38.54C456.811,229.931,451.575,215.75,441.106,204.141z
			"/>
	</g>
</g>
<g>
</g>
<g>
</g>
<g>
</g>
<g>
</g>
<g>
</g>
<g>
</g>
<g>
</g>
<g>
</g>
<g>
</g>
<g>
</g>
<g>
</g>
<g>
</g>
<g>
</g>
<g>
</g>
<g>
</g>
</svg>
