<?xml version="1.0" encoding="iso-8859-1"?>
<!-- Generator: Adobe Illustrator 16.0.0, SVG Export Plug-In . SVG Version: 6.00 Build 0)  -->
<!DOCTYPE svg PUBLIC "-//W3C//DTD SVG 1.1//EN" "http://www.w3.org/Graphics/SVG/1.1/DTD/svg11.dtd">
<svg version="1.1" id="Capa_1" xmlns="http://www.w3.org/2000/svg" xmlns:xlink="http://www.w3.org/1999/xlink" x="0px" y="0px"
	 width="438.536px" height="438.536px" viewBox="0 0 438.536 438.536" style="enable-background:new 0 0 438.536 438.536;"
	 xml:space="preserve">
<g>
	<path d="M433.113,5.424C429.496,1.807,425.215,0,420.267,0H18.276C13.324,0,9.041,1.807,5.425,5.424
		C1.808,9.04,0.001,13.322,0.001,18.271v401.991c0,4.948,1.807,9.233,5.424,12.847c3.619,3.617,7.902,5.428,12.851,5.428h401.991
		c4.948,0,9.229-1.811,12.847-5.428c3.614-3.613,5.421-7.898,5.421-12.847V18.271C438.534,13.319,436.73,9.04,433.113,5.424z
		 M201,347.172c0,2.669-0.855,4.853-2.568,6.57c-1.714,1.707-3.904,2.566-6.567,2.566H54.821c-2.666,0-4.853-0.859-6.567-2.566
		c-1.709-1.718-2.568-3.901-2.568-6.57V54.813c0-2.666,0.855-4.853,2.568-6.565c1.714-1.711,3.901-2.57,6.567-2.57h137.044
		c2.663,0,4.853,0.859,6.567,2.57c1.713,1.712,2.568,3.899,2.568,6.565V347.172z M392.858,237.539c0,2.666-0.855,4.856-2.566,6.563
		c-1.711,1.718-3.901,2.57-6.563,2.57H246.691c-2.677,0-4.859-0.853-6.571-2.57c-1.711-1.707-2.566-3.897-2.566-6.563V54.813
		c0-2.666,0.855-4.853,2.566-6.565c1.712-1.711,3.895-2.57,6.571-2.57h137.037c2.662,0,4.853,0.859,6.563,2.57
		c1.711,1.712,2.566,3.899,2.566,6.565V237.539z"/>
</g>
<g>
</g>
<g>
</g>
<g>
</g>
<g>
</g>
<g>
</g>
<g>
</g>
<g>
</g>
<g>
</g>
<g>
</g>
<g>
</g>
<g>
</g>
<g>
</g>
<g>
</g>
<g>
</g>
<g>
</g>
</svg>
