<?xml version="1.0" encoding="iso-8859-1"?>
<!-- Generator: Adobe Illustrator 16.0.0, SVG Export Plug-In . SVG Version: 6.00 Build 0)  -->
<!DOCTYPE svg PUBLIC "-//W3C//DTD SVG 1.1//EN" "http://www.w3.org/Graphics/SVG/1.1/DTD/svg11.dtd">
<svg version="1.1" id="Capa_1" xmlns="http://www.w3.org/2000/svg" xmlns:xlink="http://www.w3.org/1999/xlink" x="0px" y="0px"
	 width="438.542px" height="438.543px" viewBox="0 0 438.542 438.543" style="enable-background:new 0 0 438.542 438.543;"
	 xml:space="preserve">
<g>
	<path d="M288.078,367.164c-12.748,0-23.887-2.95-33.4-8.85c-7.427-4.381-12.368-10.089-14.842-17.132
		c-2.673-6.852-4.001-23.223-4.001-49.115V179.58h103.921v-68.806H235.834V0h-62.53c-2.856,22.458-7.992,41.109-15.415,55.963
		c-7.424,14.655-17.227,27.218-29.408,37.685c-12.183,10.282-26.934,18.276-44.255,23.984v61.955h48.535v153.889
		c0,20.365,2.096,35.69,6.28,45.967c3.999,10.283,11.519,20.272,22.557,29.981c11.419,9.514,24.554,16.652,39.399,21.406
		c15.418,5.14,33.12,7.713,53.105,7.713c18.274,0,34.735-1.813,49.392-5.428c14.466-3.237,31.409-9.424,50.823-18.562V345.46
		C332.425,359.933,310.349,367.164,288.078,367.164z"/>
</g>
<g>
</g>
<g>
</g>
<g>
</g>
<g>
</g>
<g>
</g>
<g>
</g>
<g>
</g>
<g>
</g>
<g>
</g>
<g>
</g>
<g>
</g>
<g>
</g>
<g>
</g>
<g>
</g>
<g>
</g>
</svg>
