<?xml version="1.0" encoding="iso-8859-1"?>
<!-- Generator: Adobe Illustrator 16.0.0, SVG Export Plug-In . SVG Version: 6.00 Build 0)  -->
<!DOCTYPE svg PUBLIC "-//W3C//DTD SVG 1.1//EN" "http://www.w3.org/Graphics/SVG/1.1/DTD/svg11.dtd">
<svg version="1.1" id="Capa_1" xmlns="http://www.w3.org/2000/svg" xmlns:xlink="http://www.w3.org/1999/xlink" x="0px" y="0px"
	 width="401.987px" height="401.987px" viewBox="0 0 401.987 401.987" style="enable-background:new 0 0 401.987 401.987;"
	 xml:space="preserve">
<g>
	<path d="M362.872,194.418c-1.711-1.711-3.901-2.568-6.563-2.568h-45.68c-2.669,0-4.859,0.857-6.57,2.568
		c-1.711,1.713-2.562,3.899-2.562,6.567c0,36.167-12.368,67.384-37.121,93.652c-24.745,26.259-55.004,40.635-90.79,43.105V198.704
		l112.203-34.545c4.38-1.521,6.567-4.473,6.567-8.853v-36.542c0-3.046-1.239-5.52-3.717-7.426c-2.471-1.903-5.141-2.376-7.994-1.427
		l-107.059,33.12v-26.553l112.203-34.545c4.38-1.521,6.567-4.471,6.567-8.848V36.543c0-3.045-1.239-5.52-3.717-7.422
		c-2.471-1.903-5.141-2.377-7.994-1.427l-107.059,33.12V9.136c0-2.666-0.855-4.853-2.57-6.567C169.303,0.859,167.112,0,164.448,0
		h-45.681c-2.664,0-4.854,0.859-6.567,2.568c-1.711,1.714-2.568,3.901-2.568,6.567v71.379l-66.523,20.273
		c-4.377,1.519-6.567,4.471-6.567,8.848v36.545c0,3.045,1.237,5.52,3.711,7.422c1.715,1.142,3.523,1.709,5.426,1.709
		c1.142,0,1.997-0.09,2.568-0.284l61.385-18.843v26.553l-66.523,20.27c-4.377,1.52-6.567,4.471-6.567,8.848v36.552
		c0,3.043,1.237,5.514,3.711,7.416c1.715,1.144,3.523,1.715,5.426,1.715c1.142,0,1.997-0.093,2.568-0.287l61.385-18.843v174.441
		c0,2.669,0.854,4.853,2.568,6.57c1.712,1.704,3.903,2.566,6.567,2.566h45.681c36.354,0,69.949-8.993,100.79-26.98
		c30.826-17.986,55.243-42.394,73.227-73.233c17.987-30.834,26.98-64.426,26.98-100.781
		C365.449,198.326,364.594,196.14,362.872,194.418z"/>
</g>
<g>
</g>
<g>
</g>
<g>
</g>
<g>
</g>
<g>
</g>
<g>
</g>
<g>
</g>
<g>
</g>
<g>
</g>
<g>
</g>
<g>
</g>
<g>
</g>
<g>
</g>
<g>
</g>
<g>
</g>
</svg>
