<?xml version="1.0" encoding="iso-8859-1"?>
<!-- Generator: Adobe Illustrator 16.0.0, SVG Export Plug-In . SVG Version: 6.00 Build 0)  -->
<!DOCTYPE svg PUBLIC "-//W3C//DTD SVG 1.1//EN" "http://www.w3.org/Graphics/SVG/1.1/DTD/svg11.dtd">
<svg version="1.1" id="Capa_1" xmlns="http://www.w3.org/2000/svg" xmlns:xlink="http://www.w3.org/1999/xlink" x="0px" y="0px"
	 width="438.533px" height="438.533px" viewBox="0 0 438.533 438.533" style="enable-background:new 0 0 438.533 438.533;"
	 xml:space="preserve">
<g>
	<g>
		<path d="M18.275,146.178h109.632c4.95,0,9.233-1.809,12.85-5.426c3.615-3.616,5.424-7.898,5.424-12.845V18.271
			c0-4.952-1.809-9.231-5.42-12.847C137.14,1.807,132.857,0,127.911,0H18.275C13.323,0,9.04,1.807,5.424,5.424
			C1.807,9.04,0,13.322,0,18.271v109.636c0,4.947,1.807,9.229,5.424,12.845C9.043,144.369,13.326,146.178,18.275,146.178z"/>
		<path d="M433.112,5.424C429.495,1.807,425.214,0,420.266,0H310.627c-4.945,0-9.227,1.807-12.848,5.424
			c-3.61,3.615-5.42,7.898-5.42,12.847v109.636c0,4.947,1.81,9.229,5.42,12.845c3.621,3.617,7.902,5.426,12.848,5.426h109.639
			c4.948,0,9.229-1.809,12.847-5.426c3.614-3.616,5.421-7.898,5.421-12.845V18.271C438.533,13.319,436.729,9.04,433.112,5.424z"/>
		<path d="M420.266,182.72H310.633c-4.944,0-9.232,1.809-12.847,5.426c-3.617,3.615-5.427,7.898-5.427,12.847v36.547
			c0,9.896-2.231,18.463-6.708,25.693c-4.473,7.234-9.564,12.662-15.272,16.279c-5.709,3.617-12.468,6.472-20.273,8.559
			c-7.803,2.098-13.894,3.341-18.268,3.721c-4.38,0.373-8.569,0.567-12.564,0.567s-8.182-0.194-12.559-0.567
			c-4.377-0.38-10.467-1.623-18.271-3.721c-7.804-2.087-14.565-4.944-20.273-8.559c-5.711-3.617-10.804-9.048-15.275-16.279
			c-4.475-7.23-6.711-15.797-6.711-25.693v-36.547c0-4.948-1.809-9.231-5.424-12.847c-3.621-3.617-7.903-5.426-12.85-5.426H18.275
			c-4.952,0-9.235,1.809-12.851,5.426C1.807,191.761,0,196.044,0,200.992v36.547c0,38.26,9.373,72.707,28.122,103.35
			c18.748,30.648,44.827,54.583,78.229,71.811c33.407,17.22,71.046,25.834,112.919,25.834c41.882,0,79.516-8.614,112.919-25.834
			c33.4-17.228,59.478-41.162,78.224-71.811c18.754-30.643,28.12-65.09,28.12-103.35v-36.547c0-4.948-1.8-9.231-5.421-12.847
			C429.502,184.528,425.218,182.72,420.266,182.72z"/>
	</g>
</g>
<g>
</g>
<g>
</g>
<g>
</g>
<g>
</g>
<g>
</g>
<g>
</g>
<g>
</g>
<g>
</g>
<g>
</g>
<g>
</g>
<g>
</g>
<g>
</g>
<g>
</g>
<g>
</g>
<g>
</g>
</svg>
