<?xml version="1.0" encoding="iso-8859-1"?>
<!-- Generator: Adobe Illustrator 16.0.0, SVG Export Plug-In . SVG Version: 6.00 Build 0)  -->
<!DOCTYPE svg PUBLIC "-//W3C//DTD SVG 1.1//EN" "http://www.w3.org/Graphics/SVG/1.1/DTD/svg11.dtd">
<svg version="1.1" id="Capa_1" xmlns="http://www.w3.org/2000/svg" xmlns:xlink="http://www.w3.org/1999/xlink" x="0px" y="0px"
	 width="475.098px" height="475.099px" viewBox="0 0 475.098 475.099" style="enable-background:new 0 0 475.098 475.099;"
	 xml:space="preserve">
<g>
	<g>
		<path d="M219.282,227.276v165.591c0,9.521-3.711,17.987-11.134,25.413c-7.421,7.423-15.896,11.136-25.409,11.136
			c-9.514,0-17.983-3.713-25.41-11.136c-7.423-7.426-11.132-15.893-11.132-25.413c0-4.948-1.809-9.229-5.426-12.847
			c-3.619-3.614-7.898-5.424-12.85-5.424c-4.95,0-9.233,1.81-12.851,5.424c-3.615,3.617-5.424,7.898-5.424,12.847
			c0,19.794,7.232,36.922,21.698,51.391c14.465,14.473,31.599,21.693,51.394,21.693c19.792,0,36.925-7.221,51.39-21.693
			c14.464-14.469,21.698-31.597,21.698-51.391V227.276c-6.283-2.093-12.374-3.14-18.274-3.14
			C231.655,224.136,225.561,225.183,219.282,227.276z"/>
		<path d="M255.827,55.401V27.423c0-4.948-1.813-9.235-5.427-12.85c-3.614-3.617-7.898-5.426-12.848-5.426
			c-4.948,0-9.229,1.809-12.847,5.426c-3.617,3.619-5.424,7.902-5.424,12.85v27.978c7.992-0.378,14.084-0.571,18.271-0.571
			C241.74,54.83,247.833,55.023,255.827,55.401z"/>
		<path d="M474.8,232.989c-6.283-26.265-17.278-50.2-32.976-71.804c-15.711-21.604-34.218-39.403-55.538-53.391
			c-21.313-13.99-44.772-24.79-70.373-32.404c-25.598-7.616-51.723-11.421-78.371-11.421c-36.166,0-70.471,6.473-102.925,19.414
			c-32.454,12.942-60.814,32.404-85.08,58.385c-24.269,25.981-40.687,56.39-49.25,91.221C0.094,233.367,0,234.036,0,234.986
			c0,2.474,0.903,4.619,2.712,6.423c1.809,1.808,3.949,2.711,6.423,2.711c2.096,0,4.283-0.948,6.567-2.854
			c9.325-8.754,18.177-15.321,26.552-19.698C50.631,217.191,60.338,215,71.376,215c12.944,0,25.125,3.525,36.545,10.566
			c11.421,7.04,21.226,16.274,29.408,27.688c1.334,1.909,3,4.575,4.998,7.99c2,3.436,3.381,5.719,4.141,6.858
			c2.093,3.233,4.76,4.855,7.994,4.855c3.427,0,6.186-1.622,8.28-4.855c0.761-1.14,2.142-3.423,4.139-6.858
			c2-3.415,3.666-6.081,4.997-7.99c8.182-11.41,17.939-20.648,29.265-27.688C212.468,218.525,224.602,215,237.545,215
			c12.943,0,25.078,3.521,36.405,10.566c11.324,7.04,21.08,16.274,29.26,27.688c1.341,1.909,3.001,4.575,5.003,7.99
			c1.999,3.436,3.381,5.719,4.147,6.858c2.088,3.233,4.846,4.855,8.275,4.855c3.237,0,5.899-1.622,7.987-4.855
			c0.767-1.14,2.148-3.423,4.147-6.858c2.002-3.415,3.661-6.081,5.003-7.99c8.186-11.41,17.987-20.648,29.403-27.688
			C378.6,218.522,390.783,215,403.726,215c11.04,0,20.745,2.19,29.122,6.567c8.374,4.377,17.221,10.944,26.55,19.698
			c2.285,1.909,4.476,2.854,6.57,2.854c2.471,0,4.616-0.903,6.42-2.711c1.807-1.809,2.71-3.945,2.71-6.423
			C475.091,234.033,475.002,233.367,474.8,232.989z"/>
	</g>
</g>
<g>
</g>
<g>
</g>
<g>
</g>
<g>
</g>
<g>
</g>
<g>
</g>
<g>
</g>
<g>
</g>
<g>
</g>
<g>
</g>
<g>
</g>
<g>
</g>
<g>
</g>
<g>
</g>
<g>
</g>
</svg>
