<?xml version="1.0" encoding="iso-8859-1"?>
<!-- Generator: Adobe Illustrator 16.0.0, SVG Export Plug-In . SVG Version: 6.00 Build 0)  -->
<!DOCTYPE svg PUBLIC "-//W3C//DTD SVG 1.1//EN" "http://www.w3.org/Graphics/SVG/1.1/DTD/svg11.dtd">
<svg version="1.1" id="Capa_1" xmlns="http://www.w3.org/2000/svg" xmlns:xlink="http://www.w3.org/1999/xlink" x="0px" y="0px"
	 width="438.543px" height="438.543px" viewBox="0 0 438.543 438.543" style="enable-background:new 0 0 438.543 438.543;"
	 xml:space="preserve">
<g>
	<g>
		<path d="M13.706,27.131c23.223,0.572,37.212,4.286,41.967,11.122c3.234,4.764,4.854,25.031,4.854,60.813v95.076
			c0,29.886,1.52,52.438,4.565,67.666c4.192,22.648,12.09,41.21,23.7,55.672c11.416,14.277,28.455,25.893,51.103,34.834
			c22.27,8.754,49.298,13.131,81.082,13.131c27.787,0,52.058-3.135,72.81-9.417c20.361-6.092,37.685-14.565,51.955-25.413
			c14.093-11.037,24.749-22.744,31.977-35.118c4.948-8.754,8.856-20.369,11.711-34.824c3.997-20.745,5.428-49.687,4.284-86.8
			c-2.662-71.761-4.757-109.446-6.283-113.063c0-2.091-0.144-5.042-0.424-8.848c-0.288-3.809-0.432-6.374-0.432-7.708
			c0-4.949,1.431-8.854,4.285-11.706c1.149-1.141,8.661-2.762,22.555-4.856c7.427-0.19,15.424-1.431,23.986-3.711
			c0.767-4.567,1.14-7.517,1.14-8.852c0-2.474-0.564-7.329-1.708-14.558L431.693,0c-22.843,2.475-41.494,3.424-55.963,2.854
			L317.205,0h-23.982l-0.575,24.556l4,0.854l28.552-0.57c8.179-0.19,15.509,3.047,21.98,9.71c3.613,3.997,5.903,12.369,6.851,25.122
			l1.137,16.849c1.149,16.368,2.43,31.545,3.86,45.533c1.431,13.99,2.478,25.649,3.142,34.973c0.664,9.329,0.999,21.51,0.999,36.547
			c0,29.694-1.999,51.48-5.996,65.374c-3.23,11.04-8.281,21.895-15.126,32.552c-3.244,5.331-9.428,11.42-18.568,18.277
			c-8.179,6.276-17.597,11.129-28.26,14.555c-16.563,5.332-34.738,7.994-54.529,7.994c-16.946,0-33.783-4.47-50.535-13.422
			c-11.61-6.276-20.745-15.03-27.407-26.262c-8.563-14.842-13.418-34.074-14.561-57.677l-3.997-79.938l-0.291-65.374
			c0-1.138-0.049-3.566-0.144-7.277c-0.096-3.711-0.144-6.798-0.144-9.276c0-22.459,1.237-35.019,3.71-37.685
			c3.621-4.76,11.137-7.139,22.557-7.139c12.185,0,23.984-0.855,35.404-2.568v-2.57l-0.57-18.271l0.283-3.999
			c-5.708,0.38-13.891,0.572-24.551,0.572c-5.708,0.19-19.605,0.666-41.684,1.427c-15.612,0.572-31.599,0.854-47.967,0.854
			c-6.473,0-22.27-0.662-47.395-1.997c-9.897-0.76-20.557-1.139-31.977-1.139c-5.14,0-8.947,0.092-11.419,0.284l0.857,25.126
			C2.38,26.371,6.663,26.753,13.706,27.131z"/>
		<path d="M429.4,402.001H9.14c-2.664,0-4.854,0.855-6.567,2.57c-1.715,1.715-2.568,3.901-2.568,6.567v18.271
			c0,2.666,0.857,4.856,2.568,6.567c1.713,1.715,3.899,2.566,6.567,2.566H429.4c2.669,0,4.859-0.852,6.57-2.566
			c1.711-1.711,2.563-3.901,2.563-6.567v-18.271c0-2.666-0.853-4.853-2.563-6.567S432.069,402.001,429.4,402.001z"/>
	</g>
</g>
<g>
</g>
<g>
</g>
<g>
</g>
<g>
</g>
<g>
</g>
<g>
</g>
<g>
</g>
<g>
</g>
<g>
</g>
<g>
</g>
<g>
</g>
<g>
</g>
<g>
</g>
<g>
</g>
<g>
</g>
</svg>
