<?xml version="1.0" encoding="iso-8859-1"?>
<!-- Generator: Adobe Illustrator 16.0.0, SVG Export Plug-In . SVG Version: 6.00 Build 0)  -->
<!DOCTYPE svg PUBLIC "-//W3C//DTD SVG 1.1//EN" "http://www.w3.org/Graphics/SVG/1.1/DTD/svg11.dtd">
<svg version="1.1" id="Capa_1" xmlns="http://www.w3.org/2000/svg" xmlns:xlink="http://www.w3.org/1999/xlink" x="0px" y="0px"
	 width="438.533px" height="438.533px" viewBox="0 0 438.533 438.533" style="enable-background:new 0 0 438.533 438.533;"
	 xml:space="preserve">
<g>
	<g>
		<path d="M409.133,109.203c-19.608-33.592-46.205-60.189-79.798-79.796C295.736,9.801,259.058,0,219.273,0
			c-39.781,0-76.47,9.801-110.063,29.407c-33.595,19.604-60.192,46.201-79.8,79.796C9.801,142.8,0,179.489,0,219.267
			c0,39.78,9.804,76.463,29.407,110.062c19.607,33.592,46.204,60.189,79.799,79.798c33.597,19.605,70.283,29.407,110.063,29.407
			s76.47-9.802,110.065-29.407c33.593-19.602,60.189-46.206,79.795-79.798c19.603-33.596,29.403-70.284,29.403-110.062
			C438.533,179.485,428.732,142.795,409.133,109.203z M353.742,297.208c-13.894,23.791-32.736,42.633-56.527,56.534
			c-23.791,13.894-49.771,20.834-77.945,20.834c-28.167,0-54.149-6.94-77.943-20.834c-23.791-13.901-42.633-32.743-56.527-56.534
			c-13.897-23.791-20.843-49.772-20.843-77.941c0-28.171,6.949-54.152,20.843-77.943c13.891-23.791,32.738-42.637,56.527-56.53
			c23.791-13.895,49.772-20.84,77.943-20.84c28.173,0,54.154,6.945,77.945,20.84c23.791,13.894,42.634,32.739,56.527,56.53
			c13.895,23.791,20.838,49.772,20.838,77.943C374.58,247.436,367.637,273.417,353.742,297.208z"/>
		<path d="M225.836,112.204c-2.098-1.711-4.281-2.57-6.566-2.57c-2.284,0-4.474,0.859-6.567,2.57l-91.076,91.076
			c-1.905,2.281-2.854,4.57-2.854,6.851c0,2.666,0.855,4.853,2.57,6.567c1.713,1.713,3.903,2.568,6.567,2.568h54.816v100.5
			c0,2.666,0.855,4.856,2.57,6.563c1.712,1.711,3.903,2.567,6.567,2.567h54.82c2.662,0,4.853-0.856,6.561-2.567
			c1.711-1.707,2.573-3.897,2.573-6.563v-100.5h54.815c4.189,0,7.04-1.903,8.562-5.712c1.523-3.614,0.862-6.945-1.998-9.991
			L225.836,112.204z"/>
	</g>
</g>
<g>
</g>
<g>
</g>
<g>
</g>
<g>
</g>
<g>
</g>
<g>
</g>
<g>
</g>
<g>
</g>
<g>
</g>
<g>
</g>
<g>
</g>
<g>
</g>
<g>
</g>
<g>
</g>
<g>
</g>
</svg>
