<?xml version="1.0" encoding="iso-8859-1"?>
<!-- Generator: Adobe Illustrator 16.0.0, SVG Export Plug-In . SVG Version: 6.00 Build 0)  -->
<!DOCTYPE svg PUBLIC "-//W3C//DTD SVG 1.1//EN" "http://www.w3.org/Graphics/SVG/1.1/DTD/svg11.dtd">
<svg version="1.1" id="Capa_1" xmlns="http://www.w3.org/2000/svg" xmlns:xlink="http://www.w3.org/1999/xlink" x="0px" y="0px"
	 width="438.529px" height="438.529px" viewBox="0 0 438.529 438.529" style="enable-background:new 0 0 438.529 438.529;"
	 xml:space="preserve">
<g>
	<g>
		<path d="M219.265,219.267c30.271,0,56.108-10.71,77.518-32.121c21.412-21.411,32.12-47.248,32.12-77.515
			c0-30.262-10.708-56.1-32.12-77.516C275.366,10.705,249.528,0,219.265,0S163.16,10.705,141.75,32.115
			c-21.414,21.416-32.121,47.253-32.121,77.516c0,30.267,10.707,56.104,32.121,77.515
			C163.166,208.557,189.001,219.267,219.265,219.267z"/>
		<path d="M418.687,327.186c-1.051-11.991-3.327-25.125-6.852-39.402c-3.518-14.273-8.042-26.885-13.559-37.828
			c-5.523-10.944-13.23-20.745-23.13-29.409c-9.895-8.66-21.32-14.421-34.26-17.273c1.526,3.616,2.766,7.423,3.717,11.42
			c0.951,3.999,1.622,8.469,1.998,13.415c0.373,4.948,0.623,8.897,0.712,11.854c0.093,2.95,0.093,7.515,0,13.702
			c-0.089,6.188-0.144,10.232-0.144,12.135c11.231,6.469,20.129,15.373,26.692,26.693c6.567,11.327,9.856,23.455,9.856,36.405
			v25.413c6.084,5.516,9.13,12.271,9.13,20.266c0,7.617-2.666,14.086-7.994,19.41c-5.328,5.332-11.793,7.994-19.41,7.994
			c-7.618,0-14.089-2.662-19.417-7.994c-5.329-5.324-7.988-11.793-7.988-19.41c0-7.994,3.046-14.75,9.131-20.266v-25.413
			c0-9.897-3.621-18.47-10.852-25.694c-7.231-7.241-15.797-10.854-25.693-10.854c-9.9,0-18.47,3.613-25.701,10.854
			c-7.23,7.225-10.848,15.797-10.848,25.694v25.413c6.088,5.516,9.134,12.271,9.134,20.266c0,7.617-2.663,14.086-7.994,19.41
			c-5.329,5.332-11.797,7.994-19.418,7.994c-7.61,0-14.078-2.662-19.407-7.994c-5.328-5.324-7.994-11.793-7.994-19.41
			c0-7.994,3.046-14.75,9.134-20.266v-25.413c0-20.178,7.139-37.404,21.409-51.675c14.277-14.277,31.498-21.416,51.675-21.416
			v-18.274c0-11.796-2.375-20.646-7.132-26.551c-25.125,19.802-53.201,29.696-84.228,29.696c-31.023,0-59.101-9.895-84.223-29.696
			c-4.758,5.905-7.139,14.755-7.139,26.551v57.958c10.85,3.812,19.65,10.472,26.409,19.985c6.761,9.521,10.138,20.081,10.138,31.696
			c0,15.222-5.327,28.171-15.986,38.827c-10.66,10.657-23.604,15.985-38.832,15.985c-15.225,0-28.167-5.328-38.828-15.985
			c-10.657-10.656-15.987-23.605-15.987-38.827c0-11.611,3.333-22.176,9.995-31.696c6.661-9.514,15.514-16.173,26.552-19.985
			v-57.958c0-12.939,2.093-24.36,6.28-34.256c-12.944,2.856-24.362,8.614-34.261,17.273c-9.897,8.66-17.605,18.461-23.125,29.405
			c-5.52,10.95-10.041,23.562-13.562,37.835c-3.521,14.271-5.802,27.404-6.851,39.396c-1.047,11.992-1.569,24.462-1.569,37.404
			c0,23.031,6.949,41.114,20.842,54.241c13.896,13.135,32.36,19.698,55.39,19.698h249.533c23.028,0,41.49-6.563,55.388-19.698
			c13.901-13.127,20.845-31.21,20.845-54.241C420.264,351.641,419.733,339.178,418.687,327.186z"/>
		<path d="M91.358,347.172c0,4.948,1.809,9.232,5.424,12.847c3.617,3.62,7.895,5.427,12.847,5.427c4.952,0,9.235-1.807,12.851-5.427
			c3.617-3.614,5.426-7.898,5.426-12.847c0-4.949-1.809-9.233-5.426-12.848c-3.619-3.613-7.902-5.427-12.851-5.427
			c-4.948,0-9.229,1.813-12.847,5.427C93.167,337.938,91.358,342.223,91.358,347.172z"/>
	</g>
</g>
<g>
</g>
<g>
</g>
<g>
</g>
<g>
</g>
<g>
</g>
<g>
</g>
<g>
</g>
<g>
</g>
<g>
</g>
<g>
</g>
<g>
</g>
<g>
</g>
<g>
</g>
<g>
</g>
<g>
</g>
</svg>
