<?xml version="1.0" encoding="iso-8859-1"?>
<!-- Generator: Adobe Illustrator 16.0.0, SVG Export Plug-In . SVG Version: 6.00 Build 0)  -->
<!DOCTYPE svg PUBLIC "-//W3C//DTD SVG 1.1//EN" "http://www.w3.org/Graphics/SVG/1.1/DTD/svg11.dtd">
<svg version="1.1" id="Capa_1" xmlns="http://www.w3.org/2000/svg" xmlns:xlink="http://www.w3.org/1999/xlink" x="0px" y="0px"
	 width="438.536px" height="438.536px" viewBox="0 0 438.536 438.536" style="enable-background:new 0 0 438.536 438.536;"
	 xml:space="preserve">
<g>
	<g>
		<path d="M414.41,24.123C398.333,8.042,378.963,0,356.315,0H82.228C59.58,0,40.21,8.042,24.126,24.123
			C8.045,40.207,0.003,59.576,0.003,82.225v274.084c0,22.647,8.042,42.018,24.123,58.102c16.084,16.084,35.454,24.126,58.102,24.126
			h274.084c22.648,0,42.018-8.042,58.095-24.126c16.084-16.084,24.126-35.454,24.126-58.102V82.225
			C438.532,59.576,430.49,40.204,414.41,24.123z M365.449,356.309c0,2.471-0.903,4.613-2.714,6.42s-3.949,2.711-6.42,2.711H82.228
			c-2.474,0-4.615-0.904-6.423-2.711s-2.712-3.949-2.712-6.42V82.221c0-2.474,0.903-4.615,2.712-6.423
			c1.809-1.805,3.949-2.712,6.423-2.712h274.084c2.478,0,4.62,0.903,6.427,2.712c1.808,1.809,2.704,3.949,2.704,6.423v274.088
			H365.449z"/>
		<path d="M274.088,109.634c-3.806,0-7.334,1.146-10.571,3.427l-127.905,91.365c-5.14,3.612-7.708,8.561-7.708,14.844
			c0,6.278,2.571,11.226,7.708,14.84l127.905,91.361c3.237,2.289,6.766,3.433,10.571,3.433c4.948,0,9.232-1.814,12.847-5.428
			c3.61-3.614,5.428-7.898,5.428-12.847V127.907c0-4.949-1.811-9.235-5.428-12.847C283.317,111.446,279.036,109.634,274.088,109.634
			z"/>
	</g>
</g>
<g>
</g>
<g>
</g>
<g>
</g>
<g>
</g>
<g>
</g>
<g>
</g>
<g>
</g>
<g>
</g>
<g>
</g>
<g>
</g>
<g>
</g>
<g>
</g>
<g>
</g>
<g>
</g>
<g>
</g>
</svg>
