<?xml version="1.0" encoding="iso-8859-1"?>
<!-- Generator: Adobe Illustrator 16.0.0, SVG Export Plug-In . SVG Version: 6.00 Build 0)  -->
<!DOCTYPE svg PUBLIC "-//W3C//DTD SVG 1.1//EN" "http://www.w3.org/Graphics/SVG/1.1/DTD/svg11.dtd">
<svg version="1.1" id="Capa_1" xmlns="http://www.w3.org/2000/svg" xmlns:xlink="http://www.w3.org/1999/xlink" x="0px" y="0px"
	 width="347.182px" height="347.182px" viewBox="0 0 347.182 347.182" style="enable-background:new 0 0 347.182 347.182;"
	 xml:space="preserve">
<g>
	<path d="M277.808,5.426C274.187,1.809,269.902,0,264.954,0c-4.945,0-9.233,1.809-12.847,5.426L157.034,100.5H82.233
		c-4.952,0-9.235,1.809-12.851,5.424c-3.617,3.621-5.426,7.901-5.426,12.85v109.634c0,4.948,1.809,9.232,5.426,12.847
		c3.619,3.617,7.902,5.428,12.851,5.428h74.798l95.07,95.077c3.62,3.61,7.904,5.421,12.847,5.421c4.955,0,9.236-1.811,12.854-5.421
		c3.613-3.617,5.424-7.901,5.424-12.847V18.276C283.225,13.328,281.421,9.042,277.808,5.426z"/>
</g>
<g>
</g>
<g>
</g>
<g>
</g>
<g>
</g>
<g>
</g>
<g>
</g>
<g>
</g>
<g>
</g>
<g>
</g>
<g>
</g>
<g>
</g>
<g>
</g>
<g>
</g>
<g>
</g>
<g>
</g>
</svg>
