<?xml version="1.0" encoding="iso-8859-1"?>
<!-- Generator: Adobe Illustrator 16.0.0, SVG Export Plug-In . SVG Version: 6.00 Build 0)  -->
<!DOCTYPE svg PUBLIC "-//W3C//DTD SVG 1.1//EN" "http://www.w3.org/Graphics/SVG/1.1/DTD/svg11.dtd">
<svg version="1.1" id="Capa_1" xmlns="http://www.w3.org/2000/svg" xmlns:xlink="http://www.w3.org/1999/xlink" x="0px" y="0px"
	 width="502.483px" height="502.483px" viewBox="0 0 502.483 502.483" style="enable-background:new 0 0 502.483 502.483;"
	 xml:space="preserve">
<g>
	<g>
		<path d="M296.64,397.279c-11.139,21.032-26.836,37.736-47.109,50.11c-20.269,12.364-42.395,18.556-66.379,18.556
			c-35.214,0-65.334-12.509-90.364-37.542c-25.028-25.026-37.543-55.151-37.543-90.365c0-25.313,6.945-48.577,20.841-69.806
			c13.894-21.222,32.453-36.974,55.672-47.251l-4.853-37.402c-32.358,11.803-58.479,31.882-78.371,60.242
			c-19.89,28.361-29.834,59.77-29.834,94.217c0,29.701,7.376,57.153,22.126,82.371s34.735,45.204,59.954,59.953
			c25.216,14.749,52.678,22.121,82.368,22.121c35.594,0,67.858-10.562,96.785-31.689c28.932-21.122,48.917-48.725,59.957-82.796
			l-29.119-58.241C312.484,353.742,307.775,376.246,296.64,397.279z"/>
		<path d="M467.228,358.307L410.7,386.574l-65.096-129.904c-3.237-6.66-8.665-9.992-16.276-9.992H199.421l-4.568-36.543h116.205
			v-36.547H190.29l-10.566-82.512c12.946,1.331,24.366-2.618,34.263-11.848c9.898-9.231,14.847-20.413,14.847-33.547
			c0-12.562-4.471-23.317-13.418-32.264C206.466,4.471,195.71,0,183.151,0c-10.277,0-19.511,2.996-27.694,8.992
			c-8.186,5.996-13.61,13.844-16.274,23.551c-1.525,4.952-2.096,8.947-1.713,11.993l27.406,222.41
			c0.572,4.575,2.615,8.422,6.136,11.57c3.521,3.135,7.566,4.709,12.135,4.709h134.758l68.245,136.188
			c3.237,6.655,8.657,9.992,16.279,9.992c3.045,0,5.8-0.664,8.278-1.998l73.076-36.549L467.228,358.307z"/>
	</g>
</g>
<g>
</g>
<g>
</g>
<g>
</g>
<g>
</g>
<g>
</g>
<g>
</g>
<g>
</g>
<g>
</g>
<g>
</g>
<g>
</g>
<g>
</g>
<g>
</g>
<g>
</g>
<g>
</g>
<g>
</g>
</svg>
