<?xml version="1.0" encoding="iso-8859-1"?>
<!-- Generator: Adobe Illustrator 16.0.0, SVG Export Plug-In . SVG Version: 6.00 Build 0)  -->
<!DOCTYPE svg PUBLIC "-//W3C//DTD SVG 1.1//EN" "http://www.w3.org/Graphics/SVG/1.1/DTD/svg11.dtd">
<svg version="1.1" id="Capa_1" xmlns="http://www.w3.org/2000/svg" xmlns:xlink="http://www.w3.org/1999/xlink" x="0px" y="0px"
	 width="493.349px" height="493.349px" viewBox="0 0 493.349 493.349" style="enable-background:new 0 0 493.349 493.349;"
	 xml:space="preserve">
<g>
	<g>
		<path d="M36.547,27.406c-10.089,0-18.702,3.576-25.841,10.706C3.571,45.251,0,53.865,0,63.953c0,6.661,1.665,12.753,4.998,18.271
			c3.328,5.52,7.755,9.897,13.273,13.134v361.45c0,2.666,0.855,4.856,2.57,6.567c1.712,1.714,3.899,2.566,6.567,2.566h18.271
			c2.666,0,4.856-0.853,6.567-2.566c1.713-1.711,2.568-3.901,2.568-6.567V95.358c5.52-3.237,9.945-7.614,13.275-13.134
			c3.332-5.518,4.996-11.613,4.996-18.271c0-10.085-3.567-18.698-10.701-25.841C55.246,30.979,46.632,27.406,36.547,27.406z"/>
		<path d="M484.51,66.521c-5.903-3.424-11.8-3.612-17.71-0.568c-1.707,0.955-4.661,2.57-8.846,4.854
			c-35.782,21.317-65.281,31.977-88.504,31.977c-9.709,0-18.183-1.809-25.413-5.424c-21.313-10.468-41.206-18.654-59.669-24.556
			c-18.463-5.896-38.353-8.848-59.669-8.848c-13.894,0-28.647,1.809-44.252,5.426c-15.608,3.615-30.124,8.326-43.542,14.128
			c-13.417,5.806-24.27,10.754-32.546,14.847c-8.285,4.093-15.755,8.134-22.414,12.133c-5.901,3.806-8.853,9.04-8.853,15.703
			v211.842c0,7.042,3.046,12.374,9.136,15.988c3.045,1.526,6.091,2.282,9.137,2.282c3.424,0,6.567-0.855,9.419-2.563
			c18.081-11.04,39.825-20.752,65.235-29.126c25.413-8.374,47.826-12.562,67.24-12.562c11.035,0,21.89,1.331,32.547,3.997
			c10.656,2.663,19.321,5.428,25.98,8.278c6.656,2.857,16.077,7.423,28.264,13.706l7.994,3.997
			c13.319,6.666,28.356,9.999,45.101,9.999c28.746,0,63.861-11.04,105.354-33.119c1.335-0.76,2.95-1.615,4.853-2.57
			c6.66-3.426,9.996-8.847,9.996-16.272V82.224C493.353,75.563,490.402,70.331,484.51,66.521z M456.804,289.223
			c-32.928,17.507-60.812,26.261-83.651,26.265c-10.848,0-20.457-2.095-28.839-6.28l-7.99-3.996
			c-10.472-5.141-18.326-8.898-23.555-11.28c-5.232-2.382-12.566-5.331-21.98-8.85c-9.425-3.521-18.75-5.995-27.979-7.423
			c-9.229-1.427-19.081-2.139-29.552-2.139c-35.786,0-76.988,10.753-123.624,32.265V136.762
			c43.78-24.176,82.134-36.262,115.06-36.262c17.893,0,34.831,2.618,50.815,7.853c15.985,5.232,33.5,12.515,52.537,21.838
			c11.984,6.091,25.786,9.137,41.392,9.137c26.076,0,55.199-8.663,87.367-25.981V289.223L456.804,289.223z"/>
	</g>
</g>
<g>
</g>
<g>
</g>
<g>
</g>
<g>
</g>
<g>
</g>
<g>
</g>
<g>
</g>
<g>
</g>
<g>
</g>
<g>
</g>
<g>
</g>
<g>
</g>
<g>
</g>
<g>
</g>
<g>
</g>
</svg>
