<?xml version="1.0" encoding="iso-8859-1"?>
<!-- Generator: Adobe Illustrator 16.0.0, SVG Export Plug-In . SVG Version: 6.00 Build 0)  -->
<!DOCTYPE svg PUBLIC "-//W3C//DTD SVG 1.1//EN" "http://www.w3.org/Graphics/SVG/1.1/DTD/svg11.dtd">
<svg version="1.1" id="Capa_1" xmlns="http://www.w3.org/2000/svg" xmlns:xlink="http://www.w3.org/1999/xlink" x="0px" y="0px"
	 width="437.116px" height="437.116px" viewBox="0 0 437.116 437.116" style="enable-background:new 0 0 437.116 437.116;"
	 xml:space="preserve">
<g>
	<g>
		<path d="M165.306,178.022l52.532-76.23h35.689V53.827h-73.374l-39.971,65.094l-7.137,11.992c-1.521,2.283-2.568,4.283-3.14,5.997
			h-0.856c-0.571-2.286-1.615-4.286-3.14-5.997c-3.999-7.236-6.189-11.23-6.567-11.992L79.656,53.827H0.859v47.965h39.112
			l52.819,77.656l-56.243,83.083H0v47.678h73.66l44.252-71.372c2.857-4.572,5.236-8.758,7.139-12.563l2.568-5.995h0.859
			c0.571,2.282,1.619,4.281,3.14,5.995l6.855,11.991l45.395,71.944h70.81v-47.678h-31.132L165.306,178.022z"/>
		<path d="M401.138,324.486v22.85H334.91c0.76-7.423,4.661-14.37,11.704-20.841c7.046-6.472,15.327-12.467,24.838-17.987
			c9.51-5.52,18.986-11.468,28.407-17.843c9.418-6.375,17.415-14.562,23.986-24.561c6.563-9.993,9.852-21.262,9.852-33.825
			c0-18.846-6.478-33.929-19.417-45.254c-12.936-11.326-29.879-16.989-50.819-16.989c-20.553,0-38.451,6.189-53.666,18.56
			c-7.05,5.518-13.045,11.801-17.994,18.842l29.985,26.265c4.188-5.14,7.61-8.761,10.28-10.849
			c8.761-7.431,17.986-11.142,27.692-11.142c7.802,0,14.51,2.331,20.129,6.995c5.612,4.665,8.411,10.616,8.411,17.844
			c0,6.282-2.471,12.371-7.419,18.28c-4.941,5.9-11.136,11.03-18.562,15.41c-7.416,4.377-15.41,9.565-23.982,15.554
			c-8.562,5.996-16.561,12.187-23.986,18.556c-7.416,6.375-13.606,14.612-18.555,24.701c-4.948,10.092-7.426,21.224-7.426,33.4
			c0,0.198,0.287,4.575,0.855,13.134l1.143,7.703h146.749v-58.803H401.138L401.138,324.486z"/>
	</g>
</g>
<g>
</g>
<g>
</g>
<g>
</g>
<g>
</g>
<g>
</g>
<g>
</g>
<g>
</g>
<g>
</g>
<g>
</g>
<g>
</g>
<g>
</g>
<g>
</g>
<g>
</g>
<g>
</g>
<g>
</g>
</svg>
