<?xml version="1.0" encoding="iso-8859-1"?>
<!-- Generator: Adobe Illustrator 16.0.0, SVG Export Plug-In . SVG Version: 6.00 Build 0)  -->
<!DOCTYPE svg PUBLIC "-//W3C//DTD SVG 1.1//EN" "http://www.w3.org/Graphics/SVG/1.1/DTD/svg11.dtd">
<svg version="1.1" id="Capa_1" xmlns="http://www.w3.org/2000/svg" xmlns:xlink="http://www.w3.org/1999/xlink" x="0px" y="0px"
	 width="438.536px" height="438.536px" viewBox="0 0 438.536 438.536" style="enable-background:new 0 0 438.536 438.536;"
	 xml:space="preserve">
<g>
	<path d="M414.41,24.123C398.333,8.042,378.963,0,356.315,0H82.228C59.58,0,40.21,8.042,24.126,24.123
		C8.045,40.207,0.003,59.576,0.003,82.225v274.084c0,22.647,8.042,42.018,24.123,58.102c16.084,16.084,35.454,24.126,58.102,24.126
		h274.084c22.648,0,42.018-8.042,58.095-24.126c16.084-16.084,24.126-35.454,24.126-58.102V82.225
		C438.532,59.576,430.49,40.204,414.41,24.123z M124.486,292.64H71.665c-3.046,0-5.33-1.242-6.851-3.72
		c-1.713-2.663-1.713-5.325,0-7.991l55.961-98.779v-0.284L85.083,120.19c-1.521-3.234-1.615-5.996-0.284-8.277
		c1.521-2.092,3.996-3.142,7.423-3.142h52.532c5.898,0,10.847,3.239,14.845,9.712c23.982,42.062,35.974,63.188,35.974,63.382
		l-56.811,100.49C135.146,289.207,130.388,292.64,124.486,292.64z M373.724,47.967L256.953,254.383v0.287l74.236,135.895
		c1.708,2.854,1.811,5.523,0.281,7.994c-1.328,2.282-3.706,3.429-7.132,3.429h-52.534c-6.091,0-11.04-3.333-14.845-9.992
		c-49.678-91.17-74.612-136.948-74.8-137.328L299.501,46.529c3.617-6.665,8.277-9.994,13.986-9.994h53.393
		c3.23,0,5.509,1.143,6.851,3.427C375.253,42.25,375.253,44.917,373.724,47.967z"/>
</g>
<g>
</g>
<g>
</g>
<g>
</g>
<g>
</g>
<g>
</g>
<g>
</g>
<g>
</g>
<g>
</g>
<g>
</g>
<g>
</g>
<g>
</g>
<g>
</g>
<g>
</g>
<g>
</g>
<g>
</g>
</svg>
